%TF.GenerationSoftware,KiCad,Pcbnew,10.0.4*%
%TF.CreationDate,2026-06-24T15:06:58+05:30*%
%TF.ProjectId,LED_Chaser,4c45445f-4368-4617-9365-722e6b696361,rev?*%
%TF.SameCoordinates,Original*%
%TF.FileFunction,Soldermask,Top*%
%TF.FilePolarity,Negative*%
%FSLAX46Y46*%
G04 Gerber Fmt 4.6, Leading zero omitted, Abs format (unit mm)*
G04 Created by KiCad (PCBNEW 10.0.4) date 2026-06-24 15:06:58*
%MOMM*%
%LPD*%
G01*
G04 APERTURE LIST*
G04 Aperture macros list*
%AMRoundRect*
0 Rectangle with rounded corners*
0 $1 Rounding radius*
0 $2 $3 $4 $5 $6 $7 $8 $9 X,Y pos of 4 corners*
0 Add a 4 corners polygon primitive as box body*
4,1,4,$2,$3,$4,$5,$6,$7,$8,$9,$2,$3,0*
0 Add four circle primitives for the rounded corners*
1,1,$1+$1,$2,$3*
1,1,$1+$1,$4,$5*
1,1,$1+$1,$6,$7*
1,1,$1+$1,$8,$9*
0 Add four rect primitives between the rounded corners*
20,1,$1+$1,$2,$3,$4,$5,0*
20,1,$1+$1,$4,$5,$6,$7,0*
20,1,$1+$1,$6,$7,$8,$9,0*
20,1,$1+$1,$8,$9,$2,$3,0*%
G04 Aperture macros list end*
%ADD10R,1.800000X1.800000*%
%ADD11C,1.800000*%
%ADD12C,1.600000*%
%ADD13RoundRect,0.250000X-0.550000X-0.550000X0.550000X-0.550000X0.550000X0.550000X-0.550000X0.550000X0*%
%ADD14RoundRect,0.250000X0.550000X-0.550000X0.550000X0.550000X-0.550000X0.550000X-0.550000X-0.550000X0*%
%TA.AperFunction,ComponentPad*%
%ADD15R,1.800000X1.800000*%
%TD*%
%TA.AperFunction,ComponentPad*%
%ADD16C,1.800000*%
%TD*%
%TA.AperFunction,ComponentPad*%
%ADD17C,1.600000*%
%TD*%
%TA.AperFunction,ComponentPad*%
%ADD18RoundRect,0.250000X-0.550000X-0.550000X0.550000X-0.550000X0.550000X0.550000X-0.550000X0.550000X0*%
%TD*%
%TA.AperFunction,ComponentPad*%
%ADD19RoundRect,0.250000X0.550000X-0.550000X0.550000X0.550000X-0.550000X0.550000X-0.550000X-0.550000X0*%
%TD*%
%TA.AperFunction,Conductor*%
%ADD20C,0.200000*%
%TD*%
%ADD21C,0.150000*%
%ADD22C,0.120000*%
%TA.AperFunction,Profile*%
%ADD23C,0.050000*%
%TD*%
G04 APERTURE END LIST*
D10*
%TO.C,D2*%
X130970000Y-106350000D03*
D11*
X130970000Y-103810000D03*
%TD*%
%TO.C,D9*%
X146410000Y-125500000D03*
D10*
X146410000Y-128040000D03*
%TD*%
D11*
%TO.C,D7*%
X131470000Y-125500000D03*
D10*
X131470000Y-128040000D03*
%TD*%
D12*
%TO.C,C1*%
X126500000Y-65500000D03*
X126500000Y-60500000D03*
%TD*%
D10*
%TO.C,D4*%
X145910000Y-106350000D03*
D11*
X145910000Y-103810000D03*
%TD*%
D10*
%TO.C,D5*%
X153380000Y-106350000D03*
D11*
X153380000Y-103810000D03*
%TD*%
D10*
%TO.C,D1*%
X123500000Y-106350000D03*
D11*
X123500000Y-103810000D03*
%TD*%
D10*
%TO.C,D8*%
X138940000Y-128040000D03*
D11*
X138940000Y-125500000D03*
%TD*%
D12*
%TO.C,C2*%
X131990000Y-52300225D03*
D13*
X129990000Y-52300225D03*
%TD*%
D11*
%TO.C,D6*%
X124000000Y-125500000D03*
D10*
X124000000Y-128040000D03*
%TD*%
%TO.C,D3*%
X138440000Y-106350000D03*
D11*
X138440000Y-103810000D03*
%TD*%
%TO.C,D10*%
X153880000Y-125500000D03*
D10*
X153880000Y-128040000D03*
%TD*%
D12*
%TO.C,R6*%
X141800000Y-97310000D03*
X141800000Y-89690000D03*
%TD*%
%TO.C,R11*%
X142711021Y-111966097D03*
X142711021Y-119586097D03*
%TD*%
%TO.C,R3*%
X129650000Y-97310000D03*
X129650000Y-89690000D03*
%TD*%
%TO.C,R7*%
X145850000Y-97310000D03*
X145850000Y-89690000D03*
%TD*%
%TO.C,R8*%
X130561021Y-111966097D03*
X130561021Y-119586097D03*
%TD*%
%TO.C,R5*%
X137750000Y-97310000D03*
X137750000Y-89690000D03*
%TD*%
%TO.C,R4*%
X133700000Y-97310000D03*
X133700000Y-89690000D03*
%TD*%
%TO.C,U1*%
X140890000Y-59429775D03*
X140890000Y-61969775D03*
X140890000Y-64509775D03*
X140890000Y-67049775D03*
X133270000Y-67049775D03*
X133270000Y-64509775D03*
X133270000Y-61969775D03*
D13*
X133270000Y-59429775D03*
%TD*%
D12*
%TO.C,R1*%
X147000000Y-59369775D03*
X147000000Y-66989775D03*
%TD*%
%TO.C,R2*%
X145500000Y-52500000D03*
X137880000Y-52500000D03*
%TD*%
%TO.C,R9*%
X134611021Y-111966097D03*
X134611021Y-119586097D03*
%TD*%
%TO.C,R10*%
X138661021Y-111966097D03*
X138661021Y-119586097D03*
%TD*%
%TO.C,R12*%
X146761021Y-119586097D03*
X146761021Y-111966097D03*
%TD*%
%TO.C,U2*%
X128720000Y-76380000D03*
X131260000Y-76380000D03*
X133800000Y-76380000D03*
X136340000Y-76380000D03*
X138880000Y-76380000D03*
X141420000Y-76380000D03*
X143960000Y-76380000D03*
X146500000Y-76380000D03*
X146500000Y-84000000D03*
X143960000Y-84000000D03*
X141420000Y-84000000D03*
X138880000Y-84000000D03*
X136340000Y-84000000D03*
X133800000Y-84000000D03*
X131260000Y-84000000D03*
D14*
X128720000Y-84000000D03*
%TD*%
D15*
%TO.P,D2,1,K_1*%
%TO.N,GND*%
X130970000Y-106350000D03*
D16*
%TO.P,D2,2,A_2*%
%TO.N,Net-(D2-A)*%
X130970000Y-103810000D03*
%TD*%
%TO.P,D9,2,A_2*%
%TO.N,Net-(D9-A)*%
X146410000Y-125500000D03*
D15*
%TO.P,D9,1,K_1*%
%TO.N,GND*%
X146410000Y-128040000D03*
%TD*%
D16*
%TO.P,D7,2,A_2*%
%TO.N,Net-(D7-A)*%
X131470000Y-125500000D03*
D15*
%TO.P,D7,1,K_1*%
%TO.N,GND*%
X131470000Y-128040000D03*
%TD*%
D17*
%TO.P,C1,1*%
%TO.N,GND*%
X126500000Y-65500000D03*
%TO.P,C1,2*%
%TO.N,Net-(U1-CONT)*%
X126500000Y-60500000D03*
%TD*%
D15*
%TO.P,D4,1,K_1*%
%TO.N,GND*%
X145910000Y-106350000D03*
D16*
%TO.P,D4,2,A_2*%
%TO.N,Net-(D4-A)*%
X145910000Y-103810000D03*
%TD*%
D15*
%TO.P,D5,1,K_1*%
%TO.N,GND*%
X153380000Y-106350000D03*
D16*
%TO.P,D5,2,A_2*%
%TO.N,Net-(D5-A)*%
X153380000Y-103810000D03*
%TD*%
D15*
%TO.P,D1,1,K_1*%
%TO.N,GND*%
X123500000Y-106350000D03*
D16*
%TO.P,D1,2,A_2*%
%TO.N,Net-(D1-A)*%
X123500000Y-103810000D03*
%TD*%
D15*
%TO.P,D8,1,K_1*%
%TO.N,GND*%
X138940000Y-128040000D03*
D16*
%TO.P,D8,2,A_2*%
%TO.N,Net-(D8-A)*%
X138940000Y-125500000D03*
%TD*%
D17*
%TO.P,C2,2*%
%TO.N,GND*%
X131990000Y-52300225D03*
D18*
%TO.P,C2,1*%
%TO.N,Net-(U1-THRES)*%
X129990000Y-52300225D03*
%TD*%
D16*
%TO.P,D6,2,A_2*%
%TO.N,Net-(D6-A)*%
X124000000Y-125500000D03*
D15*
%TO.P,D6,1,K_1*%
%TO.N,GND*%
X124000000Y-128040000D03*
%TD*%
%TO.P,D3,1,K_1*%
%TO.N,GND*%
X138440000Y-106350000D03*
D16*
%TO.P,D3,2,A_2*%
%TO.N,Net-(D3-A)*%
X138440000Y-103810000D03*
%TD*%
%TO.P,D10,2,A_2*%
%TO.N,Net-(D10-A)*%
X153880000Y-125500000D03*
D15*
%TO.P,D10,1,K_1*%
%TO.N,GND*%
X153880000Y-128040000D03*
%TD*%
D17*
%TO.P,R6,1*%
%TO.N,Net-(U2-Q3)*%
X141800000Y-97310000D03*
%TO.P,R6,2*%
%TO.N,Net-(D4-A)*%
X141800000Y-89690000D03*
%TD*%
%TO.P,R11,2*%
%TO.N,Net-(D9-A)*%
X142711021Y-111966097D03*
%TO.P,R11,1*%
%TO.N,Net-(U2-Q8)*%
X142711021Y-119586097D03*
%TD*%
%TO.P,R3,1*%
%TO.N,Net-(U2-Q0)*%
X129650000Y-97310000D03*
%TO.P,R3,2*%
%TO.N,Net-(D1-A)*%
X129650000Y-89690000D03*
%TD*%
%TO.P,R7,1*%
%TO.N,Net-(U2-Q4)*%
X145850000Y-97310000D03*
%TO.P,R7,2*%
%TO.N,Net-(D5-A)*%
X145850000Y-89690000D03*
%TD*%
%TO.P,R8,2*%
%TO.N,Net-(D6-A)*%
X130561021Y-111966097D03*
%TO.P,R8,1*%
%TO.N,Net-(U2-Q5)*%
X130561021Y-119586097D03*
%TD*%
%TO.P,R5,1*%
%TO.N,Net-(U2-Q2)*%
X137750000Y-97310000D03*
%TO.P,R5,2*%
%TO.N,Net-(D3-A)*%
X137750000Y-89690000D03*
%TD*%
%TO.P,R4,1*%
%TO.N,Net-(U2-Q1)*%
X133700000Y-97310000D03*
%TO.P,R4,2*%
%TO.N,Net-(D2-A)*%
X133700000Y-89690000D03*
%TD*%
%TO.P,U1,8,VCC_8*%
%TO.N,VCC*%
X140890000Y-59429775D03*
%TO.P,U1,7,DISCH_7*%
%TO.N,Net-(U1-DISCH)*%
X140890000Y-61969775D03*
%TO.P,U1,6,THRES_6*%
%TO.N,Net-(U1-THRES)*%
X140890000Y-64509775D03*
%TO.P,U1,5,CONT_5*%
%TO.N,Net-(U1-CONT)*%
X140890000Y-67049775D03*
%TO.P,U1,4,~{RST}_4*%
%TO.N,VCC*%
X133270000Y-67049775D03*
%TO.P,U1,3,OUT_3*%
%TO.N,Net-(U1-OUT)*%
X133270000Y-64509775D03*
%TO.P,U1,2,TRIG_2*%
%TO.N,Net-(U1-THRES)*%
X133270000Y-61969775D03*
D18*
%TO.P,U1,1,GND_1*%
%TO.N,GND*%
X133270000Y-59429775D03*
%TD*%
D17*
%TO.P,R1,1*%
%TO.N,VCC*%
X147000000Y-59369775D03*
%TO.P,R1,2*%
%TO.N,Net-(U1-DISCH)*%
X147000000Y-66989775D03*
%TD*%
%TO.P,R2,1*%
%TO.N,Net-(U1-DISCH)*%
X145500000Y-52500000D03*
%TO.P,R2,2*%
%TO.N,Net-(U1-THRES)*%
X137880000Y-52500000D03*
%TD*%
%TO.P,R9,2*%
%TO.N,Net-(D7-A)*%
X134611021Y-111966097D03*
%TO.P,R9,1*%
%TO.N,Net-(U2-Q6)*%
X134611021Y-119586097D03*
%TD*%
%TO.P,R10,2*%
%TO.N,Net-(D8-A)*%
X138661021Y-111966097D03*
%TO.P,R10,1*%
%TO.N,Net-(U2-Q7)*%
X138661021Y-119586097D03*
%TD*%
%TO.P,R12,1*%
%TO.N,Net-(U2-Q9)*%
X146761021Y-119586097D03*
%TO.P,R12,2*%
%TO.N,Net-(D10-A)*%
X146761021Y-111966097D03*
%TD*%
%TO.P,U2,16,VDD_16*%
%TO.N,VCC*%
X128720000Y-76380000D03*
%TO.P,U2,15,Reset_15*%
%TO.N,GND*%
X131260000Y-76380000D03*
%TO.P,U2,14,CLK_14*%
%TO.N,Net-(U1-OUT)*%
X133800000Y-76380000D03*
%TO.P,U2,13,CKEN_13*%
%TO.N,GND*%
X136340000Y-76380000D03*
%TO.P,U2,12,Cout_12*%
%TO.N,unconnected-(U2-Cout-Pad12)*%
X138880000Y-76380000D03*
%TO.P,U2,11,Q9_11*%
%TO.N,Net-(U2-Q9)*%
X141420000Y-76380000D03*
%TO.P,U2,10,Q4_10*%
%TO.N,Net-(U2-Q4)*%
X143960000Y-76380000D03*
%TO.P,U2,9,Q8_9*%
%TO.N,Net-(U2-Q8)*%
X146500000Y-76380000D03*
%TO.P,U2,8,VSS_8*%
%TO.N,GND*%
X146500000Y-84000000D03*
%TO.P,U2,7,Q3_7*%
%TO.N,Net-(U2-Q3)*%
X143960000Y-84000000D03*
%TO.P,U2,6,Q7_6*%
%TO.N,Net-(U2-Q7)*%
X141420000Y-84000000D03*
%TO.P,U2,5,Q6_5*%
%TO.N,Net-(U2-Q6)*%
X138880000Y-84000000D03*
%TO.P,U2,4,Q2_4*%
%TO.N,Net-(U2-Q2)*%
X136340000Y-84000000D03*
%TO.P,U2,3,Q0_3*%
%TO.N,Net-(U2-Q0)*%
X133800000Y-84000000D03*
%TO.P,U2,2,Q1_2*%
%TO.N,Net-(U2-Q1)*%
X131260000Y-84000000D03*
D19*
%TO.P,U2,1,Q5_1*%
%TO.N,Net-(U2-Q5)*%
X128720000Y-84000000D03*
%TD*%
%TO.N,VCC*%
D20*
X140890000Y-59429775D02*
X133270000Y-67049775D01*
%TO.N,Net-(U2-Q7)*%
X139761021Y-118486097D02*
X138661021Y-119586097D01*
%TO.N,Net-(U2-Q6)*%
X115000000Y-121500000D02*
X132697118Y-121500000D01*
X115000000Y-88500000D02*
X115000000Y-121500000D01*
%TO.N,Net-(U2-Q8)*%
X162500000Y-76500000D02*
X162500000Y-119500000D01*
X162380000Y-76380000D02*
X162500000Y-76500000D01*
X162500000Y-119500000D02*
X161313903Y-120686097D01*
%TO.N,Net-(U2-Q6)*%
X134380000Y-88500000D02*
X115000000Y-88500000D01*
%TO.N,Net-(U2-Q7)*%
X143920000Y-86500000D02*
X160500000Y-86500000D01*
%TO.N,Net-(U2-Q6)*%
X138880000Y-84000000D02*
X134380000Y-88500000D01*
%TO.N,Net-(U2-Q8)*%
X146500000Y-76380000D02*
X162380000Y-76380000D01*
%TO.N,Net-(U2-Q6)*%
X132697118Y-121500000D02*
X134611021Y-119586097D01*
%TO.N,Net-(U2-Q7)*%
X160500000Y-86500000D02*
X160500000Y-116500000D01*
%TO.N,Net-(U2-Q8)*%
X161313903Y-120686097D02*
X143811021Y-120686097D01*
X143811021Y-120686097D02*
X142711021Y-119586097D01*
%TO.N,Net-(U2-Q7)*%
X141420000Y-84000000D02*
X143920000Y-86500000D01*
X158000000Y-119000000D02*
X157486097Y-118486097D01*
X160500000Y-116500000D02*
X158000000Y-119000000D01*
X157486097Y-118486097D02*
X139761021Y-118486097D01*
%TD*%
%TA.AperFunction,Conductor*%
%TO.N,GND*%
G36*
X174442539Y-41020185D02*
G01*
X174488294Y-41072989D01*
X174499500Y-41124500D01*
X174499500Y-139871321D01*
X174479815Y-139938360D01*
X174427011Y-139984115D01*
X174374673Y-139995318D01*
X100623673Y-139503646D01*
X100556767Y-139483515D01*
X100511365Y-139430407D01*
X100500500Y-139379649D01*
X100500500Y-125389778D01*
X122599500Y-125389778D01*
X122599500Y-125610221D01*
X122633985Y-125827952D01*
X122702103Y-126037603D01*
X122702104Y-126037606D01*
X122802187Y-126234025D01*
X122931752Y-126412358D01*
X122931756Y-126412363D01*
X123087636Y-126568243D01*
X123087641Y-126568247D01*
X123243192Y-126681260D01*
X123265978Y-126697815D01*
X123394375Y-126763237D01*
X123462393Y-126797895D01*
X123462396Y-126797896D01*
X123567221Y-126831955D01*
X123672049Y-126866015D01*
X123889778Y-126900500D01*
X123889779Y-126900500D01*
X124110221Y-126900500D01*
X124110222Y-126900500D01*
X124327951Y-126866015D01*
X124537606Y-126797895D01*
X124734022Y-126697815D01*
X124912365Y-126568242D01*
X125068242Y-126412365D01*
X125197815Y-126234022D01*
X125297895Y-126037606D01*
X125366015Y-125827951D01*
X125400500Y-125610222D01*
X125400500Y-125389778D01*
X130069500Y-125389778D01*
X130069500Y-125610221D01*
X130103985Y-125827952D01*
X130172103Y-126037603D01*
X130172104Y-126037606D01*
X130272187Y-126234025D01*
X130401752Y-126412358D01*
X130401756Y-126412363D01*
X130557636Y-126568243D01*
X130557641Y-126568247D01*
X130713192Y-126681260D01*
X130735978Y-126697815D01*
X130864375Y-126763237D01*
X130932393Y-126797895D01*
X130932396Y-126797896D01*
X131037221Y-126831955D01*
X131142049Y-126866015D01*
X131359778Y-126900500D01*
X131359779Y-126900500D01*
X131580221Y-126900500D01*
X131580222Y-126900500D01*
X131797951Y-126866015D01*
X132007606Y-126797895D01*
X132204022Y-126697815D01*
X132382365Y-126568242D01*
X132538242Y-126412365D01*
X132667815Y-126234022D01*
X132767895Y-126037606D01*
X132836015Y-125827951D01*
X132870500Y-125610222D01*
X132870500Y-125389778D01*
X137539500Y-125389778D01*
X137539500Y-125610221D01*
X137573985Y-125827952D01*
X137642103Y-126037603D01*
X137642104Y-126037606D01*
X137742187Y-126234025D01*
X137871752Y-126412358D01*
X137871756Y-126412363D01*
X138027636Y-126568243D01*
X138027641Y-126568247D01*
X138183192Y-126681260D01*
X138205978Y-126697815D01*
X138334375Y-126763237D01*
X138402393Y-126797895D01*
X138402396Y-126797896D01*
X138507221Y-126831955D01*
X138612049Y-126866015D01*
X138829778Y-126900500D01*
X138829779Y-126900500D01*
X139050221Y-126900500D01*
X139050222Y-126900500D01*
X139267951Y-126866015D01*
X139477606Y-126797895D01*
X139674022Y-126697815D01*
X139852365Y-126568242D01*
X140008242Y-126412365D01*
X140137815Y-126234022D01*
X140237895Y-126037606D01*
X140306015Y-125827951D01*
X140340500Y-125610222D01*
X140340500Y-125389778D01*
X145009500Y-125389778D01*
X145009500Y-125610221D01*
X145043985Y-125827952D01*
X145112103Y-126037603D01*
X145112104Y-126037606D01*
X145212187Y-126234025D01*
X145341752Y-126412358D01*
X145341756Y-126412363D01*
X145497636Y-126568243D01*
X145497641Y-126568247D01*
X145653192Y-126681260D01*
X145675978Y-126697815D01*
X145804375Y-126763237D01*
X145872393Y-126797895D01*
X145872396Y-126797896D01*
X145977221Y-126831955D01*
X146082049Y-126866015D01*
X146299778Y-126900500D01*
X146299779Y-126900500D01*
X146520221Y-126900500D01*
X146520222Y-126900500D01*
X146737951Y-126866015D01*
X146947606Y-126797895D01*
X147144022Y-126697815D01*
X147322365Y-126568242D01*
X147478242Y-126412365D01*
X147607815Y-126234022D01*
X147707895Y-126037606D01*
X147776015Y-125827951D01*
X147810500Y-125610222D01*
X147810500Y-125389778D01*
X152479500Y-125389778D01*
X152479500Y-125610221D01*
X152513985Y-125827952D01*
X152582103Y-126037603D01*
X152582104Y-126037606D01*
X152682187Y-126234025D01*
X152811752Y-126412358D01*
X152811756Y-126412363D01*
X152967636Y-126568243D01*
X152967641Y-126568247D01*
X153123192Y-126681260D01*
X153145978Y-126697815D01*
X153274375Y-126763237D01*
X153342393Y-126797895D01*
X153342396Y-126797896D01*
X153447221Y-126831955D01*
X153552049Y-126866015D01*
X153769778Y-126900500D01*
X153769779Y-126900500D01*
X153990221Y-126900500D01*
X153990222Y-126900500D01*
X154207951Y-126866015D01*
X154417606Y-126797895D01*
X154614022Y-126697815D01*
X154792365Y-126568242D01*
X154948242Y-126412365D01*
X155077815Y-126234022D01*
X155177895Y-126037606D01*
X155246015Y-125827951D01*
X155280500Y-125610222D01*
X155280500Y-125389778D01*
X155246015Y-125172049D01*
X155177895Y-124962394D01*
X155177895Y-124962393D01*
X155143237Y-124894375D01*
X155077815Y-124765978D01*
X155061260Y-124743192D01*
X154948247Y-124587641D01*
X154948243Y-124587636D01*
X154792363Y-124431756D01*
X154792358Y-124431752D01*
X154614025Y-124302187D01*
X154614024Y-124302186D01*
X154614022Y-124302185D01*
X154551096Y-124270122D01*
X154417606Y-124202104D01*
X154417603Y-124202103D01*
X154207952Y-124133985D01*
X154099086Y-124116742D01*
X153990222Y-124099500D01*
X153769778Y-124099500D01*
X153697201Y-124110995D01*
X153552047Y-124133985D01*
X153342396Y-124202103D01*
X153342393Y-124202104D01*
X153145974Y-124302187D01*
X152967641Y-124431752D01*
X152967636Y-124431756D01*
X152811756Y-124587636D01*
X152811752Y-124587641D01*
X152682187Y-124765974D01*
X152582104Y-124962393D01*
X152582103Y-124962396D01*
X152513985Y-125172047D01*
X152479500Y-125389778D01*
X147810500Y-125389778D01*
X147776015Y-125172049D01*
X147707895Y-124962394D01*
X147707895Y-124962393D01*
X147673237Y-124894375D01*
X147607815Y-124765978D01*
X147591260Y-124743192D01*
X147478247Y-124587641D01*
X147478243Y-124587636D01*
X147322363Y-124431756D01*
X147322358Y-124431752D01*
X147144025Y-124302187D01*
X147144024Y-124302186D01*
X147144022Y-124302185D01*
X147081096Y-124270122D01*
X146947606Y-124202104D01*
X146947603Y-124202103D01*
X146737952Y-124133985D01*
X146629086Y-124116742D01*
X146520222Y-124099500D01*
X146299778Y-124099500D01*
X146227201Y-124110995D01*
X146082047Y-124133985D01*
X145872396Y-124202103D01*
X145872393Y-124202104D01*
X145675974Y-124302187D01*
X145497641Y-124431752D01*
X145497636Y-124431756D01*
X145341756Y-124587636D01*
X145341752Y-124587641D01*
X145212187Y-124765974D01*
X145112104Y-124962393D01*
X145112103Y-124962396D01*
X145043985Y-125172047D01*
X145009500Y-125389778D01*
X140340500Y-125389778D01*
X140306015Y-125172049D01*
X140237895Y-124962394D01*
X140237895Y-124962393D01*
X140203237Y-124894375D01*
X140137815Y-124765978D01*
X140121260Y-124743192D01*
X140008247Y-124587641D01*
X140008243Y-124587636D01*
X139852363Y-124431756D01*
X139852358Y-124431752D01*
X139674025Y-124302187D01*
X139674024Y-124302186D01*
X139674022Y-124302185D01*
X139611096Y-124270122D01*
X139477606Y-124202104D01*
X139477603Y-124202103D01*
X139267952Y-124133985D01*
X139159086Y-124116742D01*
X139050222Y-124099500D01*
X138829778Y-124099500D01*
X138757201Y-124110995D01*
X138612047Y-124133985D01*
X138402396Y-124202103D01*
X138402393Y-124202104D01*
X138205974Y-124302187D01*
X138027641Y-124431752D01*
X138027636Y-124431756D01*
X137871756Y-124587636D01*
X137871752Y-124587641D01*
X137742187Y-124765974D01*
X137642104Y-124962393D01*
X137642103Y-124962396D01*
X137573985Y-125172047D01*
X137539500Y-125389778D01*
X132870500Y-125389778D01*
X132836015Y-125172049D01*
X132767895Y-124962394D01*
X132767895Y-124962393D01*
X132733237Y-124894375D01*
X132667815Y-124765978D01*
X132651260Y-124743192D01*
X132538247Y-124587641D01*
X132538243Y-124587636D01*
X132382363Y-124431756D01*
X132382358Y-124431752D01*
X132204025Y-124302187D01*
X132204024Y-124302186D01*
X132204022Y-124302185D01*
X132141096Y-124270122D01*
X132007606Y-124202104D01*
X132007603Y-124202103D01*
X131797952Y-124133985D01*
X131689086Y-124116742D01*
X131580222Y-124099500D01*
X131359778Y-124099500D01*
X131287201Y-124110995D01*
X131142047Y-124133985D01*
X130932396Y-124202103D01*
X130932393Y-124202104D01*
X130735974Y-124302187D01*
X130557641Y-124431752D01*
X130557636Y-124431756D01*
X130401756Y-124587636D01*
X130401752Y-124587641D01*
X130272187Y-124765974D01*
X130172104Y-124962393D01*
X130172103Y-124962396D01*
X130103985Y-125172047D01*
X130069500Y-125389778D01*
X125400500Y-125389778D01*
X125366015Y-125172049D01*
X125297895Y-124962394D01*
X125297895Y-124962393D01*
X125263237Y-124894375D01*
X125197815Y-124765978D01*
X125181260Y-124743192D01*
X125068247Y-124587641D01*
X125068243Y-124587636D01*
X124912363Y-124431756D01*
X124912358Y-124431752D01*
X124734025Y-124302187D01*
X124734024Y-124302186D01*
X124734022Y-124302185D01*
X124671096Y-124270122D01*
X124537606Y-124202104D01*
X124537603Y-124202103D01*
X124327952Y-124133985D01*
X124219086Y-124116742D01*
X124110222Y-124099500D01*
X123889778Y-124099500D01*
X123817201Y-124110995D01*
X123672047Y-124133985D01*
X123462396Y-124202103D01*
X123462393Y-124202104D01*
X123265974Y-124302187D01*
X123087641Y-124431752D01*
X123087636Y-124431756D01*
X122931756Y-124587636D01*
X122931752Y-124587641D01*
X122802187Y-124765974D01*
X122702104Y-124962393D01*
X122702103Y-124962396D01*
X122633985Y-125172047D01*
X122599500Y-125389778D01*
X100500500Y-125389778D01*
X100500500Y-88420943D01*
X114399500Y-88420943D01*
X114399500Y-121579056D01*
X114440423Y-121731783D01*
X114440426Y-121731790D01*
X114519475Y-121868709D01*
X114519478Y-121868713D01*
X114519480Y-121868716D01*
X114631284Y-121980520D01*
X114631286Y-121980521D01*
X114631290Y-121980524D01*
X114768209Y-122059573D01*
X114768216Y-122059577D01*
X114920943Y-122100500D01*
X115079057Y-122100500D01*
X132610449Y-122100500D01*
X132610465Y-122100501D01*
X132618061Y-122100501D01*
X132776172Y-122100501D01*
X132776175Y-122100501D01*
X132928903Y-122059577D01*
X132979022Y-122030639D01*
X133065834Y-121980520D01*
X133177638Y-121868716D01*
X133177638Y-121868714D01*
X133187846Y-121858507D01*
X133187847Y-121858504D01*
X134166180Y-120880172D01*
X134227501Y-120846689D01*
X134292175Y-120849923D01*
X134306487Y-120854574D01*
X134508669Y-120886597D01*
X134508670Y-120886597D01*
X134713372Y-120886597D01*
X134713373Y-120886597D01*
X134915555Y-120854574D01*
X135110240Y-120791317D01*
X135292631Y-120698384D01*
X135385611Y-120630829D01*
X135458234Y-120578068D01*
X135458236Y-120578065D01*
X135458240Y-120578063D01*
X135602987Y-120433316D01*
X135602989Y-120433312D01*
X135602992Y-120433310D01*
X135655753Y-120360687D01*
X135723308Y-120267707D01*
X135816241Y-120085316D01*
X135879498Y-119890631D01*
X135911521Y-119688449D01*
X135911521Y-119483745D01*
X135893302Y-119368716D01*
X135879498Y-119281562D01*
X135826756Y-119119240D01*
X135816241Y-119086878D01*
X135816239Y-119086875D01*
X135816239Y-119086873D01*
X135782524Y-119020704D01*
X135723308Y-118904487D01*
X135715577Y-118893846D01*
X135602992Y-118738883D01*
X135458234Y-118594125D01*
X135292634Y-118473812D01*
X135292633Y-118473811D01*
X135292631Y-118473810D01*
X135235674Y-118444788D01*
X135110244Y-118380878D01*
X134915555Y-118317619D01*
X134741016Y-118289975D01*
X134713373Y-118285597D01*
X134508669Y-118285597D01*
X134484350Y-118289448D01*
X134306486Y-118317619D01*
X134111797Y-118380878D01*
X133929407Y-118473812D01*
X133763807Y-118594125D01*
X133619049Y-118738883D01*
X133498736Y-118904483D01*
X133405802Y-119086873D01*
X133342543Y-119281562D01*
X133310521Y-119483745D01*
X133310521Y-119688448D01*
X133342544Y-119890632D01*
X133347193Y-119904942D01*
X133349186Y-119974784D01*
X133316942Y-120030938D01*
X132484702Y-120863181D01*
X132423379Y-120896666D01*
X132397021Y-120899500D01*
X131347452Y-120899500D01*
X131280413Y-120879815D01*
X131234658Y-120827011D01*
X131224714Y-120757853D01*
X131253739Y-120694297D01*
X131274567Y-120675181D01*
X131408240Y-120578063D01*
X131552987Y-120433316D01*
X131552989Y-120433312D01*
X131552992Y-120433310D01*
X131605753Y-120360687D01*
X131673308Y-120267707D01*
X131766241Y-120085316D01*
X131829498Y-119890631D01*
X131861521Y-119688449D01*
X131861521Y-119483745D01*
X131843302Y-119368716D01*
X131829498Y-119281562D01*
X131776756Y-119119240D01*
X131766241Y-119086878D01*
X131766239Y-119086875D01*
X131766239Y-119086873D01*
X131732524Y-119020704D01*
X131673308Y-118904487D01*
X131665577Y-118893846D01*
X131552992Y-118738883D01*
X131408234Y-118594125D01*
X131242634Y-118473812D01*
X131242633Y-118473811D01*
X131242631Y-118473810D01*
X131185674Y-118444788D01*
X131060244Y-118380878D01*
X130865555Y-118317619D01*
X130691016Y-118289975D01*
X130663373Y-118285597D01*
X130458669Y-118285597D01*
X130434350Y-118289448D01*
X130256486Y-118317619D01*
X130061797Y-118380878D01*
X129879407Y-118473812D01*
X129713807Y-118594125D01*
X129569049Y-118738883D01*
X129448736Y-118904483D01*
X129355802Y-119086873D01*
X129292543Y-119281562D01*
X129260521Y-119483745D01*
X129260521Y-119688448D01*
X129292543Y-119890631D01*
X129355802Y-120085320D01*
X129448736Y-120267710D01*
X129569049Y-120433310D01*
X129713801Y-120578062D01*
X129847475Y-120675181D01*
X129890141Y-120730511D01*
X129896120Y-120800125D01*
X129863515Y-120861920D01*
X129802676Y-120896277D01*
X129774590Y-120899500D01*
X115724500Y-120899500D01*
X115657461Y-120879815D01*
X115611706Y-120827011D01*
X115600500Y-120775500D01*
X115600500Y-111863745D01*
X129260521Y-111863745D01*
X129260521Y-112068448D01*
X129292543Y-112270631D01*
X129355802Y-112465320D01*
X129448736Y-112647710D01*
X129569049Y-112813310D01*
X129713807Y-112958068D01*
X129868770Y-113070653D01*
X129879411Y-113078384D01*
X129995628Y-113137600D01*
X130061797Y-113171315D01*
X130061799Y-113171315D01*
X130061802Y-113171317D01*
X130166158Y-113205224D01*
X130256486Y-113234574D01*
X130357578Y-113250585D01*
X130458669Y-113266597D01*
X130458670Y-113266597D01*
X130663372Y-113266597D01*
X130663373Y-113266597D01*
X130865555Y-113234574D01*
X131060240Y-113171317D01*
X131242631Y-113078384D01*
X131335611Y-113010829D01*
X131408234Y-112958068D01*
X131408236Y-112958065D01*
X131408240Y-112958063D01*
X131552987Y-112813316D01*
X131552989Y-112813312D01*
X131552992Y-112813310D01*
X131605753Y-112740687D01*
X131673308Y-112647707D01*
X131766241Y-112465316D01*
X131829498Y-112270631D01*
X131861521Y-112068449D01*
X131861521Y-111863745D01*
X133310521Y-111863745D01*
X133310521Y-112068448D01*
X133342543Y-112270631D01*
X133405802Y-112465320D01*
X133498736Y-112647710D01*
X133619049Y-112813310D01*
X133763807Y-112958068D01*
X133918770Y-113070653D01*
X133929411Y-113078384D01*
X134045628Y-113137600D01*
X134111797Y-113171315D01*
X134111799Y-113171315D01*
X134111802Y-113171317D01*
X134216158Y-113205224D01*
X134306486Y-113234574D01*
X134407578Y-113250585D01*
X134508669Y-113266597D01*
X134508670Y-113266597D01*
X134713372Y-113266597D01*
X134713373Y-113266597D01*
X134915555Y-113234574D01*
X135110240Y-113171317D01*
X135292631Y-113078384D01*
X135385611Y-113010829D01*
X135458234Y-112958068D01*
X135458236Y-112958065D01*
X135458240Y-112958063D01*
X135602987Y-112813316D01*
X135602989Y-112813312D01*
X135602992Y-112813310D01*
X135655753Y-112740687D01*
X135723308Y-112647707D01*
X135816241Y-112465316D01*
X135879498Y-112270631D01*
X135911521Y-112068449D01*
X135911521Y-111863745D01*
X137360521Y-111863745D01*
X137360521Y-112068448D01*
X137392543Y-112270631D01*
X137455802Y-112465320D01*
X137548736Y-112647710D01*
X137669049Y-112813310D01*
X137813807Y-112958068D01*
X137968770Y-113070653D01*
X137979411Y-113078384D01*
X138095628Y-113137600D01*
X138161797Y-113171315D01*
X138161799Y-113171315D01*
X138161802Y-113171317D01*
X138266158Y-113205224D01*
X138356486Y-113234574D01*
X138457578Y-113250585D01*
X138558669Y-113266597D01*
X138558670Y-113266597D01*
X138763372Y-113266597D01*
X138763373Y-113266597D01*
X138965555Y-113234574D01*
X139160240Y-113171317D01*
X139342631Y-113078384D01*
X139435611Y-113010829D01*
X139508234Y-112958068D01*
X139508236Y-112958065D01*
X139508240Y-112958063D01*
X139652987Y-112813316D01*
X139652989Y-112813312D01*
X139652992Y-112813310D01*
X139705753Y-112740687D01*
X139773308Y-112647707D01*
X139866241Y-112465316D01*
X139929498Y-112270631D01*
X139961521Y-112068449D01*
X139961521Y-111863745D01*
X141410521Y-111863745D01*
X141410521Y-112068448D01*
X141442543Y-112270631D01*
X141505802Y-112465320D01*
X141598736Y-112647710D01*
X141719049Y-112813310D01*
X141863807Y-112958068D01*
X142018770Y-113070653D01*
X142029411Y-113078384D01*
X142145628Y-113137600D01*
X142211797Y-113171315D01*
X142211799Y-113171315D01*
X142211802Y-113171317D01*
X142316158Y-113205224D01*
X142406486Y-113234574D01*
X142507578Y-113250585D01*
X142608669Y-113266597D01*
X142608670Y-113266597D01*
X142813372Y-113266597D01*
X142813373Y-113266597D01*
X143015555Y-113234574D01*
X143210240Y-113171317D01*
X143392631Y-113078384D01*
X143485611Y-113010829D01*
X143558234Y-112958068D01*
X143558236Y-112958065D01*
X143558240Y-112958063D01*
X143702987Y-112813316D01*
X143702989Y-112813312D01*
X143702992Y-112813310D01*
X143755753Y-112740687D01*
X143823308Y-112647707D01*
X143916241Y-112465316D01*
X143979498Y-112270631D01*
X144011521Y-112068449D01*
X144011521Y-111863745D01*
X145460521Y-111863745D01*
X145460521Y-112068448D01*
X145492543Y-112270631D01*
X145555802Y-112465320D01*
X145648736Y-112647710D01*
X145769049Y-112813310D01*
X145913807Y-112958068D01*
X146068770Y-113070653D01*
X146079411Y-113078384D01*
X146195628Y-113137600D01*
X146261797Y-113171315D01*
X146261799Y-113171315D01*
X146261802Y-113171317D01*
X146366158Y-113205224D01*
X146456486Y-113234574D01*
X146557578Y-113250585D01*
X146658669Y-113266597D01*
X146658670Y-113266597D01*
X146863372Y-113266597D01*
X146863373Y-113266597D01*
X147065555Y-113234574D01*
X147260240Y-113171317D01*
X147442631Y-113078384D01*
X147535611Y-113010829D01*
X147608234Y-112958068D01*
X147608236Y-112958065D01*
X147608240Y-112958063D01*
X147752987Y-112813316D01*
X147752989Y-112813312D01*
X147752992Y-112813310D01*
X147805753Y-112740687D01*
X147873308Y-112647707D01*
X147966241Y-112465316D01*
X148029498Y-112270631D01*
X148061521Y-112068449D01*
X148061521Y-111863745D01*
X148029498Y-111661563D01*
X147966241Y-111466878D01*
X147966239Y-111466875D01*
X147966239Y-111466873D01*
X147932524Y-111400704D01*
X147873308Y-111284487D01*
X147865577Y-111273846D01*
X147752992Y-111118883D01*
X147608234Y-110974125D01*
X147442634Y-110853812D01*
X147442633Y-110853811D01*
X147442631Y-110853810D01*
X147385674Y-110824788D01*
X147260244Y-110760878D01*
X147065555Y-110697619D01*
X146891016Y-110669975D01*
X146863373Y-110665597D01*
X146658669Y-110665597D01*
X146634350Y-110669448D01*
X146456486Y-110697619D01*
X146261797Y-110760878D01*
X146079407Y-110853812D01*
X145913807Y-110974125D01*
X145769049Y-111118883D01*
X145648736Y-111284483D01*
X145555802Y-111466873D01*
X145492543Y-111661562D01*
X145460521Y-111863745D01*
X144011521Y-111863745D01*
X143979498Y-111661563D01*
X143916241Y-111466878D01*
X143916239Y-111466875D01*
X143916239Y-111466873D01*
X143882524Y-111400704D01*
X143823308Y-111284487D01*
X143815577Y-111273846D01*
X143702992Y-111118883D01*
X143558234Y-110974125D01*
X143392634Y-110853812D01*
X143392633Y-110853811D01*
X143392631Y-110853810D01*
X143335674Y-110824788D01*
X143210244Y-110760878D01*
X143015555Y-110697619D01*
X142841016Y-110669975D01*
X142813373Y-110665597D01*
X142608669Y-110665597D01*
X142584350Y-110669448D01*
X142406486Y-110697619D01*
X142211797Y-110760878D01*
X142029407Y-110853812D01*
X141863807Y-110974125D01*
X141719049Y-111118883D01*
X141598736Y-111284483D01*
X141505802Y-111466873D01*
X141442543Y-111661562D01*
X141410521Y-111863745D01*
X139961521Y-111863745D01*
X139929498Y-111661563D01*
X139866241Y-111466878D01*
X139866239Y-111466875D01*
X139866239Y-111466873D01*
X139832524Y-111400704D01*
X139773308Y-111284487D01*
X139765577Y-111273846D01*
X139652992Y-111118883D01*
X139508234Y-110974125D01*
X139342634Y-110853812D01*
X139342633Y-110853811D01*
X139342631Y-110853810D01*
X139285674Y-110824788D01*
X139160244Y-110760878D01*
X138965555Y-110697619D01*
X138791016Y-110669975D01*
X138763373Y-110665597D01*
X138558669Y-110665597D01*
X138534350Y-110669448D01*
X138356486Y-110697619D01*
X138161797Y-110760878D01*
X137979407Y-110853812D01*
X137813807Y-110974125D01*
X137669049Y-111118883D01*
X137548736Y-111284483D01*
X137455802Y-111466873D01*
X137392543Y-111661562D01*
X137360521Y-111863745D01*
X135911521Y-111863745D01*
X135879498Y-111661563D01*
X135816241Y-111466878D01*
X135816239Y-111466875D01*
X135816239Y-111466873D01*
X135782524Y-111400704D01*
X135723308Y-111284487D01*
X135715577Y-111273846D01*
X135602992Y-111118883D01*
X135458234Y-110974125D01*
X135292634Y-110853812D01*
X135292633Y-110853811D01*
X135292631Y-110853810D01*
X135235674Y-110824788D01*
X135110244Y-110760878D01*
X134915555Y-110697619D01*
X134741016Y-110669975D01*
X134713373Y-110665597D01*
X134508669Y-110665597D01*
X134484350Y-110669448D01*
X134306486Y-110697619D01*
X134111797Y-110760878D01*
X133929407Y-110853812D01*
X133763807Y-110974125D01*
X133619049Y-111118883D01*
X133498736Y-111284483D01*
X133405802Y-111466873D01*
X133342543Y-111661562D01*
X133310521Y-111863745D01*
X131861521Y-111863745D01*
X131829498Y-111661563D01*
X131766241Y-111466878D01*
X131766239Y-111466875D01*
X131766239Y-111466873D01*
X131732524Y-111400704D01*
X131673308Y-111284487D01*
X131665577Y-111273846D01*
X131552992Y-111118883D01*
X131408234Y-110974125D01*
X131242634Y-110853812D01*
X131242633Y-110853811D01*
X131242631Y-110853810D01*
X131185674Y-110824788D01*
X131060244Y-110760878D01*
X130865555Y-110697619D01*
X130691016Y-110669975D01*
X130663373Y-110665597D01*
X130458669Y-110665597D01*
X130434350Y-110669448D01*
X130256486Y-110697619D01*
X130061797Y-110760878D01*
X129879407Y-110853812D01*
X129713807Y-110974125D01*
X129569049Y-111118883D01*
X129448736Y-111284483D01*
X129355802Y-111466873D01*
X129292543Y-111661562D01*
X129260521Y-111863745D01*
X115600500Y-111863745D01*
X115600500Y-103699778D01*
X122099500Y-103699778D01*
X122099500Y-103920221D01*
X122133985Y-104137952D01*
X122202103Y-104347603D01*
X122202104Y-104347606D01*
X122302187Y-104544025D01*
X122431752Y-104722358D01*
X122431756Y-104722363D01*
X122587636Y-104878243D01*
X122587641Y-104878247D01*
X122743192Y-104991260D01*
X122765978Y-105007815D01*
X122894375Y-105073237D01*
X122962393Y-105107895D01*
X122962396Y-105107896D01*
X123067221Y-105141955D01*
X123172049Y-105176015D01*
X123389778Y-105210500D01*
X123389779Y-105210500D01*
X123610221Y-105210500D01*
X123610222Y-105210500D01*
X123827951Y-105176015D01*
X124037606Y-105107895D01*
X124234022Y-105007815D01*
X124412365Y-104878242D01*
X124568242Y-104722365D01*
X124697815Y-104544022D01*
X124797895Y-104347606D01*
X124866015Y-104137951D01*
X124900500Y-103920222D01*
X124900500Y-103699778D01*
X129569500Y-103699778D01*
X129569500Y-103920221D01*
X129603985Y-104137952D01*
X129672103Y-104347603D01*
X129672104Y-104347606D01*
X129772187Y-104544025D01*
X129901752Y-104722358D01*
X129901756Y-104722363D01*
X130057636Y-104878243D01*
X130057641Y-104878247D01*
X130213192Y-104991260D01*
X130235978Y-105007815D01*
X130364375Y-105073237D01*
X130432393Y-105107895D01*
X130432396Y-105107896D01*
X130537221Y-105141955D01*
X130642049Y-105176015D01*
X130859778Y-105210500D01*
X130859779Y-105210500D01*
X131080221Y-105210500D01*
X131080222Y-105210500D01*
X131297951Y-105176015D01*
X131507606Y-105107895D01*
X131704022Y-105007815D01*
X131882365Y-104878242D01*
X132038242Y-104722365D01*
X132167815Y-104544022D01*
X132267895Y-104347606D01*
X132336015Y-104137951D01*
X132370500Y-103920222D01*
X132370500Y-103699778D01*
X137039500Y-103699778D01*
X137039500Y-103920221D01*
X137073985Y-104137952D01*
X137142103Y-104347603D01*
X137142104Y-104347606D01*
X137242187Y-104544025D01*
X137371752Y-104722358D01*
X137371756Y-104722363D01*
X137527636Y-104878243D01*
X137527641Y-104878247D01*
X137683192Y-104991260D01*
X137705978Y-105007815D01*
X137834375Y-105073237D01*
X137902393Y-105107895D01*
X137902396Y-105107896D01*
X138007221Y-105141955D01*
X138112049Y-105176015D01*
X138329778Y-105210500D01*
X138329779Y-105210500D01*
X138550221Y-105210500D01*
X138550222Y-105210500D01*
X138767951Y-105176015D01*
X138977606Y-105107895D01*
X139174022Y-105007815D01*
X139352365Y-104878242D01*
X139508242Y-104722365D01*
X139637815Y-104544022D01*
X139737895Y-104347606D01*
X139806015Y-104137951D01*
X139840500Y-103920222D01*
X139840500Y-103699778D01*
X144509500Y-103699778D01*
X144509500Y-103920221D01*
X144543985Y-104137952D01*
X144612103Y-104347603D01*
X144612104Y-104347606D01*
X144712187Y-104544025D01*
X144841752Y-104722358D01*
X144841756Y-104722363D01*
X144997636Y-104878243D01*
X144997641Y-104878247D01*
X145153192Y-104991260D01*
X145175978Y-105007815D01*
X145304375Y-105073237D01*
X145372393Y-105107895D01*
X145372396Y-105107896D01*
X145477221Y-105141955D01*
X145582049Y-105176015D01*
X145799778Y-105210500D01*
X145799779Y-105210500D01*
X146020221Y-105210500D01*
X146020222Y-105210500D01*
X146237951Y-105176015D01*
X146447606Y-105107895D01*
X146644022Y-105007815D01*
X146822365Y-104878242D01*
X146978242Y-104722365D01*
X147107815Y-104544022D01*
X147207895Y-104347606D01*
X147276015Y-104137951D01*
X147310500Y-103920222D01*
X147310500Y-103699778D01*
X151979500Y-103699778D01*
X151979500Y-103920221D01*
X152013985Y-104137952D01*
X152082103Y-104347603D01*
X152082104Y-104347606D01*
X152182187Y-104544025D01*
X152311752Y-104722358D01*
X152311756Y-104722363D01*
X152467636Y-104878243D01*
X152467641Y-104878247D01*
X152623192Y-104991260D01*
X152645978Y-105007815D01*
X152774375Y-105073237D01*
X152842393Y-105107895D01*
X152842396Y-105107896D01*
X152947221Y-105141955D01*
X153052049Y-105176015D01*
X153269778Y-105210500D01*
X153269779Y-105210500D01*
X153490221Y-105210500D01*
X153490222Y-105210500D01*
X153707951Y-105176015D01*
X153917606Y-105107895D01*
X154114022Y-105007815D01*
X154292365Y-104878242D01*
X154448242Y-104722365D01*
X154577815Y-104544022D01*
X154677895Y-104347606D01*
X154746015Y-104137951D01*
X154780500Y-103920222D01*
X154780500Y-103699778D01*
X154746015Y-103482049D01*
X154677895Y-103272394D01*
X154677895Y-103272393D01*
X154643237Y-103204375D01*
X154577815Y-103075978D01*
X154561260Y-103053192D01*
X154448247Y-102897641D01*
X154448243Y-102897636D01*
X154292363Y-102741756D01*
X154292358Y-102741752D01*
X154114025Y-102612187D01*
X154114024Y-102612186D01*
X154114022Y-102612185D01*
X154051096Y-102580122D01*
X153917606Y-102512104D01*
X153917603Y-102512103D01*
X153707952Y-102443985D01*
X153599086Y-102426742D01*
X153490222Y-102409500D01*
X153269778Y-102409500D01*
X153197201Y-102420995D01*
X153052047Y-102443985D01*
X152842396Y-102512103D01*
X152842393Y-102512104D01*
X152645974Y-102612187D01*
X152467641Y-102741752D01*
X152467636Y-102741756D01*
X152311756Y-102897636D01*
X152311752Y-102897641D01*
X152182187Y-103075974D01*
X152082104Y-103272393D01*
X152082103Y-103272396D01*
X152013985Y-103482047D01*
X151979500Y-103699778D01*
X147310500Y-103699778D01*
X147276015Y-103482049D01*
X147207895Y-103272394D01*
X147207895Y-103272393D01*
X147173237Y-103204375D01*
X147107815Y-103075978D01*
X147091260Y-103053192D01*
X146978247Y-102897641D01*
X146978243Y-102897636D01*
X146822363Y-102741756D01*
X146822358Y-102741752D01*
X146644025Y-102612187D01*
X146644024Y-102612186D01*
X146644022Y-102612185D01*
X146581096Y-102580122D01*
X146447606Y-102512104D01*
X146447603Y-102512103D01*
X146237952Y-102443985D01*
X146129086Y-102426742D01*
X146020222Y-102409500D01*
X145799778Y-102409500D01*
X145727201Y-102420995D01*
X145582047Y-102443985D01*
X145372396Y-102512103D01*
X145372393Y-102512104D01*
X145175974Y-102612187D01*
X144997641Y-102741752D01*
X144997636Y-102741756D01*
X144841756Y-102897636D01*
X144841752Y-102897641D01*
X144712187Y-103075974D01*
X144612104Y-103272393D01*
X144612103Y-103272396D01*
X144543985Y-103482047D01*
X144509500Y-103699778D01*
X139840500Y-103699778D01*
X139806015Y-103482049D01*
X139737895Y-103272394D01*
X139737895Y-103272393D01*
X139703237Y-103204375D01*
X139637815Y-103075978D01*
X139621260Y-103053192D01*
X139508247Y-102897641D01*
X139508243Y-102897636D01*
X139352363Y-102741756D01*
X139352358Y-102741752D01*
X139174025Y-102612187D01*
X139174024Y-102612186D01*
X139174022Y-102612185D01*
X139111096Y-102580122D01*
X138977606Y-102512104D01*
X138977603Y-102512103D01*
X138767952Y-102443985D01*
X138659086Y-102426742D01*
X138550222Y-102409500D01*
X138329778Y-102409500D01*
X138257201Y-102420995D01*
X138112047Y-102443985D01*
X137902396Y-102512103D01*
X137902393Y-102512104D01*
X137705974Y-102612187D01*
X137527641Y-102741752D01*
X137527636Y-102741756D01*
X137371756Y-102897636D01*
X137371752Y-102897641D01*
X137242187Y-103075974D01*
X137142104Y-103272393D01*
X137142103Y-103272396D01*
X137073985Y-103482047D01*
X137039500Y-103699778D01*
X132370500Y-103699778D01*
X132336015Y-103482049D01*
X132267895Y-103272394D01*
X132267895Y-103272393D01*
X132233237Y-103204375D01*
X132167815Y-103075978D01*
X132151260Y-103053192D01*
X132038247Y-102897641D01*
X132038243Y-102897636D01*
X131882363Y-102741756D01*
X131882358Y-102741752D01*
X131704025Y-102612187D01*
X131704024Y-102612186D01*
X131704022Y-102612185D01*
X131641096Y-102580122D01*
X131507606Y-102512104D01*
X131507603Y-102512103D01*
X131297952Y-102443985D01*
X131189086Y-102426742D01*
X131080222Y-102409500D01*
X130859778Y-102409500D01*
X130787201Y-102420995D01*
X130642047Y-102443985D01*
X130432396Y-102512103D01*
X130432393Y-102512104D01*
X130235974Y-102612187D01*
X130057641Y-102741752D01*
X130057636Y-102741756D01*
X129901756Y-102897636D01*
X129901752Y-102897641D01*
X129772187Y-103075974D01*
X129672104Y-103272393D01*
X129672103Y-103272396D01*
X129603985Y-103482047D01*
X129569500Y-103699778D01*
X124900500Y-103699778D01*
X124866015Y-103482049D01*
X124797895Y-103272394D01*
X124797895Y-103272393D01*
X124763237Y-103204375D01*
X124697815Y-103075978D01*
X124681260Y-103053192D01*
X124568247Y-102897641D01*
X124568243Y-102897636D01*
X124412363Y-102741756D01*
X124412358Y-102741752D01*
X124234025Y-102612187D01*
X124234024Y-102612186D01*
X124234022Y-102612185D01*
X124171096Y-102580122D01*
X124037606Y-102512104D01*
X124037603Y-102512103D01*
X123827952Y-102443985D01*
X123719086Y-102426742D01*
X123610222Y-102409500D01*
X123389778Y-102409500D01*
X123317201Y-102420995D01*
X123172047Y-102443985D01*
X122962396Y-102512103D01*
X122962393Y-102512104D01*
X122765974Y-102612187D01*
X122587641Y-102741752D01*
X122587636Y-102741756D01*
X122431756Y-102897636D01*
X122431752Y-102897641D01*
X122302187Y-103075974D01*
X122202104Y-103272393D01*
X122202103Y-103272396D01*
X122133985Y-103482047D01*
X122099500Y-103699778D01*
X115600500Y-103699778D01*
X115600500Y-97207648D01*
X128349500Y-97207648D01*
X128349500Y-97412351D01*
X128381522Y-97614534D01*
X128444781Y-97809223D01*
X128537715Y-97991613D01*
X128658028Y-98157213D01*
X128802786Y-98301971D01*
X128957749Y-98414556D01*
X128968390Y-98422287D01*
X129084607Y-98481503D01*
X129150776Y-98515218D01*
X129150778Y-98515218D01*
X129150781Y-98515220D01*
X129255137Y-98549127D01*
X129345465Y-98578477D01*
X129446557Y-98594488D01*
X129547648Y-98610500D01*
X129547649Y-98610500D01*
X129752351Y-98610500D01*
X129752352Y-98610500D01*
X129954534Y-98578477D01*
X130149219Y-98515220D01*
X130331610Y-98422287D01*
X130424590Y-98354732D01*
X130497213Y-98301971D01*
X130497215Y-98301968D01*
X130497219Y-98301966D01*
X130641966Y-98157219D01*
X130641968Y-98157215D01*
X130641971Y-98157213D01*
X130694732Y-98084590D01*
X130762287Y-97991610D01*
X130855220Y-97809219D01*
X130918477Y-97614534D01*
X130950500Y-97412352D01*
X130950500Y-97207648D01*
X132399500Y-97207648D01*
X132399500Y-97412351D01*
X132431522Y-97614534D01*
X132494781Y-97809223D01*
X132587715Y-97991613D01*
X132708028Y-98157213D01*
X132852786Y-98301971D01*
X133007749Y-98414556D01*
X133018390Y-98422287D01*
X133134607Y-98481503D01*
X133200776Y-98515218D01*
X133200778Y-98515218D01*
X133200781Y-98515220D01*
X133305137Y-98549127D01*
X133395465Y-98578477D01*
X133496557Y-98594488D01*
X133597648Y-98610500D01*
X133597649Y-98610500D01*
X133802351Y-98610500D01*
X133802352Y-98610500D01*
X134004534Y-98578477D01*
X134199219Y-98515220D01*
X134381610Y-98422287D01*
X134474590Y-98354732D01*
X134547213Y-98301971D01*
X134547215Y-98301968D01*
X134547219Y-98301966D01*
X134691966Y-98157219D01*
X134691968Y-98157215D01*
X134691971Y-98157213D01*
X134744732Y-98084590D01*
X134812287Y-97991610D01*
X134905220Y-97809219D01*
X134968477Y-97614534D01*
X135000500Y-97412352D01*
X135000500Y-97207648D01*
X136449500Y-97207648D01*
X136449500Y-97412351D01*
X136481522Y-97614534D01*
X136544781Y-97809223D01*
X136637715Y-97991613D01*
X136758028Y-98157213D01*
X136902786Y-98301971D01*
X137057749Y-98414556D01*
X137068390Y-98422287D01*
X137184607Y-98481503D01*
X137250776Y-98515218D01*
X137250778Y-98515218D01*
X137250781Y-98515220D01*
X137355137Y-98549127D01*
X137445465Y-98578477D01*
X137546557Y-98594488D01*
X137647648Y-98610500D01*
X137647649Y-98610500D01*
X137852351Y-98610500D01*
X137852352Y-98610500D01*
X138054534Y-98578477D01*
X138249219Y-98515220D01*
X138431610Y-98422287D01*
X138524590Y-98354732D01*
X138597213Y-98301971D01*
X138597215Y-98301968D01*
X138597219Y-98301966D01*
X138741966Y-98157219D01*
X138741968Y-98157215D01*
X138741971Y-98157213D01*
X138794732Y-98084590D01*
X138862287Y-97991610D01*
X138955220Y-97809219D01*
X139018477Y-97614534D01*
X139050500Y-97412352D01*
X139050500Y-97207648D01*
X140499500Y-97207648D01*
X140499500Y-97412351D01*
X140531522Y-97614534D01*
X140594781Y-97809223D01*
X140687715Y-97991613D01*
X140808028Y-98157213D01*
X140952786Y-98301971D01*
X141107749Y-98414556D01*
X141118390Y-98422287D01*
X141234607Y-98481503D01*
X141300776Y-98515218D01*
X141300778Y-98515218D01*
X141300781Y-98515220D01*
X141405137Y-98549127D01*
X141495465Y-98578477D01*
X141596557Y-98594488D01*
X141697648Y-98610500D01*
X141697649Y-98610500D01*
X141902351Y-98610500D01*
X141902352Y-98610500D01*
X142104534Y-98578477D01*
X142299219Y-98515220D01*
X142481610Y-98422287D01*
X142574590Y-98354732D01*
X142647213Y-98301971D01*
X142647215Y-98301968D01*
X142647219Y-98301966D01*
X142791966Y-98157219D01*
X142791968Y-98157215D01*
X142791971Y-98157213D01*
X142844732Y-98084590D01*
X142912287Y-97991610D01*
X143005220Y-97809219D01*
X143068477Y-97614534D01*
X143100500Y-97412352D01*
X143100500Y-97207648D01*
X144549500Y-97207648D01*
X144549500Y-97412351D01*
X144581522Y-97614534D01*
X144644781Y-97809223D01*
X144737715Y-97991613D01*
X144858028Y-98157213D01*
X145002786Y-98301971D01*
X145157749Y-98414556D01*
X145168390Y-98422287D01*
X145284607Y-98481503D01*
X145350776Y-98515218D01*
X145350778Y-98515218D01*
X145350781Y-98515220D01*
X145455137Y-98549127D01*
X145545465Y-98578477D01*
X145646557Y-98594488D01*
X145747648Y-98610500D01*
X145747649Y-98610500D01*
X145952351Y-98610500D01*
X145952352Y-98610500D01*
X146154534Y-98578477D01*
X146349219Y-98515220D01*
X146531610Y-98422287D01*
X146624590Y-98354732D01*
X146697213Y-98301971D01*
X146697215Y-98301968D01*
X146697219Y-98301966D01*
X146841966Y-98157219D01*
X146841968Y-98157215D01*
X146841971Y-98157213D01*
X146894732Y-98084590D01*
X146962287Y-97991610D01*
X147055220Y-97809219D01*
X147118477Y-97614534D01*
X147150500Y-97412352D01*
X147150500Y-97207648D01*
X147118477Y-97005466D01*
X147055220Y-96810781D01*
X147055218Y-96810778D01*
X147055218Y-96810776D01*
X147021503Y-96744607D01*
X146962287Y-96628390D01*
X146954556Y-96617749D01*
X146841971Y-96462786D01*
X146697213Y-96318028D01*
X146531613Y-96197715D01*
X146531612Y-96197714D01*
X146531610Y-96197713D01*
X146474653Y-96168691D01*
X146349223Y-96104781D01*
X146154534Y-96041522D01*
X145979995Y-96013878D01*
X145952352Y-96009500D01*
X145747648Y-96009500D01*
X145723329Y-96013351D01*
X145545465Y-96041522D01*
X145350776Y-96104781D01*
X145168386Y-96197715D01*
X145002786Y-96318028D01*
X144858028Y-96462786D01*
X144737715Y-96628386D01*
X144644781Y-96810776D01*
X144581522Y-97005465D01*
X144549500Y-97207648D01*
X143100500Y-97207648D01*
X143068477Y-97005466D01*
X143005220Y-96810781D01*
X143005218Y-96810778D01*
X143005218Y-96810776D01*
X142971503Y-96744607D01*
X142912287Y-96628390D01*
X142904556Y-96617749D01*
X142791971Y-96462786D01*
X142647213Y-96318028D01*
X142481613Y-96197715D01*
X142481612Y-96197714D01*
X142481610Y-96197713D01*
X142424653Y-96168691D01*
X142299223Y-96104781D01*
X142104534Y-96041522D01*
X141929995Y-96013878D01*
X141902352Y-96009500D01*
X141697648Y-96009500D01*
X141673329Y-96013351D01*
X141495465Y-96041522D01*
X141300776Y-96104781D01*
X141118386Y-96197715D01*
X140952786Y-96318028D01*
X140808028Y-96462786D01*
X140687715Y-96628386D01*
X140594781Y-96810776D01*
X140531522Y-97005465D01*
X140499500Y-97207648D01*
X139050500Y-97207648D01*
X139018477Y-97005466D01*
X138955220Y-96810781D01*
X138955218Y-96810778D01*
X138955218Y-96810776D01*
X138921503Y-96744607D01*
X138862287Y-96628390D01*
X138854556Y-96617749D01*
X138741971Y-96462786D01*
X138597213Y-96318028D01*
X138431613Y-96197715D01*
X138431612Y-96197714D01*
X138431610Y-96197713D01*
X138374653Y-96168691D01*
X138249223Y-96104781D01*
X138054534Y-96041522D01*
X137879995Y-96013878D01*
X137852352Y-96009500D01*
X137647648Y-96009500D01*
X137623329Y-96013351D01*
X137445465Y-96041522D01*
X137250776Y-96104781D01*
X137068386Y-96197715D01*
X136902786Y-96318028D01*
X136758028Y-96462786D01*
X136637715Y-96628386D01*
X136544781Y-96810776D01*
X136481522Y-97005465D01*
X136449500Y-97207648D01*
X135000500Y-97207648D01*
X134968477Y-97005466D01*
X134905220Y-96810781D01*
X134905218Y-96810778D01*
X134905218Y-96810776D01*
X134871503Y-96744607D01*
X134812287Y-96628390D01*
X134804556Y-96617749D01*
X134691971Y-96462786D01*
X134547213Y-96318028D01*
X134381613Y-96197715D01*
X134381612Y-96197714D01*
X134381610Y-96197713D01*
X134324653Y-96168691D01*
X134199223Y-96104781D01*
X134004534Y-96041522D01*
X133829995Y-96013878D01*
X133802352Y-96009500D01*
X133597648Y-96009500D01*
X133573329Y-96013351D01*
X133395465Y-96041522D01*
X133200776Y-96104781D01*
X133018386Y-96197715D01*
X132852786Y-96318028D01*
X132708028Y-96462786D01*
X132587715Y-96628386D01*
X132494781Y-96810776D01*
X132431522Y-97005465D01*
X132399500Y-97207648D01*
X130950500Y-97207648D01*
X130918477Y-97005466D01*
X130855220Y-96810781D01*
X130855218Y-96810778D01*
X130855218Y-96810776D01*
X130821503Y-96744607D01*
X130762287Y-96628390D01*
X130754556Y-96617749D01*
X130641971Y-96462786D01*
X130497213Y-96318028D01*
X130331613Y-96197715D01*
X130331612Y-96197714D01*
X130331610Y-96197713D01*
X130274653Y-96168691D01*
X130149223Y-96104781D01*
X129954534Y-96041522D01*
X129779995Y-96013878D01*
X129752352Y-96009500D01*
X129547648Y-96009500D01*
X129523329Y-96013351D01*
X129345465Y-96041522D01*
X129150776Y-96104781D01*
X128968386Y-96197715D01*
X128802786Y-96318028D01*
X128658028Y-96462786D01*
X128537715Y-96628386D01*
X128444781Y-96810776D01*
X128381522Y-97005465D01*
X128349500Y-97207648D01*
X115600500Y-97207648D01*
X115600500Y-89224500D01*
X115620185Y-89157461D01*
X115672989Y-89111706D01*
X115724500Y-89100500D01*
X128303443Y-89100500D01*
X128370482Y-89120185D01*
X128416237Y-89172989D01*
X128426181Y-89242147D01*
X128421375Y-89262812D01*
X128409410Y-89299638D01*
X128381522Y-89385465D01*
X128349500Y-89587648D01*
X128349500Y-89792351D01*
X128381522Y-89994534D01*
X128444781Y-90189223D01*
X128537715Y-90371613D01*
X128658028Y-90537213D01*
X128802786Y-90681971D01*
X128957749Y-90794556D01*
X128968390Y-90802287D01*
X129084607Y-90861503D01*
X129150776Y-90895218D01*
X129150778Y-90895218D01*
X129150781Y-90895220D01*
X129255137Y-90929127D01*
X129345465Y-90958477D01*
X129446557Y-90974488D01*
X129547648Y-90990500D01*
X129547649Y-90990500D01*
X129752351Y-90990500D01*
X129752352Y-90990500D01*
X129954534Y-90958477D01*
X130149219Y-90895220D01*
X130331610Y-90802287D01*
X130424590Y-90734732D01*
X130497213Y-90681971D01*
X130497215Y-90681968D01*
X130497219Y-90681966D01*
X130641966Y-90537219D01*
X130641968Y-90537215D01*
X130641971Y-90537213D01*
X130694732Y-90464590D01*
X130762287Y-90371610D01*
X130855220Y-90189219D01*
X130918477Y-89994534D01*
X130950500Y-89792352D01*
X130950500Y-89587648D01*
X130918477Y-89385466D01*
X130878625Y-89262817D01*
X130876631Y-89192978D01*
X130912711Y-89133145D01*
X130975411Y-89102316D01*
X130996557Y-89100500D01*
X132353443Y-89100500D01*
X132420482Y-89120185D01*
X132466237Y-89172989D01*
X132476181Y-89242147D01*
X132471375Y-89262812D01*
X132459410Y-89299638D01*
X132431522Y-89385465D01*
X132399500Y-89587648D01*
X132399500Y-89792351D01*
X132431522Y-89994534D01*
X132494781Y-90189223D01*
X132587715Y-90371613D01*
X132708028Y-90537213D01*
X132852786Y-90681971D01*
X133007749Y-90794556D01*
X133018390Y-90802287D01*
X133134607Y-90861503D01*
X133200776Y-90895218D01*
X133200778Y-90895218D01*
X133200781Y-90895220D01*
X133305137Y-90929127D01*
X133395465Y-90958477D01*
X133496557Y-90974488D01*
X133597648Y-90990500D01*
X133597649Y-90990500D01*
X133802351Y-90990500D01*
X133802352Y-90990500D01*
X134004534Y-90958477D01*
X134199219Y-90895220D01*
X134381610Y-90802287D01*
X134474590Y-90734732D01*
X134547213Y-90681971D01*
X134547215Y-90681968D01*
X134547219Y-90681966D01*
X134691966Y-90537219D01*
X134691968Y-90537215D01*
X134691971Y-90537213D01*
X134744732Y-90464590D01*
X134812287Y-90371610D01*
X134905220Y-90189219D01*
X134968477Y-89994534D01*
X135000500Y-89792352D01*
X135000500Y-89587648D01*
X136449500Y-89587648D01*
X136449500Y-89792351D01*
X136481522Y-89994534D01*
X136544781Y-90189223D01*
X136637715Y-90371613D01*
X136758028Y-90537213D01*
X136902786Y-90681971D01*
X137057749Y-90794556D01*
X137068390Y-90802287D01*
X137184607Y-90861503D01*
X137250776Y-90895218D01*
X137250778Y-90895218D01*
X137250781Y-90895220D01*
X137355137Y-90929127D01*
X137445465Y-90958477D01*
X137546557Y-90974488D01*
X137647648Y-90990500D01*
X137647649Y-90990500D01*
X137852351Y-90990500D01*
X137852352Y-90990500D01*
X138054534Y-90958477D01*
X138249219Y-90895220D01*
X138431610Y-90802287D01*
X138524590Y-90734732D01*
X138597213Y-90681971D01*
X138597215Y-90681968D01*
X138597219Y-90681966D01*
X138741966Y-90537219D01*
X138741968Y-90537215D01*
X138741971Y-90537213D01*
X138794732Y-90464590D01*
X138862287Y-90371610D01*
X138955220Y-90189219D01*
X139018477Y-89994534D01*
X139050500Y-89792352D01*
X139050500Y-89587648D01*
X140499500Y-89587648D01*
X140499500Y-89792351D01*
X140531522Y-89994534D01*
X140594781Y-90189223D01*
X140687715Y-90371613D01*
X140808028Y-90537213D01*
X140952786Y-90681971D01*
X141107749Y-90794556D01*
X141118390Y-90802287D01*
X141234607Y-90861503D01*
X141300776Y-90895218D01*
X141300778Y-90895218D01*
X141300781Y-90895220D01*
X141405137Y-90929127D01*
X141495465Y-90958477D01*
X141596557Y-90974488D01*
X141697648Y-90990500D01*
X141697649Y-90990500D01*
X141902351Y-90990500D01*
X141902352Y-90990500D01*
X142104534Y-90958477D01*
X142299219Y-90895220D01*
X142481610Y-90802287D01*
X142574590Y-90734732D01*
X142647213Y-90681971D01*
X142647215Y-90681968D01*
X142647219Y-90681966D01*
X142791966Y-90537219D01*
X142791968Y-90537215D01*
X142791971Y-90537213D01*
X142844732Y-90464590D01*
X142912287Y-90371610D01*
X143005220Y-90189219D01*
X143068477Y-89994534D01*
X143100500Y-89792352D01*
X143100500Y-89587648D01*
X144549500Y-89587648D01*
X144549500Y-89792351D01*
X144581522Y-89994534D01*
X144644781Y-90189223D01*
X144737715Y-90371613D01*
X144858028Y-90537213D01*
X145002786Y-90681971D01*
X145157749Y-90794556D01*
X145168390Y-90802287D01*
X145284607Y-90861503D01*
X145350776Y-90895218D01*
X145350778Y-90895218D01*
X145350781Y-90895220D01*
X145455137Y-90929127D01*
X145545465Y-90958477D01*
X145646557Y-90974488D01*
X145747648Y-90990500D01*
X145747649Y-90990500D01*
X145952351Y-90990500D01*
X145952352Y-90990500D01*
X146154534Y-90958477D01*
X146349219Y-90895220D01*
X146531610Y-90802287D01*
X146624590Y-90734732D01*
X146697213Y-90681971D01*
X146697215Y-90681968D01*
X146697219Y-90681966D01*
X146841966Y-90537219D01*
X146841968Y-90537215D01*
X146841971Y-90537213D01*
X146894732Y-90464590D01*
X146962287Y-90371610D01*
X147055220Y-90189219D01*
X147118477Y-89994534D01*
X147150500Y-89792352D01*
X147150500Y-89587648D01*
X147118477Y-89385466D01*
X147055220Y-89190781D01*
X147055218Y-89190778D01*
X147055218Y-89190776D01*
X147009219Y-89100500D01*
X146962287Y-89008390D01*
X146934439Y-88970060D01*
X146841971Y-88842786D01*
X146697213Y-88698028D01*
X146531613Y-88577715D01*
X146531612Y-88577714D01*
X146531610Y-88577713D01*
X146474653Y-88548691D01*
X146349223Y-88484781D01*
X146154534Y-88421522D01*
X145979995Y-88393878D01*
X145952352Y-88389500D01*
X145747648Y-88389500D01*
X145723329Y-88393351D01*
X145545465Y-88421522D01*
X145350776Y-88484781D01*
X145168386Y-88577715D01*
X145002786Y-88698028D01*
X144858028Y-88842786D01*
X144737715Y-89008386D01*
X144644781Y-89190776D01*
X144581522Y-89385465D01*
X144549500Y-89587648D01*
X143100500Y-89587648D01*
X143068477Y-89385466D01*
X143005220Y-89190781D01*
X143005218Y-89190778D01*
X143005218Y-89190776D01*
X142959219Y-89100500D01*
X142912287Y-89008390D01*
X142884439Y-88970060D01*
X142791971Y-88842786D01*
X142647213Y-88698028D01*
X142481613Y-88577715D01*
X142481612Y-88577714D01*
X142481610Y-88577713D01*
X142424653Y-88548691D01*
X142299223Y-88484781D01*
X142104534Y-88421522D01*
X141929995Y-88393878D01*
X141902352Y-88389500D01*
X141697648Y-88389500D01*
X141673329Y-88393351D01*
X141495465Y-88421522D01*
X141300776Y-88484781D01*
X141118386Y-88577715D01*
X140952786Y-88698028D01*
X140808028Y-88842786D01*
X140687715Y-89008386D01*
X140594781Y-89190776D01*
X140531522Y-89385465D01*
X140499500Y-89587648D01*
X139050500Y-89587648D01*
X139018477Y-89385466D01*
X138955220Y-89190781D01*
X138955218Y-89190778D01*
X138955218Y-89190776D01*
X138909219Y-89100500D01*
X138862287Y-89008390D01*
X138834439Y-88970060D01*
X138741971Y-88842786D01*
X138597213Y-88698028D01*
X138431613Y-88577715D01*
X138431612Y-88577714D01*
X138431610Y-88577713D01*
X138374653Y-88548691D01*
X138249223Y-88484781D01*
X138054534Y-88421522D01*
X137879995Y-88393878D01*
X137852352Y-88389500D01*
X137647648Y-88389500D01*
X137623329Y-88393351D01*
X137445465Y-88421522D01*
X137250776Y-88484781D01*
X137068386Y-88577715D01*
X136902786Y-88698028D01*
X136758028Y-88842786D01*
X136637715Y-89008386D01*
X136544781Y-89190776D01*
X136481522Y-89385465D01*
X136449500Y-89587648D01*
X135000500Y-89587648D01*
X134968477Y-89385466D01*
X134905220Y-89190781D01*
X134905218Y-89190778D01*
X134905218Y-89190776D01*
X134859219Y-89100500D01*
X134822321Y-89028084D01*
X134817760Y-89003798D01*
X134809123Y-88980644D01*
X134811424Y-88970060D01*
X134809426Y-88959417D01*
X134818718Y-88936520D01*
X134823971Y-88912371D01*
X134833909Y-88899094D01*
X134835702Y-88894677D01*
X134845121Y-88884115D01*
X134845121Y-88884114D01*
X134860520Y-88868716D01*
X134860520Y-88868713D01*
X134864049Y-88865185D01*
X138435158Y-85294075D01*
X138496479Y-85260592D01*
X138561151Y-85263825D01*
X138575466Y-85268477D01*
X138777648Y-85300500D01*
X138777649Y-85300500D01*
X138982351Y-85300500D01*
X138982352Y-85300500D01*
X139184534Y-85268477D01*
X139379219Y-85205220D01*
X139561610Y-85112287D01*
X139690482Y-85018657D01*
X139727213Y-84991971D01*
X139727215Y-84991968D01*
X139727219Y-84991966D01*
X139871966Y-84847219D01*
X139871968Y-84847215D01*
X139871971Y-84847213D01*
X139992284Y-84681614D01*
X139992285Y-84681613D01*
X139992287Y-84681610D01*
X140039516Y-84588917D01*
X140087489Y-84538123D01*
X140155310Y-84521328D01*
X140221445Y-84543865D01*
X140260483Y-84588917D01*
X140266140Y-84600018D01*
X140307715Y-84681614D01*
X140428028Y-84847213D01*
X140572786Y-84991971D01*
X140727749Y-85104556D01*
X140738390Y-85112287D01*
X140854607Y-85171503D01*
X140920776Y-85205218D01*
X140920778Y-85205218D01*
X140920781Y-85205220D01*
X141011856Y-85234812D01*
X141115465Y-85268477D01*
X141216557Y-85284488D01*
X141317648Y-85300500D01*
X141317649Y-85300500D01*
X141522351Y-85300500D01*
X141522352Y-85300500D01*
X141724534Y-85268477D01*
X141738842Y-85263827D01*
X141808682Y-85261831D01*
X141864842Y-85294077D01*
X143435139Y-86864374D01*
X143435149Y-86864385D01*
X143439479Y-86868715D01*
X143439480Y-86868716D01*
X143551284Y-86980520D01*
X143638095Y-87030639D01*
X143638097Y-87030641D01*
X143676151Y-87052611D01*
X143688215Y-87059577D01*
X143840943Y-87100501D01*
X143840946Y-87100501D01*
X144006653Y-87100501D01*
X144006669Y-87100500D01*
X159775500Y-87100500D01*
X159842539Y-87120185D01*
X159888294Y-87172989D01*
X159899500Y-87224500D01*
X159899500Y-116199902D01*
X159879815Y-116266941D01*
X159863181Y-116287583D01*
X158087681Y-118063083D01*
X158026358Y-118096568D01*
X157956666Y-118091584D01*
X157925663Y-118074649D01*
X157918578Y-118069342D01*
X157854813Y-118005577D01*
X157768001Y-117955457D01*
X157717882Y-117926520D01*
X157565154Y-117885596D01*
X157407040Y-117885596D01*
X157399444Y-117885596D01*
X157399428Y-117885597D01*
X139847690Y-117885597D01*
X139847674Y-117885596D01*
X139840078Y-117885596D01*
X139681964Y-117885596D01*
X139574608Y-117914362D01*
X139529231Y-117926521D01*
X139529230Y-117926522D01*
X139479117Y-117955456D01*
X139479116Y-117955457D01*
X139435710Y-117980517D01*
X139392306Y-118005576D01*
X139392303Y-118005578D01*
X139280499Y-118117383D01*
X139105863Y-118292018D01*
X139044540Y-118325503D01*
X138979869Y-118322270D01*
X138965555Y-118317619D01*
X138791016Y-118289975D01*
X138763373Y-118285597D01*
X138558669Y-118285597D01*
X138534350Y-118289448D01*
X138356486Y-118317619D01*
X138161797Y-118380878D01*
X137979407Y-118473812D01*
X137813807Y-118594125D01*
X137669049Y-118738883D01*
X137548736Y-118904483D01*
X137455802Y-119086873D01*
X137392543Y-119281562D01*
X137360521Y-119483745D01*
X137360521Y-119688448D01*
X137392543Y-119890631D01*
X137455802Y-120085320D01*
X137548736Y-120267710D01*
X137669049Y-120433310D01*
X137813807Y-120578068D01*
X137968770Y-120690653D01*
X137979411Y-120698384D01*
X138095628Y-120757600D01*
X138161797Y-120791315D01*
X138161799Y-120791315D01*
X138161802Y-120791317D01*
X138266158Y-120825224D01*
X138356486Y-120854574D01*
X138457578Y-120870585D01*
X138558669Y-120886597D01*
X138558670Y-120886597D01*
X138763372Y-120886597D01*
X138763373Y-120886597D01*
X138965555Y-120854574D01*
X139160240Y-120791317D01*
X139342631Y-120698384D01*
X139435611Y-120630829D01*
X139508234Y-120578068D01*
X139508236Y-120578065D01*
X139508240Y-120578063D01*
X139652987Y-120433316D01*
X139652989Y-120433312D01*
X139652992Y-120433310D01*
X139705753Y-120360687D01*
X139773308Y-120267707D01*
X139866241Y-120085316D01*
X139929498Y-119890631D01*
X139961521Y-119688449D01*
X139961521Y-119483745D01*
X139929498Y-119281563D01*
X139924848Y-119267254D01*
X139924413Y-119252040D01*
X139919095Y-119237779D01*
X139923435Y-119217826D01*
X139922852Y-119197415D01*
X139930941Y-119183326D01*
X139933948Y-119169506D01*
X139955100Y-119141252D01*
X139973440Y-119122913D01*
X140034764Y-119089430D01*
X140061119Y-119086597D01*
X141335220Y-119086597D01*
X141402259Y-119106282D01*
X141448014Y-119159086D01*
X141457958Y-119228244D01*
X141453151Y-119248914D01*
X141442545Y-119281554D01*
X141442544Y-119281561D01*
X141410521Y-119483745D01*
X141410521Y-119688448D01*
X141442543Y-119890631D01*
X141505802Y-120085320D01*
X141598736Y-120267710D01*
X141719049Y-120433310D01*
X141863807Y-120578068D01*
X142018770Y-120690653D01*
X142029411Y-120698384D01*
X142145628Y-120757600D01*
X142211797Y-120791315D01*
X142211799Y-120791315D01*
X142211802Y-120791317D01*
X142316158Y-120825224D01*
X142406486Y-120854574D01*
X142507578Y-120870585D01*
X142608669Y-120886597D01*
X142608670Y-120886597D01*
X142813372Y-120886597D01*
X142813373Y-120886597D01*
X143015555Y-120854574D01*
X143029863Y-120849924D01*
X143045075Y-120849489D01*
X143059336Y-120844171D01*
X143079289Y-120848511D01*
X143099703Y-120847928D01*
X143113790Y-120856017D01*
X143127609Y-120859023D01*
X143155863Y-120880174D01*
X143326160Y-121050471D01*
X143326170Y-121050482D01*
X143330500Y-121054812D01*
X143330501Y-121054813D01*
X143442305Y-121166617D01*
X143529116Y-121216736D01*
X143529118Y-121216738D01*
X143567172Y-121238708D01*
X143579236Y-121245674D01*
X143731964Y-121286598D01*
X143731967Y-121286598D01*
X143897674Y-121286598D01*
X143897690Y-121286597D01*
X161227234Y-121286597D01*
X161227250Y-121286598D01*
X161234846Y-121286598D01*
X161392957Y-121286598D01*
X161392960Y-121286598D01*
X161545688Y-121245674D01*
X161595807Y-121216736D01*
X161682619Y-121166617D01*
X161794423Y-121054813D01*
X161794423Y-121054811D01*
X161804631Y-121044604D01*
X161804633Y-121044601D01*
X162858506Y-119990728D01*
X162858511Y-119990724D01*
X162868714Y-119980520D01*
X162868716Y-119980520D01*
X162980520Y-119868716D01*
X163059577Y-119731784D01*
X163100500Y-119579057D01*
X163100500Y-76589060D01*
X163100501Y-76589047D01*
X163100501Y-76420944D01*
X163059576Y-76268214D01*
X163059573Y-76268209D01*
X162980523Y-76131288D01*
X162980520Y-76131284D01*
X162860520Y-76011285D01*
X162860520Y-76011284D01*
X162748717Y-75899481D01*
X162748716Y-75899480D01*
X162661904Y-75849360D01*
X162661904Y-75849359D01*
X162661900Y-75849358D01*
X162611785Y-75820423D01*
X162459057Y-75779499D01*
X162300943Y-75779499D01*
X162293347Y-75779499D01*
X162293331Y-75779500D01*
X147729602Y-75779500D01*
X147662563Y-75759815D01*
X147619117Y-75711795D01*
X147612284Y-75698385D01*
X147491971Y-75532786D01*
X147347213Y-75388028D01*
X147181613Y-75267715D01*
X147181612Y-75267714D01*
X147181610Y-75267713D01*
X147124653Y-75238691D01*
X146999223Y-75174781D01*
X146804534Y-75111522D01*
X146629995Y-75083878D01*
X146602352Y-75079500D01*
X146397648Y-75079500D01*
X146373329Y-75083351D01*
X146195465Y-75111522D01*
X146000776Y-75174781D01*
X145818386Y-75267715D01*
X145652786Y-75388028D01*
X145508028Y-75532786D01*
X145387715Y-75698386D01*
X145340485Y-75791080D01*
X145292510Y-75841876D01*
X145224689Y-75858671D01*
X145158554Y-75836134D01*
X145119515Y-75791080D01*
X145113614Y-75779499D01*
X145072287Y-75698390D01*
X145064556Y-75687749D01*
X144951971Y-75532786D01*
X144807213Y-75388028D01*
X144641613Y-75267715D01*
X144641612Y-75267714D01*
X144641610Y-75267713D01*
X144584653Y-75238691D01*
X144459223Y-75174781D01*
X144264534Y-75111522D01*
X144089995Y-75083878D01*
X144062352Y-75079500D01*
X143857648Y-75079500D01*
X143833329Y-75083351D01*
X143655465Y-75111522D01*
X143460776Y-75174781D01*
X143278386Y-75267715D01*
X143112786Y-75388028D01*
X142968028Y-75532786D01*
X142847715Y-75698386D01*
X142800485Y-75791080D01*
X142752510Y-75841876D01*
X142684689Y-75858671D01*
X142618554Y-75836134D01*
X142579515Y-75791080D01*
X142573614Y-75779499D01*
X142532287Y-75698390D01*
X142524556Y-75687749D01*
X142411971Y-75532786D01*
X142267213Y-75388028D01*
X142101613Y-75267715D01*
X142101612Y-75267714D01*
X142101610Y-75267713D01*
X142044653Y-75238691D01*
X141919223Y-75174781D01*
X141724534Y-75111522D01*
X141549995Y-75083878D01*
X141522352Y-75079500D01*
X141317648Y-75079500D01*
X141293329Y-75083351D01*
X141115465Y-75111522D01*
X140920776Y-75174781D01*
X140738386Y-75267715D01*
X140572786Y-75388028D01*
X140428028Y-75532786D01*
X140307715Y-75698386D01*
X140260485Y-75791080D01*
X140212510Y-75841876D01*
X140144689Y-75858671D01*
X140078554Y-75836134D01*
X140039515Y-75791080D01*
X140033614Y-75779499D01*
X139992287Y-75698390D01*
X139984556Y-75687749D01*
X139871971Y-75532786D01*
X139727213Y-75388028D01*
X139561613Y-75267715D01*
X139561612Y-75267714D01*
X139561610Y-75267713D01*
X139504653Y-75238691D01*
X139379223Y-75174781D01*
X139184534Y-75111522D01*
X139009995Y-75083878D01*
X138982352Y-75079500D01*
X138777648Y-75079500D01*
X138753329Y-75083351D01*
X138575465Y-75111522D01*
X138380776Y-75174781D01*
X138198386Y-75267715D01*
X138032786Y-75388028D01*
X137888028Y-75532786D01*
X137767715Y-75698386D01*
X137674781Y-75880776D01*
X137611522Y-76075465D01*
X137579500Y-76277648D01*
X137579500Y-76482351D01*
X137611522Y-76684534D01*
X137674781Y-76879223D01*
X137726385Y-76980500D01*
X137763320Y-77052989D01*
X137767715Y-77061613D01*
X137888028Y-77227213D01*
X138032786Y-77371971D01*
X138187749Y-77484556D01*
X138198390Y-77492287D01*
X138314607Y-77551503D01*
X138380776Y-77585218D01*
X138380778Y-77585218D01*
X138380781Y-77585220D01*
X138485137Y-77619127D01*
X138575465Y-77648477D01*
X138676557Y-77664488D01*
X138777648Y-77680500D01*
X138777649Y-77680500D01*
X138982351Y-77680500D01*
X138982352Y-77680500D01*
X139184534Y-77648477D01*
X139379219Y-77585220D01*
X139561610Y-77492287D01*
X139654590Y-77424732D01*
X139727213Y-77371971D01*
X139727215Y-77371968D01*
X139727219Y-77371966D01*
X139871966Y-77227219D01*
X139871968Y-77227215D01*
X139871971Y-77227213D01*
X139992284Y-77061614D01*
X139992285Y-77061613D01*
X139992287Y-77061610D01*
X140039516Y-76968917D01*
X140087489Y-76918123D01*
X140155310Y-76901328D01*
X140221445Y-76923865D01*
X140260483Y-76968917D01*
X140300883Y-77048205D01*
X140307715Y-77061614D01*
X140428028Y-77227213D01*
X140572786Y-77371971D01*
X140727749Y-77484556D01*
X140738390Y-77492287D01*
X140854607Y-77551503D01*
X140920776Y-77585218D01*
X140920778Y-77585218D01*
X140920781Y-77585220D01*
X141025137Y-77619127D01*
X141115465Y-77648477D01*
X141216557Y-77664488D01*
X141317648Y-77680500D01*
X141317649Y-77680500D01*
X141522351Y-77680500D01*
X141522352Y-77680500D01*
X141724534Y-77648477D01*
X141919219Y-77585220D01*
X142101610Y-77492287D01*
X142194590Y-77424732D01*
X142267213Y-77371971D01*
X142267215Y-77371968D01*
X142267219Y-77371966D01*
X142411966Y-77227219D01*
X142411968Y-77227215D01*
X142411971Y-77227213D01*
X142532284Y-77061614D01*
X142532285Y-77061613D01*
X142532287Y-77061610D01*
X142579516Y-76968917D01*
X142627489Y-76918123D01*
X142695310Y-76901328D01*
X142761445Y-76923865D01*
X142800483Y-76968917D01*
X142840883Y-77048205D01*
X142847715Y-77061614D01*
X142968028Y-77227213D01*
X143112786Y-77371971D01*
X143267749Y-77484556D01*
X143278390Y-77492287D01*
X143394607Y-77551503D01*
X143460776Y-77585218D01*
X143460778Y-77585218D01*
X143460781Y-77585220D01*
X143565137Y-77619127D01*
X143655465Y-77648477D01*
X143756557Y-77664488D01*
X143857648Y-77680500D01*
X143857649Y-77680500D01*
X144062351Y-77680500D01*
X144062352Y-77680500D01*
X144264534Y-77648477D01*
X144459219Y-77585220D01*
X144641610Y-77492287D01*
X144734590Y-77424732D01*
X144807213Y-77371971D01*
X144807215Y-77371968D01*
X144807219Y-77371966D01*
X144951966Y-77227219D01*
X144951968Y-77227215D01*
X144951971Y-77227213D01*
X145072284Y-77061614D01*
X145072285Y-77061613D01*
X145072287Y-77061610D01*
X145119516Y-76968917D01*
X145167489Y-76918123D01*
X145235310Y-76901328D01*
X145301445Y-76923865D01*
X145340483Y-76968917D01*
X145380883Y-77048205D01*
X145387715Y-77061614D01*
X145508028Y-77227213D01*
X145652786Y-77371971D01*
X145807749Y-77484556D01*
X145818390Y-77492287D01*
X145934607Y-77551503D01*
X146000776Y-77585218D01*
X146000778Y-77585218D01*
X146000781Y-77585220D01*
X146105137Y-77619127D01*
X146195465Y-77648477D01*
X146296557Y-77664488D01*
X146397648Y-77680500D01*
X146397649Y-77680500D01*
X146602351Y-77680500D01*
X146602352Y-77680500D01*
X146804534Y-77648477D01*
X146999219Y-77585220D01*
X147181610Y-77492287D01*
X147274590Y-77424732D01*
X147347213Y-77371971D01*
X147347215Y-77371968D01*
X147347219Y-77371966D01*
X147491966Y-77227219D01*
X147491968Y-77227215D01*
X147491971Y-77227213D01*
X147612284Y-77061614D01*
X147612285Y-77061613D01*
X147612287Y-77061610D01*
X147619117Y-77048204D01*
X147667091Y-76997409D01*
X147729602Y-76980500D01*
X161775500Y-76980500D01*
X161842539Y-77000185D01*
X161888294Y-77052989D01*
X161899500Y-77104500D01*
X161899500Y-119199903D01*
X161879815Y-119266942D01*
X161863181Y-119287584D01*
X161101487Y-120049278D01*
X161040164Y-120082763D01*
X161013806Y-120085597D01*
X148136822Y-120085597D01*
X148069783Y-120065912D01*
X148024028Y-120013108D01*
X148014084Y-119943950D01*
X148018891Y-119923280D01*
X148029496Y-119890639D01*
X148029496Y-119890635D01*
X148029498Y-119890631D01*
X148061521Y-119688449D01*
X148061521Y-119483745D01*
X148029498Y-119281563D01*
X148029496Y-119281559D01*
X148029496Y-119281554D01*
X148018891Y-119248914D01*
X148016896Y-119179073D01*
X148052977Y-119119240D01*
X148115678Y-119088413D01*
X148136822Y-119086597D01*
X157186000Y-119086597D01*
X157253039Y-119106282D01*
X157273680Y-119122915D01*
X157509265Y-119358501D01*
X157631282Y-119480518D01*
X157631284Y-119480520D01*
X157718095Y-119530639D01*
X157718097Y-119530641D01*
X157756151Y-119552611D01*
X157768215Y-119559577D01*
X157920943Y-119600501D01*
X157920946Y-119600501D01*
X158079056Y-119600501D01*
X158079057Y-119600501D01*
X158079058Y-119600501D01*
X158231785Y-119559577D01*
X158368716Y-119480520D01*
X158480520Y-119368716D01*
X158480520Y-119368714D01*
X158490724Y-119358511D01*
X158490728Y-119358506D01*
X160868713Y-116980521D01*
X160868716Y-116980520D01*
X160980520Y-116868716D01*
X161030639Y-116781904D01*
X161059577Y-116731785D01*
X161100501Y-116579057D01*
X161100501Y-116420943D01*
X161100501Y-116413348D01*
X161100500Y-116413330D01*
X161100500Y-86420945D01*
X161100500Y-86420943D01*
X161059577Y-86268216D01*
X161059573Y-86268209D01*
X160980524Y-86131290D01*
X160980518Y-86131282D01*
X160868717Y-86019481D01*
X160868709Y-86019475D01*
X160731790Y-85940426D01*
X160731786Y-85940424D01*
X160731784Y-85940423D01*
X160579057Y-85899500D01*
X160579056Y-85899500D01*
X144220097Y-85899500D01*
X144153058Y-85879815D01*
X144132416Y-85863181D01*
X143781416Y-85512181D01*
X143747931Y-85450858D01*
X143752915Y-85381166D01*
X143794787Y-85325233D01*
X143860251Y-85300816D01*
X143869097Y-85300500D01*
X144062351Y-85300500D01*
X144062352Y-85300500D01*
X144264534Y-85268477D01*
X144459219Y-85205220D01*
X144641610Y-85112287D01*
X144770482Y-85018657D01*
X144807213Y-84991971D01*
X144807215Y-84991968D01*
X144807219Y-84991966D01*
X144951966Y-84847219D01*
X144951968Y-84847215D01*
X144951971Y-84847213D01*
X145020021Y-84753548D01*
X145072287Y-84681610D01*
X145165220Y-84499219D01*
X145228477Y-84304534D01*
X145260500Y-84102352D01*
X145260500Y-83897648D01*
X145228477Y-83695466D01*
X145165220Y-83500781D01*
X145165218Y-83500778D01*
X145165218Y-83500776D01*
X145113865Y-83399991D01*
X145072287Y-83318390D01*
X145020021Y-83246451D01*
X144951971Y-83152786D01*
X144807213Y-83008028D01*
X144641613Y-82887715D01*
X144641612Y-82887714D01*
X144641610Y-82887713D01*
X144581898Y-82857288D01*
X144459223Y-82794781D01*
X144264534Y-82731522D01*
X144089995Y-82703878D01*
X144062352Y-82699500D01*
X143857648Y-82699500D01*
X143833329Y-82703351D01*
X143655465Y-82731522D01*
X143460776Y-82794781D01*
X143278386Y-82887715D01*
X143112786Y-83008028D01*
X142968028Y-83152786D01*
X142847715Y-83318386D01*
X142800485Y-83411080D01*
X142752510Y-83461876D01*
X142684689Y-83478671D01*
X142618554Y-83456134D01*
X142579515Y-83411080D01*
X142573861Y-83399983D01*
X142532287Y-83318390D01*
X142480021Y-83246451D01*
X142411971Y-83152786D01*
X142267213Y-83008028D01*
X142101613Y-82887715D01*
X142101612Y-82887714D01*
X142101610Y-82887713D01*
X142041898Y-82857288D01*
X141919223Y-82794781D01*
X141724534Y-82731522D01*
X141549995Y-82703878D01*
X141522352Y-82699500D01*
X141317648Y-82699500D01*
X141293329Y-82703351D01*
X141115465Y-82731522D01*
X140920776Y-82794781D01*
X140738386Y-82887715D01*
X140572786Y-83008028D01*
X140428028Y-83152786D01*
X140307715Y-83318386D01*
X140260485Y-83411080D01*
X140212510Y-83461876D01*
X140144689Y-83478671D01*
X140078554Y-83456134D01*
X140039515Y-83411080D01*
X140033861Y-83399983D01*
X139992287Y-83318390D01*
X139940021Y-83246451D01*
X139871971Y-83152786D01*
X139727213Y-83008028D01*
X139561613Y-82887715D01*
X139561612Y-82887714D01*
X139561610Y-82887713D01*
X139501898Y-82857288D01*
X139379223Y-82794781D01*
X139184534Y-82731522D01*
X139009995Y-82703878D01*
X138982352Y-82699500D01*
X138777648Y-82699500D01*
X138753329Y-82703351D01*
X138575465Y-82731522D01*
X138380776Y-82794781D01*
X138198386Y-82887715D01*
X138032786Y-83008028D01*
X137888028Y-83152786D01*
X137767715Y-83318386D01*
X137720485Y-83411080D01*
X137672510Y-83461876D01*
X137604689Y-83478671D01*
X137538554Y-83456134D01*
X137499515Y-83411080D01*
X137493861Y-83399983D01*
X137452287Y-83318390D01*
X137400021Y-83246451D01*
X137331971Y-83152786D01*
X137187213Y-83008028D01*
X137021613Y-82887715D01*
X137021612Y-82887714D01*
X137021610Y-82887713D01*
X136961898Y-82857288D01*
X136839223Y-82794781D01*
X136644534Y-82731522D01*
X136469995Y-82703878D01*
X136442352Y-82699500D01*
X136237648Y-82699500D01*
X136213329Y-82703351D01*
X136035465Y-82731522D01*
X135840776Y-82794781D01*
X135658386Y-82887715D01*
X135492786Y-83008028D01*
X135348028Y-83152786D01*
X135227715Y-83318386D01*
X135180485Y-83411080D01*
X135132510Y-83461876D01*
X135064689Y-83478671D01*
X134998554Y-83456134D01*
X134959515Y-83411080D01*
X134953861Y-83399983D01*
X134912287Y-83318390D01*
X134860021Y-83246451D01*
X134791971Y-83152786D01*
X134647213Y-83008028D01*
X134481613Y-82887715D01*
X134481612Y-82887714D01*
X134481610Y-82887713D01*
X134421898Y-82857288D01*
X134299223Y-82794781D01*
X134104534Y-82731522D01*
X133929995Y-82703878D01*
X133902352Y-82699500D01*
X133697648Y-82699500D01*
X133673329Y-82703351D01*
X133495465Y-82731522D01*
X133300776Y-82794781D01*
X133118386Y-82887715D01*
X132952786Y-83008028D01*
X132808028Y-83152786D01*
X132687715Y-83318386D01*
X132640485Y-83411080D01*
X132592510Y-83461876D01*
X132524689Y-83478671D01*
X132458554Y-83456134D01*
X132419515Y-83411080D01*
X132413861Y-83399983D01*
X132372287Y-83318390D01*
X132320021Y-83246451D01*
X132251971Y-83152786D01*
X132107213Y-83008028D01*
X131941613Y-82887715D01*
X131941612Y-82887714D01*
X131941610Y-82887713D01*
X131881898Y-82857288D01*
X131759223Y-82794781D01*
X131564534Y-82731522D01*
X131389995Y-82703878D01*
X131362352Y-82699500D01*
X131157648Y-82699500D01*
X131133329Y-82703351D01*
X130955465Y-82731522D01*
X130760776Y-82794781D01*
X130578386Y-82887715D01*
X130412786Y-83008028D01*
X130268032Y-83152782D01*
X130268028Y-83152787D01*
X130199978Y-83246451D01*
X130144648Y-83289117D01*
X130075035Y-83295096D01*
X130013240Y-83262490D01*
X129981954Y-83212570D01*
X129962144Y-83152787D01*
X129954814Y-83130666D01*
X129862712Y-82981344D01*
X129738656Y-82857288D01*
X129589334Y-82765186D01*
X129422797Y-82710001D01*
X129422795Y-82710000D01*
X129320010Y-82699500D01*
X128119998Y-82699500D01*
X128119981Y-82699501D01*
X128017203Y-82710000D01*
X128017200Y-82710001D01*
X127850668Y-82765185D01*
X127850663Y-82765187D01*
X127701342Y-82857289D01*
X127577289Y-82981342D01*
X127485187Y-83130663D01*
X127485186Y-83130666D01*
X127430001Y-83297203D01*
X127430001Y-83297204D01*
X127430000Y-83297204D01*
X127419500Y-83399983D01*
X127419500Y-84600001D01*
X127419501Y-84600018D01*
X127430000Y-84702796D01*
X127430001Y-84702799D01*
X127446818Y-84753548D01*
X127485186Y-84869334D01*
X127577288Y-85018656D01*
X127701344Y-85142712D01*
X127850666Y-85234814D01*
X128017203Y-85289999D01*
X128119991Y-85300500D01*
X129320008Y-85300499D01*
X129422797Y-85289999D01*
X129589334Y-85234814D01*
X129738656Y-85142712D01*
X129862712Y-85018656D01*
X129954814Y-84869334D01*
X129981955Y-84787427D01*
X130021726Y-84729984D01*
X130086242Y-84703161D01*
X130155018Y-84715476D01*
X130199977Y-84753547D01*
X130268030Y-84847213D01*
X130268034Y-84847219D01*
X130412786Y-84991971D01*
X130567749Y-85104556D01*
X130578390Y-85112287D01*
X130694607Y-85171503D01*
X130760776Y-85205218D01*
X130760778Y-85205218D01*
X130760781Y-85205220D01*
X130851856Y-85234812D01*
X130955465Y-85268477D01*
X131056557Y-85284488D01*
X131157648Y-85300500D01*
X131157649Y-85300500D01*
X131362351Y-85300500D01*
X131362352Y-85300500D01*
X131564534Y-85268477D01*
X131759219Y-85205220D01*
X131941610Y-85112287D01*
X132070482Y-85018657D01*
X132107213Y-84991971D01*
X132107215Y-84991968D01*
X132107219Y-84991966D01*
X132251966Y-84847219D01*
X132251968Y-84847215D01*
X132251971Y-84847213D01*
X132372284Y-84681614D01*
X132372285Y-84681613D01*
X132372287Y-84681610D01*
X132419516Y-84588917D01*
X132467489Y-84538123D01*
X132535310Y-84521328D01*
X132601445Y-84543865D01*
X132640483Y-84588917D01*
X132646140Y-84600018D01*
X132687715Y-84681614D01*
X132808028Y-84847213D01*
X132952786Y-84991971D01*
X133107749Y-85104556D01*
X133118390Y-85112287D01*
X133234607Y-85171503D01*
X133300776Y-85205218D01*
X133300778Y-85205218D01*
X133300781Y-85205220D01*
X133391856Y-85234812D01*
X133495465Y-85268477D01*
X133596557Y-85284488D01*
X133697648Y-85300500D01*
X133697649Y-85300500D01*
X133902351Y-85300500D01*
X133902352Y-85300500D01*
X134104534Y-85268477D01*
X134299219Y-85205220D01*
X134481610Y-85112287D01*
X134610482Y-85018657D01*
X134647213Y-84991971D01*
X134647215Y-84991968D01*
X134647219Y-84991966D01*
X134791966Y-84847219D01*
X134791968Y-84847215D01*
X134791971Y-84847213D01*
X134912284Y-84681614D01*
X134912285Y-84681613D01*
X134912287Y-84681610D01*
X134959516Y-84588917D01*
X135007489Y-84538123D01*
X135075310Y-84521328D01*
X135141445Y-84543865D01*
X135180483Y-84588917D01*
X135186140Y-84600018D01*
X135227715Y-84681614D01*
X135348028Y-84847213D01*
X135492786Y-84991971D01*
X135647749Y-85104556D01*
X135658390Y-85112287D01*
X135774607Y-85171503D01*
X135840776Y-85205218D01*
X135840778Y-85205218D01*
X135840781Y-85205220D01*
X135931856Y-85234812D01*
X136035465Y-85268477D01*
X136136557Y-85284488D01*
X136237648Y-85300500D01*
X136237649Y-85300500D01*
X136430902Y-85300500D01*
X136497941Y-85320185D01*
X136543696Y-85372989D01*
X136553640Y-85442147D01*
X136524615Y-85505703D01*
X136518583Y-85512181D01*
X134167584Y-87863181D01*
X134106261Y-87896666D01*
X134079903Y-87899500D01*
X114920943Y-87899500D01*
X114768216Y-87940423D01*
X114768209Y-87940426D01*
X114631290Y-88019475D01*
X114631282Y-88019481D01*
X114519481Y-88131282D01*
X114519475Y-88131290D01*
X114440426Y-88268209D01*
X114440423Y-88268216D01*
X114399500Y-88420943D01*
X100500500Y-88420943D01*
X100500500Y-76277648D01*
X127419500Y-76277648D01*
X127419500Y-76482351D01*
X127451522Y-76684534D01*
X127514781Y-76879223D01*
X127566385Y-76980500D01*
X127603320Y-77052989D01*
X127607715Y-77061613D01*
X127728028Y-77227213D01*
X127872786Y-77371971D01*
X128027749Y-77484556D01*
X128038390Y-77492287D01*
X128154607Y-77551503D01*
X128220776Y-77585218D01*
X128220778Y-77585218D01*
X128220781Y-77585220D01*
X128325137Y-77619127D01*
X128415465Y-77648477D01*
X128516557Y-77664488D01*
X128617648Y-77680500D01*
X128617649Y-77680500D01*
X128822351Y-77680500D01*
X128822352Y-77680500D01*
X129024534Y-77648477D01*
X129219219Y-77585220D01*
X129401610Y-77492287D01*
X129494590Y-77424732D01*
X129567213Y-77371971D01*
X129567215Y-77371968D01*
X129567219Y-77371966D01*
X129711966Y-77227219D01*
X129711968Y-77227215D01*
X129711971Y-77227213D01*
X129764732Y-77154590D01*
X129832287Y-77061610D01*
X129925220Y-76879219D01*
X129988477Y-76684534D01*
X130020500Y-76482352D01*
X130020500Y-76277648D01*
X132499500Y-76277648D01*
X132499500Y-76482351D01*
X132531522Y-76684534D01*
X132594781Y-76879223D01*
X132646385Y-76980500D01*
X132683320Y-77052989D01*
X132687715Y-77061613D01*
X132808028Y-77227213D01*
X132952786Y-77371971D01*
X133107749Y-77484556D01*
X133118390Y-77492287D01*
X133234607Y-77551503D01*
X133300776Y-77585218D01*
X133300778Y-77585218D01*
X133300781Y-77585220D01*
X133405137Y-77619127D01*
X133495465Y-77648477D01*
X133596557Y-77664488D01*
X133697648Y-77680500D01*
X133697649Y-77680500D01*
X133902351Y-77680500D01*
X133902352Y-77680500D01*
X134104534Y-77648477D01*
X134299219Y-77585220D01*
X134481610Y-77492287D01*
X134574590Y-77424732D01*
X134647213Y-77371971D01*
X134647215Y-77371968D01*
X134647219Y-77371966D01*
X134791966Y-77227219D01*
X134791968Y-77227215D01*
X134791971Y-77227213D01*
X134844732Y-77154590D01*
X134912287Y-77061610D01*
X135005220Y-76879219D01*
X135068477Y-76684534D01*
X135100500Y-76482352D01*
X135100500Y-76277648D01*
X135099005Y-76268209D01*
X135068477Y-76075465D01*
X135011296Y-75899481D01*
X135005220Y-75880781D01*
X135005218Y-75880778D01*
X135005218Y-75880776D01*
X134959515Y-75791080D01*
X134912287Y-75698390D01*
X134904556Y-75687749D01*
X134791971Y-75532786D01*
X134647213Y-75388028D01*
X134481613Y-75267715D01*
X134481612Y-75267714D01*
X134481610Y-75267713D01*
X134424653Y-75238691D01*
X134299223Y-75174781D01*
X134104534Y-75111522D01*
X133929995Y-75083878D01*
X133902352Y-75079500D01*
X133697648Y-75079500D01*
X133673329Y-75083351D01*
X133495465Y-75111522D01*
X133300776Y-75174781D01*
X133118386Y-75267715D01*
X132952786Y-75388028D01*
X132808028Y-75532786D01*
X132687715Y-75698386D01*
X132594781Y-75880776D01*
X132531522Y-76075465D01*
X132499500Y-76277648D01*
X130020500Y-76277648D01*
X130019005Y-76268209D01*
X129988477Y-76075465D01*
X129931296Y-75899481D01*
X129925220Y-75880781D01*
X129925218Y-75880778D01*
X129925218Y-75880776D01*
X129879515Y-75791080D01*
X129832287Y-75698390D01*
X129824556Y-75687749D01*
X129711971Y-75532786D01*
X129567213Y-75388028D01*
X129401613Y-75267715D01*
X129401612Y-75267714D01*
X129401610Y-75267713D01*
X129344653Y-75238691D01*
X129219223Y-75174781D01*
X129024534Y-75111522D01*
X128849995Y-75083878D01*
X128822352Y-75079500D01*
X128617648Y-75079500D01*
X128593329Y-75083351D01*
X128415465Y-75111522D01*
X128220776Y-75174781D01*
X128038386Y-75267715D01*
X127872786Y-75388028D01*
X127728028Y-75532786D01*
X127607715Y-75698386D01*
X127514781Y-75880776D01*
X127451522Y-76075465D01*
X127419500Y-76277648D01*
X100500500Y-76277648D01*
X100500500Y-61867423D01*
X131969500Y-61867423D01*
X131969500Y-62072126D01*
X132001522Y-62274309D01*
X132064781Y-62468998D01*
X132157715Y-62651388D01*
X132278028Y-62816988D01*
X132422786Y-62961746D01*
X132577749Y-63074331D01*
X132588390Y-63082062D01*
X132679840Y-63128658D01*
X132681080Y-63129290D01*
X132731876Y-63177265D01*
X132748671Y-63245086D01*
X132726134Y-63311221D01*
X132681080Y-63350260D01*
X132588386Y-63397490D01*
X132422786Y-63517803D01*
X132278028Y-63662561D01*
X132157715Y-63828161D01*
X132064781Y-64010551D01*
X132001522Y-64205240D01*
X131969500Y-64407423D01*
X131969500Y-64612126D01*
X132001522Y-64814309D01*
X132064781Y-65008998D01*
X132157715Y-65191388D01*
X132278028Y-65356988D01*
X132422786Y-65501746D01*
X132577749Y-65614331D01*
X132588390Y-65622062D01*
X132679840Y-65668658D01*
X132681080Y-65669290D01*
X132731876Y-65717265D01*
X132748671Y-65785086D01*
X132726134Y-65851221D01*
X132681080Y-65890260D01*
X132588386Y-65937490D01*
X132422786Y-66057803D01*
X132278028Y-66202561D01*
X132157715Y-66368161D01*
X132064781Y-66550551D01*
X132001522Y-66745240D01*
X131969500Y-66947423D01*
X131969500Y-67152126D01*
X132001522Y-67354309D01*
X132064781Y-67548998D01*
X132157715Y-67731388D01*
X132278028Y-67896988D01*
X132422786Y-68041746D01*
X132505806Y-68102062D01*
X132588390Y-68162062D01*
X132653021Y-68194993D01*
X132770776Y-68254993D01*
X132770778Y-68254993D01*
X132770781Y-68254995D01*
X132875137Y-68288902D01*
X132965465Y-68318252D01*
X133066557Y-68334263D01*
X133167648Y-68350275D01*
X133167649Y-68350275D01*
X133372351Y-68350275D01*
X133372352Y-68350275D01*
X133574534Y-68318252D01*
X133769219Y-68254995D01*
X133951610Y-68162062D01*
X134044590Y-68094507D01*
X134117213Y-68041746D01*
X134117215Y-68041743D01*
X134117219Y-68041741D01*
X134261966Y-67896994D01*
X134261968Y-67896990D01*
X134261971Y-67896988D01*
X134314732Y-67824365D01*
X134382287Y-67731385D01*
X134475220Y-67548994D01*
X134538477Y-67354309D01*
X134570500Y-67152127D01*
X134570500Y-66947423D01*
X134538477Y-66745241D01*
X134533825Y-66730926D01*
X134531832Y-66661087D01*
X134564075Y-66604933D01*
X139377819Y-61791190D01*
X139439142Y-61757705D01*
X139508834Y-61762689D01*
X139564767Y-61804561D01*
X139589184Y-61870025D01*
X139589500Y-61878871D01*
X139589500Y-62072126D01*
X139621522Y-62274309D01*
X139684781Y-62468998D01*
X139777715Y-62651388D01*
X139898028Y-62816988D01*
X140042786Y-62961746D01*
X140197749Y-63074331D01*
X140208390Y-63082062D01*
X140299840Y-63128658D01*
X140301080Y-63129290D01*
X140351876Y-63177265D01*
X140368671Y-63245086D01*
X140346134Y-63311221D01*
X140301080Y-63350260D01*
X140208386Y-63397490D01*
X140042786Y-63517803D01*
X139898028Y-63662561D01*
X139777715Y-63828161D01*
X139684781Y-64010551D01*
X139621522Y-64205240D01*
X139589500Y-64407423D01*
X139589500Y-64612126D01*
X139621522Y-64814309D01*
X139684781Y-65008998D01*
X139777715Y-65191388D01*
X139898028Y-65356988D01*
X140042786Y-65501746D01*
X140197749Y-65614331D01*
X140208390Y-65622062D01*
X140299840Y-65668658D01*
X140301080Y-65669290D01*
X140351876Y-65717265D01*
X140368671Y-65785086D01*
X140346134Y-65851221D01*
X140301080Y-65890260D01*
X140208386Y-65937490D01*
X140042786Y-66057803D01*
X139898028Y-66202561D01*
X139777715Y-66368161D01*
X139684781Y-66550551D01*
X139621522Y-66745240D01*
X139589500Y-66947423D01*
X139589500Y-67152126D01*
X139621522Y-67354309D01*
X139684781Y-67548998D01*
X139777715Y-67731388D01*
X139898028Y-67896988D01*
X140042786Y-68041746D01*
X140125806Y-68102062D01*
X140208390Y-68162062D01*
X140273021Y-68194993D01*
X140390776Y-68254993D01*
X140390778Y-68254993D01*
X140390781Y-68254995D01*
X140495137Y-68288902D01*
X140585465Y-68318252D01*
X140686557Y-68334263D01*
X140787648Y-68350275D01*
X140787649Y-68350275D01*
X140992351Y-68350275D01*
X140992352Y-68350275D01*
X141194534Y-68318252D01*
X141389219Y-68254995D01*
X141571610Y-68162062D01*
X141664590Y-68094507D01*
X141737213Y-68041746D01*
X141737215Y-68041743D01*
X141737219Y-68041741D01*
X141881966Y-67896994D01*
X141881968Y-67896990D01*
X141881971Y-67896988D01*
X141934732Y-67824365D01*
X142002287Y-67731385D01*
X142095220Y-67548994D01*
X142158477Y-67354309D01*
X142190500Y-67152127D01*
X142190500Y-66947423D01*
X142180997Y-66887423D01*
X145699500Y-66887423D01*
X145699500Y-67092126D01*
X145731522Y-67294309D01*
X145794781Y-67488998D01*
X145887715Y-67671388D01*
X146008028Y-67836988D01*
X146152786Y-67981746D01*
X146235371Y-68041746D01*
X146318390Y-68102062D01*
X146434607Y-68161278D01*
X146500776Y-68194993D01*
X146500778Y-68194993D01*
X146500781Y-68194995D01*
X146605137Y-68228902D01*
X146695465Y-68258252D01*
X146796557Y-68274263D01*
X146897648Y-68290275D01*
X146897649Y-68290275D01*
X147102351Y-68290275D01*
X147102352Y-68290275D01*
X147304534Y-68258252D01*
X147499219Y-68194995D01*
X147681610Y-68102062D01*
X147774590Y-68034507D01*
X147847213Y-67981746D01*
X147847215Y-67981743D01*
X147847219Y-67981741D01*
X147991966Y-67836994D01*
X147991968Y-67836990D01*
X147991971Y-67836988D01*
X148044732Y-67764365D01*
X148112287Y-67671385D01*
X148205220Y-67488994D01*
X148268477Y-67294309D01*
X148300500Y-67092127D01*
X148300500Y-66887423D01*
X148277980Y-66745240D01*
X148268477Y-66685240D01*
X148224715Y-66550556D01*
X148205220Y-66490556D01*
X148205218Y-66490553D01*
X148205218Y-66490551D01*
X148171503Y-66424382D01*
X148112287Y-66308165D01*
X148104556Y-66297524D01*
X147991971Y-66142561D01*
X147847213Y-65997803D01*
X147681613Y-65877490D01*
X147681612Y-65877489D01*
X147681610Y-65877488D01*
X147624653Y-65848466D01*
X147499223Y-65784556D01*
X147304534Y-65721297D01*
X147129995Y-65693653D01*
X147102352Y-65689275D01*
X146897648Y-65689275D01*
X146873329Y-65693126D01*
X146695465Y-65721297D01*
X146500776Y-65784556D01*
X146318386Y-65877490D01*
X146152786Y-65997803D01*
X146008028Y-66142561D01*
X145887715Y-66308161D01*
X145794781Y-66490551D01*
X145731522Y-66685240D01*
X145699500Y-66887423D01*
X142180997Y-66887423D01*
X142158477Y-66745241D01*
X142095220Y-66550556D01*
X142095218Y-66550553D01*
X142095218Y-66550551D01*
X142061503Y-66484382D01*
X142002287Y-66368165D01*
X141958692Y-66308161D01*
X141881971Y-66202561D01*
X141737213Y-66057803D01*
X141571614Y-65937490D01*
X141565006Y-65934123D01*
X141478917Y-65890258D01*
X141428123Y-65842286D01*
X141411328Y-65774465D01*
X141433865Y-65708330D01*
X141478917Y-65669291D01*
X141571610Y-65622062D01*
X141592770Y-65606688D01*
X141737213Y-65501746D01*
X141737215Y-65501743D01*
X141737219Y-65501741D01*
X141881966Y-65356994D01*
X141881968Y-65356990D01*
X141881971Y-65356988D01*
X141934732Y-65284365D01*
X142002287Y-65191385D01*
X142095220Y-65008994D01*
X142158477Y-64814309D01*
X142190500Y-64612127D01*
X142190500Y-64407423D01*
X142158477Y-64205241D01*
X142095220Y-64010556D01*
X142095218Y-64010553D01*
X142095218Y-64010551D01*
X142061503Y-63944382D01*
X142002287Y-63828165D01*
X141994556Y-63817524D01*
X141881971Y-63662561D01*
X141737213Y-63517803D01*
X141571614Y-63397490D01*
X141565006Y-63394123D01*
X141478917Y-63350258D01*
X141428123Y-63302286D01*
X141411328Y-63234465D01*
X141433865Y-63168330D01*
X141478917Y-63129291D01*
X141571610Y-63082062D01*
X141592770Y-63066688D01*
X141737213Y-62961746D01*
X141737215Y-62961743D01*
X141737219Y-62961741D01*
X141881966Y-62816994D01*
X141881968Y-62816990D01*
X141881971Y-62816988D01*
X141934732Y-62744365D01*
X142002287Y-62651385D01*
X142095220Y-62468994D01*
X142158477Y-62274309D01*
X142190500Y-62072127D01*
X142190500Y-61867423D01*
X142158477Y-61665240D01*
X142102178Y-61491971D01*
X142095220Y-61470556D01*
X142095218Y-61470553D01*
X142095218Y-61470551D01*
X142061503Y-61404382D01*
X142002287Y-61288165D01*
X141994556Y-61277524D01*
X141881971Y-61122561D01*
X141737213Y-60977803D01*
X141571614Y-60857490D01*
X141565006Y-60854123D01*
X141478917Y-60810258D01*
X141428123Y-60762286D01*
X141411328Y-60694465D01*
X141433865Y-60628330D01*
X141478917Y-60589291D01*
X141571610Y-60542062D01*
X141654198Y-60482059D01*
X141737213Y-60421746D01*
X141737215Y-60421743D01*
X141737219Y-60421741D01*
X141881966Y-60276994D01*
X141881968Y-60276990D01*
X141881971Y-60276988D01*
X141941200Y-60195465D01*
X142002287Y-60111385D01*
X142095220Y-59928994D01*
X142158477Y-59734309D01*
X142190500Y-59532127D01*
X142190500Y-59327423D01*
X142180997Y-59267423D01*
X145699500Y-59267423D01*
X145699500Y-59472126D01*
X145731522Y-59674309D01*
X145794781Y-59868998D01*
X145887715Y-60051388D01*
X146008028Y-60216988D01*
X146152786Y-60361746D01*
X146235371Y-60421746D01*
X146318390Y-60482062D01*
X146434607Y-60541278D01*
X146500776Y-60574993D01*
X146500778Y-60574993D01*
X146500781Y-60574995D01*
X146584974Y-60602351D01*
X146695465Y-60638252D01*
X146796557Y-60654263D01*
X146897648Y-60670275D01*
X146897649Y-60670275D01*
X147102351Y-60670275D01*
X147102352Y-60670275D01*
X147304534Y-60638252D01*
X147499219Y-60574995D01*
X147681610Y-60482062D01*
X147797797Y-60397648D01*
X147847213Y-60361746D01*
X147847215Y-60361743D01*
X147847219Y-60361741D01*
X147991966Y-60216994D01*
X147991968Y-60216990D01*
X147991971Y-60216988D01*
X148044732Y-60144365D01*
X148112287Y-60051385D01*
X148205220Y-59868994D01*
X148268477Y-59674309D01*
X148300500Y-59472127D01*
X148300500Y-59267423D01*
X148268477Y-59065241D01*
X148205220Y-58870556D01*
X148205218Y-58870553D01*
X148205218Y-58870551D01*
X148171503Y-58804382D01*
X148112287Y-58688165D01*
X148104556Y-58677524D01*
X147991971Y-58522561D01*
X147847213Y-58377803D01*
X147681613Y-58257490D01*
X147681612Y-58257489D01*
X147681610Y-58257488D01*
X147624653Y-58228466D01*
X147499223Y-58164556D01*
X147304534Y-58101297D01*
X147129995Y-58073653D01*
X147102352Y-58069275D01*
X146897648Y-58069275D01*
X146873329Y-58073126D01*
X146695465Y-58101297D01*
X146500776Y-58164556D01*
X146318386Y-58257490D01*
X146152786Y-58377803D01*
X146008028Y-58522561D01*
X145887715Y-58688161D01*
X145794781Y-58870551D01*
X145731522Y-59065240D01*
X145699500Y-59267423D01*
X142180997Y-59267423D01*
X142158477Y-59125241D01*
X142095220Y-58930556D01*
X142095218Y-58930553D01*
X142095218Y-58930551D01*
X142061503Y-58864382D01*
X142002287Y-58748165D01*
X141958692Y-58688161D01*
X141881971Y-58582561D01*
X141737213Y-58437803D01*
X141571613Y-58317490D01*
X141571612Y-58317489D01*
X141571610Y-58317488D01*
X141514653Y-58288466D01*
X141389223Y-58224556D01*
X141194534Y-58161297D01*
X141019995Y-58133653D01*
X140992352Y-58129275D01*
X140787648Y-58129275D01*
X140763329Y-58133126D01*
X140585465Y-58161297D01*
X140390776Y-58224556D01*
X140208386Y-58317490D01*
X140042786Y-58437803D01*
X139898028Y-58582561D01*
X139777715Y-58748161D01*
X139684781Y-58930551D01*
X139621522Y-59125240D01*
X139589500Y-59327423D01*
X139589500Y-59532126D01*
X139621522Y-59734309D01*
X139626173Y-59748623D01*
X139628165Y-59818465D01*
X139595921Y-59874617D01*
X134782181Y-64688358D01*
X134720858Y-64721843D01*
X134651166Y-64716859D01*
X134595233Y-64674987D01*
X134570816Y-64609523D01*
X134570500Y-64600677D01*
X134570500Y-64407423D01*
X134538477Y-64205240D01*
X134475218Y-64010551D01*
X134441503Y-63944382D01*
X134382287Y-63828165D01*
X134374556Y-63817524D01*
X134261971Y-63662561D01*
X134117213Y-63517803D01*
X133951614Y-63397490D01*
X133945006Y-63394123D01*
X133858917Y-63350258D01*
X133808123Y-63302286D01*
X133791328Y-63234465D01*
X133813865Y-63168330D01*
X133858917Y-63129291D01*
X133951610Y-63082062D01*
X133972770Y-63066688D01*
X134117213Y-62961746D01*
X134117215Y-62961743D01*
X134117219Y-62961741D01*
X134261966Y-62816994D01*
X134261968Y-62816990D01*
X134261971Y-62816988D01*
X134314732Y-62744365D01*
X134382287Y-62651385D01*
X134475220Y-62468994D01*
X134538477Y-62274309D01*
X134570500Y-62072127D01*
X134570500Y-61867423D01*
X134538477Y-61665240D01*
X134482178Y-61491971D01*
X134475220Y-61470556D01*
X134475218Y-61470553D01*
X134475218Y-61470551D01*
X134441503Y-61404382D01*
X134382287Y-61288165D01*
X134374556Y-61277524D01*
X134261971Y-61122561D01*
X134117213Y-60977803D01*
X133951613Y-60857490D01*
X133951612Y-60857489D01*
X133951610Y-60857488D01*
X133894653Y-60828466D01*
X133769223Y-60764556D01*
X133574534Y-60701297D01*
X133399995Y-60673653D01*
X133372352Y-60669275D01*
X133167648Y-60669275D01*
X133143329Y-60673126D01*
X132965465Y-60701297D01*
X132770776Y-60764556D01*
X132588386Y-60857490D01*
X132422786Y-60977803D01*
X132278028Y-61122561D01*
X132157715Y-61288161D01*
X132064781Y-61470551D01*
X132001522Y-61665240D01*
X131969500Y-61867423D01*
X100500500Y-61867423D01*
X100500500Y-60397648D01*
X125199500Y-60397648D01*
X125199500Y-60602351D01*
X125231522Y-60804534D01*
X125294781Y-60999223D01*
X125387715Y-61181613D01*
X125508028Y-61347213D01*
X125652786Y-61491971D01*
X125807749Y-61604556D01*
X125818390Y-61612287D01*
X125922316Y-61665240D01*
X126000776Y-61705218D01*
X126000778Y-61705218D01*
X126000781Y-61705220D01*
X126105137Y-61739127D01*
X126195465Y-61768477D01*
X126296557Y-61784488D01*
X126397648Y-61800500D01*
X126397649Y-61800500D01*
X126602351Y-61800500D01*
X126602352Y-61800500D01*
X126804534Y-61768477D01*
X126999219Y-61705220D01*
X127181610Y-61612287D01*
X127274590Y-61544732D01*
X127347213Y-61491971D01*
X127347215Y-61491968D01*
X127347219Y-61491966D01*
X127491966Y-61347219D01*
X127491968Y-61347215D01*
X127491971Y-61347213D01*
X127544732Y-61274590D01*
X127612287Y-61181610D01*
X127705220Y-60999219D01*
X127768477Y-60804534D01*
X127800500Y-60602352D01*
X127800500Y-60397648D01*
X127768477Y-60195466D01*
X127705220Y-60000781D01*
X127705218Y-60000778D01*
X127705218Y-60000776D01*
X127638071Y-59868994D01*
X127612287Y-59818390D01*
X127561599Y-59748623D01*
X127491971Y-59652786D01*
X127347213Y-59508028D01*
X127181613Y-59387715D01*
X127181612Y-59387714D01*
X127181610Y-59387713D01*
X127124653Y-59358691D01*
X126999223Y-59294781D01*
X126804534Y-59231522D01*
X126629995Y-59203878D01*
X126602352Y-59199500D01*
X126397648Y-59199500D01*
X126373329Y-59203351D01*
X126195465Y-59231522D01*
X126000776Y-59294781D01*
X125818386Y-59387715D01*
X125652786Y-59508028D01*
X125508028Y-59652786D01*
X125387715Y-59818386D01*
X125294781Y-60000776D01*
X125231522Y-60195465D01*
X125199500Y-60397648D01*
X100500500Y-60397648D01*
X100500500Y-51700208D01*
X128689500Y-51700208D01*
X128689500Y-52900226D01*
X128689501Y-52900243D01*
X128700000Y-53003021D01*
X128700001Y-53003024D01*
X128755185Y-53169556D01*
X128755186Y-53169559D01*
X128847288Y-53318881D01*
X128971344Y-53442937D01*
X129120666Y-53535039D01*
X129287203Y-53590224D01*
X129389991Y-53600725D01*
X130590008Y-53600724D01*
X130692797Y-53590224D01*
X130859334Y-53535039D01*
X131008656Y-53442937D01*
X131132712Y-53318881D01*
X131224814Y-53169559D01*
X131279999Y-53003022D01*
X131290500Y-52900234D01*
X131290499Y-52397648D01*
X136579500Y-52397648D01*
X136579500Y-52602351D01*
X136611522Y-52804534D01*
X136674781Y-52999223D01*
X136738691Y-53124653D01*
X136761571Y-53169556D01*
X136767715Y-53181613D01*
X136888028Y-53347213D01*
X137032786Y-53491971D01*
X137182473Y-53600723D01*
X137198390Y-53612287D01*
X137314607Y-53671503D01*
X137380776Y-53705218D01*
X137380778Y-53705218D01*
X137380781Y-53705220D01*
X137485137Y-53739127D01*
X137575465Y-53768477D01*
X137676557Y-53784488D01*
X137777648Y-53800500D01*
X137777649Y-53800500D01*
X137982351Y-53800500D01*
X137982352Y-53800500D01*
X138184534Y-53768477D01*
X138379219Y-53705220D01*
X138561610Y-53612287D01*
X138667934Y-53535039D01*
X138727213Y-53491971D01*
X138727215Y-53491968D01*
X138727219Y-53491966D01*
X138871966Y-53347219D01*
X138871968Y-53347215D01*
X138871971Y-53347213D01*
X138924732Y-53274590D01*
X138992287Y-53181610D01*
X139085220Y-52999219D01*
X139148477Y-52804534D01*
X139180500Y-52602352D01*
X139180500Y-52397648D01*
X144199500Y-52397648D01*
X144199500Y-52602351D01*
X144231522Y-52804534D01*
X144294781Y-52999223D01*
X144358691Y-53124653D01*
X144381571Y-53169556D01*
X144387715Y-53181613D01*
X144508028Y-53347213D01*
X144652786Y-53491971D01*
X144802473Y-53600723D01*
X144818390Y-53612287D01*
X144934607Y-53671503D01*
X145000776Y-53705218D01*
X145000778Y-53705218D01*
X145000781Y-53705220D01*
X145105137Y-53739127D01*
X145195465Y-53768477D01*
X145296557Y-53784488D01*
X145397648Y-53800500D01*
X145397649Y-53800500D01*
X145602351Y-53800500D01*
X145602352Y-53800500D01*
X145804534Y-53768477D01*
X145999219Y-53705220D01*
X146181610Y-53612287D01*
X146287934Y-53535039D01*
X146347213Y-53491971D01*
X146347215Y-53491968D01*
X146347219Y-53491966D01*
X146491966Y-53347219D01*
X146491968Y-53347215D01*
X146491971Y-53347213D01*
X146544732Y-53274590D01*
X146612287Y-53181610D01*
X146705220Y-52999219D01*
X146768477Y-52804534D01*
X146800500Y-52602352D01*
X146800500Y-52397648D01*
X146768477Y-52195466D01*
X146705220Y-52000781D01*
X146705218Y-52000778D01*
X146705218Y-52000776D01*
X146671503Y-51934607D01*
X146612287Y-51818390D01*
X146604556Y-51807749D01*
X146491971Y-51652786D01*
X146347213Y-51508028D01*
X146181613Y-51387715D01*
X146181612Y-51387714D01*
X146181610Y-51387713D01*
X146124653Y-51358691D01*
X145999223Y-51294781D01*
X145804534Y-51231522D01*
X145629995Y-51203878D01*
X145602352Y-51199500D01*
X145397648Y-51199500D01*
X145373329Y-51203351D01*
X145195465Y-51231522D01*
X145000776Y-51294781D01*
X144818386Y-51387715D01*
X144652786Y-51508028D01*
X144508028Y-51652786D01*
X144387715Y-51818386D01*
X144294781Y-52000776D01*
X144231522Y-52195465D01*
X144199500Y-52397648D01*
X139180500Y-52397648D01*
X139148477Y-52195466D01*
X139085220Y-52000781D01*
X139085218Y-52000778D01*
X139085218Y-52000776D01*
X139051503Y-51934607D01*
X138992287Y-51818390D01*
X138984556Y-51807749D01*
X138871971Y-51652786D01*
X138727213Y-51508028D01*
X138561613Y-51387715D01*
X138561612Y-51387714D01*
X138561610Y-51387713D01*
X138504653Y-51358691D01*
X138379223Y-51294781D01*
X138184534Y-51231522D01*
X138009995Y-51203878D01*
X137982352Y-51199500D01*
X137777648Y-51199500D01*
X137753329Y-51203351D01*
X137575465Y-51231522D01*
X137380776Y-51294781D01*
X137198386Y-51387715D01*
X137032786Y-51508028D01*
X136888028Y-51652786D01*
X136767715Y-51818386D01*
X136674781Y-52000776D01*
X136611522Y-52195465D01*
X136579500Y-52397648D01*
X131290499Y-52397648D01*
X131290499Y-52195466D01*
X131290499Y-51700223D01*
X131290498Y-51700206D01*
X131279999Y-51597428D01*
X131279998Y-51597425D01*
X131224814Y-51430891D01*
X131132712Y-51281569D01*
X131008656Y-51157513D01*
X130859334Y-51065411D01*
X130692797Y-51010226D01*
X130692795Y-51010225D01*
X130590010Y-50999725D01*
X129389998Y-50999725D01*
X129389981Y-50999726D01*
X129287203Y-51010225D01*
X129287200Y-51010226D01*
X129120668Y-51065410D01*
X129120663Y-51065412D01*
X128971342Y-51157514D01*
X128847289Y-51281567D01*
X128755187Y-51430888D01*
X128755186Y-51430891D01*
X128700001Y-51597428D01*
X128700001Y-51597429D01*
X128700000Y-51597429D01*
X128689500Y-51700208D01*
X100500500Y-51700208D01*
X100500500Y-41124500D01*
X100520185Y-41057461D01*
X100572989Y-41011706D01*
X100624500Y-41000500D01*
X174375500Y-41000500D01*
X174442539Y-41020185D01*
G37*
%TD.AperFunction*%
%TD*%
D10*
%TO.C,D2*%
X130970000Y-106350000D03*
D11*
X130970000Y-103810000D03*
%TD*%
%TO.C,D9*%
X146410000Y-125500000D03*
D10*
X146410000Y-128040000D03*
%TD*%
D11*
%TO.C,D7*%
X131470000Y-125500000D03*
D10*
X131470000Y-128040000D03*
%TD*%
D12*
%TO.C,C1*%
X126500000Y-65500000D03*
X126500000Y-60500000D03*
%TD*%
D10*
%TO.C,D4*%
X145910000Y-106350000D03*
D11*
X145910000Y-103810000D03*
%TD*%
D10*
%TO.C,D5*%
X153380000Y-106350000D03*
D11*
X153380000Y-103810000D03*
%TD*%
D10*
%TO.C,D1*%
X123500000Y-106350000D03*
D11*
X123500000Y-103810000D03*
%TD*%
D10*
%TO.C,D8*%
X138940000Y-128040000D03*
D11*
X138940000Y-125500000D03*
%TD*%
D12*
%TO.C,C2*%
X131990000Y-52300225D03*
D13*
X129990000Y-52300225D03*
%TD*%
D11*
%TO.C,D6*%
X124000000Y-125500000D03*
D10*
X124000000Y-128040000D03*
%TD*%
%TO.C,D3*%
X138440000Y-106350000D03*
D11*
X138440000Y-103810000D03*
%TD*%
%TO.C,D10*%
X153880000Y-125500000D03*
D10*
X153880000Y-128040000D03*
%TD*%
D12*
%TO.C,R6*%
X141800000Y-97310000D03*
X141800000Y-89690000D03*
%TD*%
%TO.C,R11*%
X142711021Y-111966097D03*
X142711021Y-119586097D03*
%TD*%
%TO.C,R3*%
X129650000Y-97310000D03*
X129650000Y-89690000D03*
%TD*%
%TO.C,R7*%
X145850000Y-97310000D03*
X145850000Y-89690000D03*
%TD*%
%TO.C,R8*%
X130561021Y-111966097D03*
X130561021Y-119586097D03*
%TD*%
%TO.C,R5*%
X137750000Y-97310000D03*
X137750000Y-89690000D03*
%TD*%
%TO.C,R4*%
X133700000Y-97310000D03*
X133700000Y-89690000D03*
%TD*%
%TO.C,U1*%
X140890000Y-59429775D03*
X140890000Y-61969775D03*
X140890000Y-64509775D03*
X140890000Y-67049775D03*
X133270000Y-67049775D03*
X133270000Y-64509775D03*
X133270000Y-61969775D03*
D13*
X133270000Y-59429775D03*
%TD*%
D12*
%TO.C,R1*%
X147000000Y-59369775D03*
X147000000Y-66989775D03*
%TD*%
%TO.C,R2*%
X145500000Y-52500000D03*
X137880000Y-52500000D03*
%TD*%
%TO.C,R9*%
X134611021Y-111966097D03*
X134611021Y-119586097D03*
%TD*%
%TO.C,R10*%
X138661021Y-111966097D03*
X138661021Y-119586097D03*
%TD*%
%TO.C,R12*%
X146761021Y-119586097D03*
X146761021Y-111966097D03*
%TD*%
%TO.C,U2*%
X128720000Y-76380000D03*
X131260000Y-76380000D03*
X133800000Y-76380000D03*
X136340000Y-76380000D03*
X138880000Y-76380000D03*
X141420000Y-76380000D03*
X143960000Y-76380000D03*
X146500000Y-76380000D03*
X146500000Y-84000000D03*
X143960000Y-84000000D03*
X141420000Y-84000000D03*
X138880000Y-84000000D03*
X136340000Y-84000000D03*
X133800000Y-84000000D03*
X131260000Y-84000000D03*
D14*
X128720000Y-84000000D03*
%TD*%
D15*
%TO.P,D2,1,K_1*%
%TO.N,GND*%
X130970000Y-106350000D03*
D16*
%TO.P,D2,2,A_2*%
%TO.N,Net-(D2-A)*%
X130970000Y-103810000D03*
%TD*%
%TO.P,D9,2,A_2*%
%TO.N,Net-(D9-A)*%
X146410000Y-125500000D03*
D15*
%TO.P,D9,1,K_1*%
%TO.N,GND*%
X146410000Y-128040000D03*
%TD*%
D16*
%TO.P,D7,2,A_2*%
%TO.N,Net-(D7-A)*%
X131470000Y-125500000D03*
D15*
%TO.P,D7,1,K_1*%
%TO.N,GND*%
X131470000Y-128040000D03*
%TD*%
D17*
%TO.P,C1,1*%
%TO.N,GND*%
X126500000Y-65500000D03*
%TO.P,C1,2*%
%TO.N,Net-(U1-CONT)*%
X126500000Y-60500000D03*
%TD*%
D15*
%TO.P,D4,1,K_1*%
%TO.N,GND*%
X145910000Y-106350000D03*
D16*
%TO.P,D4,2,A_2*%
%TO.N,Net-(D4-A)*%
X145910000Y-103810000D03*
%TD*%
D15*
%TO.P,D5,1,K_1*%
%TO.N,GND*%
X153380000Y-106350000D03*
D16*
%TO.P,D5,2,A_2*%
%TO.N,Net-(D5-A)*%
X153380000Y-103810000D03*
%TD*%
D15*
%TO.P,D1,1,K_1*%
%TO.N,GND*%
X123500000Y-106350000D03*
D16*
%TO.P,D1,2,A_2*%
%TO.N,Net-(D1-A)*%
X123500000Y-103810000D03*
%TD*%
D15*
%TO.P,D8,1,K_1*%
%TO.N,GND*%
X138940000Y-128040000D03*
D16*
%TO.P,D8,2,A_2*%
%TO.N,Net-(D8-A)*%
X138940000Y-125500000D03*
%TD*%
D17*
%TO.P,C2,2*%
%TO.N,GND*%
X131990000Y-52300225D03*
D18*
%TO.P,C2,1*%
%TO.N,Net-(U1-THRES)*%
X129990000Y-52300225D03*
%TD*%
D16*
%TO.P,D6,2,A_2*%
%TO.N,Net-(D6-A)*%
X124000000Y-125500000D03*
D15*
%TO.P,D6,1,K_1*%
%TO.N,GND*%
X124000000Y-128040000D03*
%TD*%
%TO.P,D3,1,K_1*%
%TO.N,GND*%
X138440000Y-106350000D03*
D16*
%TO.P,D3,2,A_2*%
%TO.N,Net-(D3-A)*%
X138440000Y-103810000D03*
%TD*%
%TO.P,D10,2,A_2*%
%TO.N,Net-(D10-A)*%
X153880000Y-125500000D03*
D15*
%TO.P,D10,1,K_1*%
%TO.N,GND*%
X153880000Y-128040000D03*
%TD*%
D17*
%TO.P,R6,1*%
%TO.N,Net-(U2-Q3)*%
X141800000Y-97310000D03*
%TO.P,R6,2*%
%TO.N,Net-(D4-A)*%
X141800000Y-89690000D03*
%TD*%
%TO.P,R11,2*%
%TO.N,Net-(D9-A)*%
X142711021Y-111966097D03*
%TO.P,R11,1*%
%TO.N,Net-(U2-Q8)*%
X142711021Y-119586097D03*
%TD*%
%TO.P,R3,1*%
%TO.N,Net-(U2-Q0)*%
X129650000Y-97310000D03*
%TO.P,R3,2*%
%TO.N,Net-(D1-A)*%
X129650000Y-89690000D03*
%TD*%
%TO.P,R7,1*%
%TO.N,Net-(U2-Q4)*%
X145850000Y-97310000D03*
%TO.P,R7,2*%
%TO.N,Net-(D5-A)*%
X145850000Y-89690000D03*
%TD*%
%TO.P,R8,2*%
%TO.N,Net-(D6-A)*%
X130561021Y-111966097D03*
%TO.P,R8,1*%
%TO.N,Net-(U2-Q5)*%
X130561021Y-119586097D03*
%TD*%
%TO.P,R5,1*%
%TO.N,Net-(U2-Q2)*%
X137750000Y-97310000D03*
%TO.P,R5,2*%
%TO.N,Net-(D3-A)*%
X137750000Y-89690000D03*
%TD*%
%TO.P,R4,1*%
%TO.N,Net-(U2-Q1)*%
X133700000Y-97310000D03*
%TO.P,R4,2*%
%TO.N,Net-(D2-A)*%
X133700000Y-89690000D03*
%TD*%
%TO.P,U1,8,VCC_8*%
%TO.N,VCC*%
X140890000Y-59429775D03*
%TO.P,U1,7,DISCH_7*%
%TO.N,Net-(U1-DISCH)*%
X140890000Y-61969775D03*
%TO.P,U1,6,THRES_6*%
%TO.N,Net-(U1-THRES)*%
X140890000Y-64509775D03*
%TO.P,U1,5,CONT_5*%
%TO.N,Net-(U1-CONT)*%
X140890000Y-67049775D03*
%TO.P,U1,4,~{RST}_4*%
%TO.N,VCC*%
X133270000Y-67049775D03*
%TO.P,U1,3,OUT_3*%
%TO.N,Net-(U1-OUT)*%
X133270000Y-64509775D03*
%TO.P,U1,2,TRIG_2*%
%TO.N,Net-(U1-THRES)*%
X133270000Y-61969775D03*
D18*
%TO.P,U1,1,GND_1*%
%TO.N,GND*%
X133270000Y-59429775D03*
%TD*%
D17*
%TO.P,R1,1*%
%TO.N,VCC*%
X147000000Y-59369775D03*
%TO.P,R1,2*%
%TO.N,Net-(U1-DISCH)*%
X147000000Y-66989775D03*
%TD*%
%TO.P,R2,1*%
%TO.N,Net-(U1-DISCH)*%
X145500000Y-52500000D03*
%TO.P,R2,2*%
%TO.N,Net-(U1-THRES)*%
X137880000Y-52500000D03*
%TD*%
%TO.P,R9,2*%
%TO.N,Net-(D7-A)*%
X134611021Y-111966097D03*
%TO.P,R9,1*%
%TO.N,Net-(U2-Q6)*%
X134611021Y-119586097D03*
%TD*%
%TO.P,R10,2*%
%TO.N,Net-(D8-A)*%
X138661021Y-111966097D03*
%TO.P,R10,1*%
%TO.N,Net-(U2-Q7)*%
X138661021Y-119586097D03*
%TD*%
%TO.P,R12,1*%
%TO.N,Net-(U2-Q9)*%
X146761021Y-119586097D03*
%TO.P,R12,2*%
%TO.N,Net-(D10-A)*%
X146761021Y-111966097D03*
%TD*%
%TO.P,U2,16,VDD_16*%
%TO.N,VCC*%
X128720000Y-76380000D03*
%TO.P,U2,15,Reset_15*%
%TO.N,GND*%
X131260000Y-76380000D03*
%TO.P,U2,14,CLK_14*%
%TO.N,Net-(U1-OUT)*%
X133800000Y-76380000D03*
%TO.P,U2,13,CKEN_13*%
%TO.N,GND*%
X136340000Y-76380000D03*
%TO.P,U2,12,Cout_12*%
%TO.N,unconnected-(U2-Cout-Pad12)*%
X138880000Y-76380000D03*
%TO.P,U2,11,Q9_11*%
%TO.N,Net-(U2-Q9)*%
X141420000Y-76380000D03*
%TO.P,U2,10,Q4_10*%
%TO.N,Net-(U2-Q4)*%
X143960000Y-76380000D03*
%TO.P,U2,9,Q8_9*%
%TO.N,Net-(U2-Q8)*%
X146500000Y-76380000D03*
%TO.P,U2,8,VSS_8*%
%TO.N,GND*%
X146500000Y-84000000D03*
%TO.P,U2,7,Q3_7*%
%TO.N,Net-(U2-Q3)*%
X143960000Y-84000000D03*
%TO.P,U2,6,Q7_6*%
%TO.N,Net-(U2-Q7)*%
X141420000Y-84000000D03*
%TO.P,U2,5,Q6_5*%
%TO.N,Net-(U2-Q6)*%
X138880000Y-84000000D03*
%TO.P,U2,4,Q2_4*%
%TO.N,Net-(U2-Q2)*%
X136340000Y-84000000D03*
%TO.P,U2,3,Q0_3*%
%TO.N,Net-(U2-Q0)*%
X133800000Y-84000000D03*
%TO.P,U2,2,Q1_2*%
%TO.N,Net-(U2-Q1)*%
X131260000Y-84000000D03*
D19*
%TO.P,U2,1,Q5_1*%
%TO.N,Net-(U2-Q5)*%
X128720000Y-84000000D03*
%TD*%
%TO.N,Net-(D2-A)*%
D20*
X132000000Y-102780000D02*
X130970000Y-103810000D01*
X133700000Y-89690000D02*
X132190000Y-89690000D01*
X132000000Y-89500000D02*
X132000000Y-102780000D01*
X132190000Y-89690000D02*
X132000000Y-89500000D01*
%TO.N,GND*%
X126500000Y-65500000D02*
X125400000Y-64400000D01*
X125400000Y-64400000D02*
X125400000Y-58890225D01*
X125400000Y-58890225D02*
X131990000Y-52300225D01*
X153380000Y-106350000D02*
X145910000Y-106350000D01*
%TO.N,Net-(D5-A)*%
X153380000Y-90380000D02*
X153380000Y-103810000D01*
X145850000Y-89690000D02*
X152690000Y-89690000D01*
X152690000Y-89690000D02*
X153380000Y-90380000D01*
%TO.N,Net-(U2-Q5)*%
X128720000Y-84000000D02*
X108000000Y-84000000D01*
X108000000Y-84000000D02*
X108000000Y-120000000D01*
X108413903Y-119586097D02*
X130561021Y-119586097D01*
X108000000Y-120000000D02*
X108413903Y-119586097D01*
%TO.N,Net-(D9-A)*%
X144466097Y-111966097D02*
X144500000Y-112000000D01*
%TO.N,Net-(D7-A)*%
X134611021Y-111966097D02*
X132533903Y-111966097D01*
X132533903Y-111966097D02*
X132500000Y-112000000D01*
X132500000Y-112000000D02*
X132500000Y-124470000D01*
%TO.N,Net-(D8-A)*%
X141000000Y-112000000D02*
X141000000Y-123440000D01*
X140966097Y-111966097D02*
X141000000Y-112000000D01*
%TO.N,Net-(D1-A)*%
X125310000Y-89690000D02*
X129650000Y-89690000D01*
%TO.N,GND*%
X130970000Y-106350000D02*
X138440000Y-106350000D01*
%TO.N,Net-(D9-A)*%
X144500000Y-112000000D02*
X144500000Y-123590000D01*
%TO.N,GND*%
X138940000Y-128040000D02*
X146410000Y-128040000D01*
%TO.N,Net-(D7-A)*%
X132500000Y-124470000D02*
X131470000Y-125500000D01*
%TO.N,Net-(D10-A)*%
X154466097Y-111966097D02*
X154500000Y-112000000D01*
%TO.N,Net-(D1-A)*%
X123500000Y-103810000D02*
X123500000Y-90000000D01*
%TO.N,Net-(D10-A)*%
X146761021Y-111966097D02*
X154466097Y-111966097D01*
%TO.N,Net-(D9-A)*%
X142711021Y-111966097D02*
X144466097Y-111966097D01*
%TO.N,Net-(D6-A)*%
X130561021Y-111966097D02*
X131661021Y-113066097D01*
%TO.N,Net-(D10-A)*%
X154500000Y-112000000D02*
X153880000Y-112620000D01*
%TO.N,Net-(D9-A)*%
X144500000Y-123590000D02*
X146410000Y-125500000D01*
%TO.N,Net-(D6-A)*%
X131661021Y-120041732D02*
X126202753Y-125500000D01*
%TO.N,Net-(D10-A)*%
X153880000Y-112620000D02*
X153880000Y-125500000D01*
%TO.N,GND*%
X131470000Y-128040000D02*
X138940000Y-128040000D01*
%TO.N,Net-(D6-A)*%
X126202753Y-125500000D02*
X124000000Y-125500000D01*
X131661021Y-113066097D02*
X131661021Y-120041732D01*
%TO.N,Net-(D1-A)*%
X125000000Y-90000000D02*
X125310000Y-89690000D01*
X123500000Y-90000000D02*
X125000000Y-90000000D01*
%TO.N,Net-(D8-A)*%
X138661021Y-111966097D02*
X140966097Y-111966097D01*
X141000000Y-123440000D02*
X138940000Y-125500000D01*
%TO.N,GND*%
X123500000Y-106350000D02*
X130970000Y-106350000D01*
X163350000Y-106350000D02*
X164500000Y-107500000D01*
X164500000Y-107500000D02*
X164500000Y-128000000D01*
X138440000Y-106350000D02*
X145910000Y-106350000D01*
X153380000Y-106350000D02*
X157000000Y-106350000D01*
X164500000Y-128000000D02*
X164460000Y-128040000D01*
X146410000Y-128040000D02*
X153880000Y-128040000D01*
X164460000Y-128040000D02*
X153880000Y-128040000D01*
X124000000Y-128040000D02*
X131470000Y-128040000D01*
%TO.N,Net-(U1-DISCH)*%
X145500000Y-52500000D02*
X145000000Y-53000000D01*
%TO.N,Net-(U1-OUT)*%
X133270000Y-64509775D02*
X135500000Y-66739775D01*
X135500000Y-74680000D02*
X133800000Y-76380000D01*
%TO.N,VCC*%
X147000000Y-59369775D02*
X145000000Y-59369775D01*
%TO.N,GND*%
X136340000Y-76380000D02*
X135240000Y-77480000D01*
%TO.N,Net-(U1-DISCH)*%
X139500000Y-54000000D02*
X139500000Y-60579775D01*
%TO.N,VCC*%
X145000000Y-59369775D02*
X140950000Y-59369775D01*
X140950000Y-59369775D02*
X140890000Y-59429775D01*
%TO.N,Net-(U1-OUT)*%
X135500000Y-66739775D02*
X135500000Y-74680000D01*
%TO.N,GND*%
X133270000Y-59429775D02*
X133240225Y-59400000D01*
X131990000Y-53490000D02*
X134000000Y-55500000D01*
X133270000Y-56230000D02*
X133270000Y-59429775D01*
%TO.N,Net-(U1-CONT)*%
X137250000Y-63409775D02*
X140890000Y-67049775D01*
%TO.N,Net-(U1-DISCH)*%
X145000000Y-54000000D02*
X139500000Y-54000000D01*
%TO.N,Net-(U1-CONT)*%
X126500000Y-60500000D02*
X129409775Y-63409775D01*
%TO.N,Net-(U1-THRES)*%
X138350000Y-61969775D02*
X140890000Y-64509775D01*
%TO.N,GND*%
X126500000Y-76500000D02*
X127500000Y-77500000D01*
%TO.N,Net-(U1-THRES)*%
X136580225Y-51200225D02*
X131090000Y-51200225D01*
%TO.N,Net-(U1-CONT)*%
X129409775Y-63409775D02*
X137250000Y-63409775D01*
%TO.N,Net-(U1-DISCH)*%
X140890000Y-61969775D02*
X141980000Y-61969775D01*
%TO.N,Net-(U1-THRES)*%
X137880000Y-52500000D02*
X136580225Y-51200225D01*
X137880000Y-52500000D02*
X137880000Y-61499775D01*
%TO.N,GND*%
X131990000Y-52300225D02*
X131990000Y-53490000D01*
X135240000Y-77480000D02*
X132360000Y-77480000D01*
%TO.N,Net-(U1-THRES)*%
X137880000Y-61499775D02*
X138350000Y-61969775D01*
X131090000Y-51200225D02*
X129990000Y-52300225D01*
%TO.N,GND*%
X127500000Y-77500000D02*
X130140000Y-77500000D01*
X132360000Y-77480000D02*
X131260000Y-76380000D01*
%TO.N,Net-(U1-DISCH)*%
X145000000Y-53000000D02*
X145000000Y-54000000D01*
%TO.N,Net-(U1-THRES)*%
X133270000Y-61969775D02*
X138350000Y-61969775D01*
%TO.N,Net-(U1-DISCH)*%
X141980000Y-61969775D02*
X147000000Y-66989775D01*
%TO.N,GND*%
X134000000Y-55500000D02*
X133270000Y-56230000D01*
%TO.N,Net-(U1-DISCH)*%
X139500000Y-60579775D02*
X140890000Y-61969775D01*
%TO.N,GND*%
X130140000Y-77500000D02*
X131260000Y-76380000D01*
X126500000Y-65500000D02*
X126500000Y-76500000D01*
%TO.N,Net-(D4-A)*%
X140700000Y-90790000D02*
X141800000Y-89690000D01*
X145910000Y-103810000D02*
X140700000Y-98600000D01*
X140700000Y-98600000D02*
X140700000Y-90790000D01*
%TO.N,VCC*%
X128720000Y-72000000D02*
X128720000Y-76380000D01*
X133270000Y-67049775D02*
X133270000Y-67450000D01*
X133270000Y-67450000D02*
X128720000Y-72000000D01*
%TO.N,Net-(U2-Q1)*%
X134800000Y-96210000D02*
X133700000Y-97310000D01*
%TO.N,Net-(U2-Q0)*%
X135200000Y-85400000D02*
X135200000Y-101277057D01*
%TO.N,GND*%
X152000000Y-78000000D02*
X152000000Y-78500000D01*
%TO.N,Net-(U2-Q0)*%
X129650000Y-104187057D02*
X129650000Y-97310000D01*
%TO.N,GND*%
X152000000Y-78500000D02*
X146500000Y-84000000D01*
X149280000Y-75280000D02*
X152000000Y-78000000D01*
X157000000Y-106350000D02*
X163350000Y-106350000D01*
%TO.N,Net-(U2-Q9)*%
X146761021Y-113695335D02*
X142065686Y-109000000D01*
X119000000Y-109000000D02*
X119000000Y-85800000D01*
X130160000Y-84444744D02*
X130160000Y-80840000D01*
%TO.N,Net-(U2-Q2)*%
X136340000Y-97160000D02*
X136190000Y-97310000D01*
X136190000Y-97310000D02*
X137750000Y-97310000D01*
%TO.N,Net-(U2-Q0)*%
X130472943Y-105010000D02*
X129650000Y-104187057D01*
X135200000Y-101277057D02*
X131467057Y-105010000D01*
%TO.N,Net-(U2-Q9)*%
X139920000Y-77880000D02*
X141420000Y-76380000D01*
%TO.N,Net-(U2-Q0)*%
X133800000Y-84000000D02*
X135200000Y-85400000D01*
%TO.N,GND*%
X136340000Y-76380000D02*
X137440000Y-75280000D01*
X137440000Y-75280000D02*
X149280000Y-75280000D01*
%TO.N,Net-(U2-Q1)*%
X134800000Y-87540000D02*
X134800000Y-96210000D01*
%TO.N,Net-(U2-Q9)*%
X142065686Y-109000000D02*
X119000000Y-109000000D01*
%TO.N,GND*%
X146500000Y-84000000D02*
X157000000Y-84000000D01*
%TO.N,Net-(U2-Q1)*%
X131260000Y-84000000D02*
X134800000Y-87540000D01*
%TO.N,Net-(U2-Q9)*%
X128804744Y-85800000D02*
X130160000Y-84444744D01*
X133120000Y-77880000D02*
X139920000Y-77880000D01*
%TO.N,Net-(U2-Q2)*%
X136340000Y-84000000D02*
X136340000Y-97160000D01*
%TO.N,Net-(U2-Q0)*%
X131467057Y-105010000D02*
X130472943Y-105010000D01*
%TO.N,GND*%
X157000000Y-84000000D02*
X157000000Y-106350000D01*
%TO.N,Net-(U2-Q9)*%
X119000000Y-85800000D02*
X128804744Y-85800000D01*
X146761021Y-119586097D02*
X146761021Y-113695335D01*
X130160000Y-80840000D02*
X133120000Y-77880000D01*
%TO.N,Net-(D3-A)*%
X139340000Y-91280000D02*
X137750000Y-89690000D01*
X138440000Y-103810000D02*
X139340000Y-102910000D01*
%TO.N,Net-(U2-Q3)*%
X143960000Y-95150000D02*
X141800000Y-97310000D01*
X143960000Y-84000000D02*
X143960000Y-95150000D01*
%TO.N,Net-(D3-A)*%
X139340000Y-102910000D02*
X139340000Y-91280000D01*
%TO.N,Net-(U2-Q4)*%
X143960000Y-76380000D02*
X145060000Y-77480000D01*
X145060000Y-77480000D02*
X145060000Y-88924365D01*
X144750000Y-89234365D02*
X144750000Y-96210000D01*
X144750000Y-96210000D02*
X145850000Y-97310000D01*
X145060000Y-88924365D02*
X144750000Y-89234365D01*
%TO.N,VCC*%
X149000000Y-57500000D02*
X146869775Y-57500000D01*
X146869775Y-57500000D02*
X145000000Y-59369775D01*
X149000000Y-68000000D02*
X149000000Y-57500000D01*
%TD*%
D21*
X127464819Y-105818094D02*
X126464819Y-105818094D01*
X126464819Y-105818094D02*
X126464819Y-105579999D01*
X126464819Y-105579999D02*
X126512438Y-105437142D01*
X126512438Y-105437142D02*
X126607676Y-105341904D01*
X126607676Y-105341904D02*
X126702914Y-105294285D01*
X126702914Y-105294285D02*
X126893390Y-105246666D01*
X126893390Y-105246666D02*
X127036247Y-105246666D01*
X127036247Y-105246666D02*
X127226723Y-105294285D01*
X127226723Y-105294285D02*
X127321961Y-105341904D01*
X127321961Y-105341904D02*
X127417200Y-105437142D01*
X127417200Y-105437142D02*
X127464819Y-105579999D01*
X127464819Y-105579999D02*
X127464819Y-105818094D01*
X126560057Y-104865713D02*
X126512438Y-104818094D01*
X126512438Y-104818094D02*
X126464819Y-104722856D01*
X126464819Y-104722856D02*
X126464819Y-104484761D01*
X126464819Y-104484761D02*
X126512438Y-104389523D01*
X126512438Y-104389523D02*
X126560057Y-104341904D01*
X126560057Y-104341904D02*
X126655295Y-104294285D01*
X126655295Y-104294285D02*
X126750533Y-104294285D01*
X126750533Y-104294285D02*
X126893390Y-104341904D01*
X126893390Y-104341904D02*
X127464819Y-104913332D01*
X127464819Y-104913332D02*
X127464819Y-104294285D01*
X142904819Y-127508094D02*
X141904819Y-127508094D01*
X141904819Y-127508094D02*
X141904819Y-127269999D01*
X141904819Y-127269999D02*
X141952438Y-127127142D01*
X141952438Y-127127142D02*
X142047676Y-127031904D01*
X142047676Y-127031904D02*
X142142914Y-126984285D01*
X142142914Y-126984285D02*
X142333390Y-126936666D01*
X142333390Y-126936666D02*
X142476247Y-126936666D01*
X142476247Y-126936666D02*
X142666723Y-126984285D01*
X142666723Y-126984285D02*
X142761961Y-127031904D01*
X142761961Y-127031904D02*
X142857200Y-127127142D01*
X142857200Y-127127142D02*
X142904819Y-127269999D01*
X142904819Y-127269999D02*
X142904819Y-127508094D01*
X142904819Y-126460475D02*
X142904819Y-126269999D01*
X142904819Y-126269999D02*
X142857200Y-126174761D01*
X142857200Y-126174761D02*
X142809580Y-126127142D01*
X142809580Y-126127142D02*
X142666723Y-126031904D01*
X142666723Y-126031904D02*
X142476247Y-125984285D01*
X142476247Y-125984285D02*
X142095295Y-125984285D01*
X142095295Y-125984285D02*
X142000057Y-126031904D01*
X142000057Y-126031904D02*
X141952438Y-126079523D01*
X141952438Y-126079523D02*
X141904819Y-126174761D01*
X141904819Y-126174761D02*
X141904819Y-126365237D01*
X141904819Y-126365237D02*
X141952438Y-126460475D01*
X141952438Y-126460475D02*
X142000057Y-126508094D01*
X142000057Y-126508094D02*
X142095295Y-126555713D01*
X142095295Y-126555713D02*
X142333390Y-126555713D01*
X142333390Y-126555713D02*
X142428628Y-126508094D01*
X142428628Y-126508094D02*
X142476247Y-126460475D01*
X142476247Y-126460475D02*
X142523866Y-126365237D01*
X142523866Y-126365237D02*
X142523866Y-126174761D01*
X142523866Y-126174761D02*
X142476247Y-126079523D01*
X142476247Y-126079523D02*
X142428628Y-126031904D01*
X142428628Y-126031904D02*
X142333390Y-125984285D01*
X127964819Y-127508094D02*
X126964819Y-127508094D01*
X126964819Y-127508094D02*
X126964819Y-127269999D01*
X126964819Y-127269999D02*
X127012438Y-127127142D01*
X127012438Y-127127142D02*
X127107676Y-127031904D01*
X127107676Y-127031904D02*
X127202914Y-126984285D01*
X127202914Y-126984285D02*
X127393390Y-126936666D01*
X127393390Y-126936666D02*
X127536247Y-126936666D01*
X127536247Y-126936666D02*
X127726723Y-126984285D01*
X127726723Y-126984285D02*
X127821961Y-127031904D01*
X127821961Y-127031904D02*
X127917200Y-127127142D01*
X127917200Y-127127142D02*
X127964819Y-127269999D01*
X127964819Y-127269999D02*
X127964819Y-127508094D01*
X126964819Y-126603332D02*
X126964819Y-125936666D01*
X126964819Y-125936666D02*
X127964819Y-126365237D01*
X124359580Y-63166666D02*
X124407200Y-63214285D01*
X124407200Y-63214285D02*
X124454819Y-63357142D01*
X124454819Y-63357142D02*
X124454819Y-63452380D01*
X124454819Y-63452380D02*
X124407200Y-63595237D01*
X124407200Y-63595237D02*
X124311961Y-63690475D01*
X124311961Y-63690475D02*
X124216723Y-63738094D01*
X124216723Y-63738094D02*
X124026247Y-63785713D01*
X124026247Y-63785713D02*
X123883390Y-63785713D01*
X123883390Y-63785713D02*
X123692914Y-63738094D01*
X123692914Y-63738094D02*
X123597676Y-63690475D01*
X123597676Y-63690475D02*
X123502438Y-63595237D01*
X123502438Y-63595237D02*
X123454819Y-63452380D01*
X123454819Y-63452380D02*
X123454819Y-63357142D01*
X123454819Y-63357142D02*
X123502438Y-63214285D01*
X123502438Y-63214285D02*
X123550057Y-63166666D01*
X124454819Y-62214285D02*
X124454819Y-62785713D01*
X124454819Y-62499999D02*
X123454819Y-62499999D01*
X123454819Y-62499999D02*
X123597676Y-62595237D01*
X123597676Y-62595237D02*
X123692914Y-62690475D01*
X123692914Y-62690475D02*
X123740533Y-62785713D01*
X142404819Y-105818094D02*
X141404819Y-105818094D01*
X141404819Y-105818094D02*
X141404819Y-105579999D01*
X141404819Y-105579999D02*
X141452438Y-105437142D01*
X141452438Y-105437142D02*
X141547676Y-105341904D01*
X141547676Y-105341904D02*
X141642914Y-105294285D01*
X141642914Y-105294285D02*
X141833390Y-105246666D01*
X141833390Y-105246666D02*
X141976247Y-105246666D01*
X141976247Y-105246666D02*
X142166723Y-105294285D01*
X142166723Y-105294285D02*
X142261961Y-105341904D01*
X142261961Y-105341904D02*
X142357200Y-105437142D01*
X142357200Y-105437142D02*
X142404819Y-105579999D01*
X142404819Y-105579999D02*
X142404819Y-105818094D01*
X141738152Y-104389523D02*
X142404819Y-104389523D01*
X141357200Y-104627618D02*
X142071485Y-104865713D01*
X142071485Y-104865713D02*
X142071485Y-104246666D01*
X149874819Y-105818094D02*
X148874819Y-105818094D01*
X148874819Y-105818094D02*
X148874819Y-105579999D01*
X148874819Y-105579999D02*
X148922438Y-105437142D01*
X148922438Y-105437142D02*
X149017676Y-105341904D01*
X149017676Y-105341904D02*
X149112914Y-105294285D01*
X149112914Y-105294285D02*
X149303390Y-105246666D01*
X149303390Y-105246666D02*
X149446247Y-105246666D01*
X149446247Y-105246666D02*
X149636723Y-105294285D01*
X149636723Y-105294285D02*
X149731961Y-105341904D01*
X149731961Y-105341904D02*
X149827200Y-105437142D01*
X149827200Y-105437142D02*
X149874819Y-105579999D01*
X149874819Y-105579999D02*
X149874819Y-105818094D01*
X148874819Y-104341904D02*
X148874819Y-104818094D01*
X148874819Y-104818094D02*
X149351009Y-104865713D01*
X149351009Y-104865713D02*
X149303390Y-104818094D01*
X149303390Y-104818094D02*
X149255771Y-104722856D01*
X149255771Y-104722856D02*
X149255771Y-104484761D01*
X149255771Y-104484761D02*
X149303390Y-104389523D01*
X149303390Y-104389523D02*
X149351009Y-104341904D01*
X149351009Y-104341904D02*
X149446247Y-104294285D01*
X149446247Y-104294285D02*
X149684342Y-104294285D01*
X149684342Y-104294285D02*
X149779580Y-104341904D01*
X149779580Y-104341904D02*
X149827200Y-104389523D01*
X149827200Y-104389523D02*
X149874819Y-104484761D01*
X149874819Y-104484761D02*
X149874819Y-104722856D01*
X149874819Y-104722856D02*
X149827200Y-104818094D01*
X149827200Y-104818094D02*
X149779580Y-104865713D01*
X119994819Y-105818094D02*
X118994819Y-105818094D01*
X118994819Y-105818094D02*
X118994819Y-105579999D01*
X118994819Y-105579999D02*
X119042438Y-105437142D01*
X119042438Y-105437142D02*
X119137676Y-105341904D01*
X119137676Y-105341904D02*
X119232914Y-105294285D01*
X119232914Y-105294285D02*
X119423390Y-105246666D01*
X119423390Y-105246666D02*
X119566247Y-105246666D01*
X119566247Y-105246666D02*
X119756723Y-105294285D01*
X119756723Y-105294285D02*
X119851961Y-105341904D01*
X119851961Y-105341904D02*
X119947200Y-105437142D01*
X119947200Y-105437142D02*
X119994819Y-105579999D01*
X119994819Y-105579999D02*
X119994819Y-105818094D01*
X119994819Y-104294285D02*
X119994819Y-104865713D01*
X119994819Y-104579999D02*
X118994819Y-104579999D01*
X118994819Y-104579999D02*
X119137676Y-104675237D01*
X119137676Y-104675237D02*
X119232914Y-104770475D01*
X119232914Y-104770475D02*
X119280533Y-104865713D01*
X135434819Y-127508094D02*
X134434819Y-127508094D01*
X134434819Y-127508094D02*
X134434819Y-127269999D01*
X134434819Y-127269999D02*
X134482438Y-127127142D01*
X134482438Y-127127142D02*
X134577676Y-127031904D01*
X134577676Y-127031904D02*
X134672914Y-126984285D01*
X134672914Y-126984285D02*
X134863390Y-126936666D01*
X134863390Y-126936666D02*
X135006247Y-126936666D01*
X135006247Y-126936666D02*
X135196723Y-126984285D01*
X135196723Y-126984285D02*
X135291961Y-127031904D01*
X135291961Y-127031904D02*
X135387200Y-127127142D01*
X135387200Y-127127142D02*
X135434819Y-127269999D01*
X135434819Y-127269999D02*
X135434819Y-127508094D01*
X134863390Y-126365237D02*
X134815771Y-126460475D01*
X134815771Y-126460475D02*
X134768152Y-126508094D01*
X134768152Y-126508094D02*
X134672914Y-126555713D01*
X134672914Y-126555713D02*
X134625295Y-126555713D01*
X134625295Y-126555713D02*
X134530057Y-126508094D01*
X134530057Y-126508094D02*
X134482438Y-126460475D01*
X134482438Y-126460475D02*
X134434819Y-126365237D01*
X134434819Y-126365237D02*
X134434819Y-126174761D01*
X134434819Y-126174761D02*
X134482438Y-126079523D01*
X134482438Y-126079523D02*
X134530057Y-126031904D01*
X134530057Y-126031904D02*
X134625295Y-125984285D01*
X134625295Y-125984285D02*
X134672914Y-125984285D01*
X134672914Y-125984285D02*
X134768152Y-126031904D01*
X134768152Y-126031904D02*
X134815771Y-126079523D01*
X134815771Y-126079523D02*
X134863390Y-126174761D01*
X134863390Y-126174761D02*
X134863390Y-126365237D01*
X134863390Y-126365237D02*
X134911009Y-126460475D01*
X134911009Y-126460475D02*
X134958628Y-126508094D01*
X134958628Y-126508094D02*
X135053866Y-126555713D01*
X135053866Y-126555713D02*
X135244342Y-126555713D01*
X135244342Y-126555713D02*
X135339580Y-126508094D01*
X135339580Y-126508094D02*
X135387200Y-126460475D01*
X135387200Y-126460475D02*
X135434819Y-126365237D01*
X135434819Y-126365237D02*
X135434819Y-126174761D01*
X135434819Y-126174761D02*
X135387200Y-126079523D01*
X135387200Y-126079523D02*
X135339580Y-126031904D01*
X135339580Y-126031904D02*
X135244342Y-125984285D01*
X135244342Y-125984285D02*
X135053866Y-125984285D01*
X135053866Y-125984285D02*
X134958628Y-126031904D01*
X134958628Y-126031904D02*
X134911009Y-126079523D01*
X134911009Y-126079523D02*
X134863390Y-126174761D01*
X130823333Y-48909805D02*
X130775714Y-48957425D01*
X130775714Y-48957425D02*
X130632857Y-49005044D01*
X130632857Y-49005044D02*
X130537619Y-49005044D01*
X130537619Y-49005044D02*
X130394762Y-48957425D01*
X130394762Y-48957425D02*
X130299524Y-48862186D01*
X130299524Y-48862186D02*
X130251905Y-48766948D01*
X130251905Y-48766948D02*
X130204286Y-48576472D01*
X130204286Y-48576472D02*
X130204286Y-48433615D01*
X130204286Y-48433615D02*
X130251905Y-48243139D01*
X130251905Y-48243139D02*
X130299524Y-48147901D01*
X130299524Y-48147901D02*
X130394762Y-48052663D01*
X130394762Y-48052663D02*
X130537619Y-48005044D01*
X130537619Y-48005044D02*
X130632857Y-48005044D01*
X130632857Y-48005044D02*
X130775714Y-48052663D01*
X130775714Y-48052663D02*
X130823333Y-48100282D01*
X131204286Y-48100282D02*
X131251905Y-48052663D01*
X131251905Y-48052663D02*
X131347143Y-48005044D01*
X131347143Y-48005044D02*
X131585238Y-48005044D01*
X131585238Y-48005044D02*
X131680476Y-48052663D01*
X131680476Y-48052663D02*
X131728095Y-48100282D01*
X131728095Y-48100282D02*
X131775714Y-48195520D01*
X131775714Y-48195520D02*
X131775714Y-48290758D01*
X131775714Y-48290758D02*
X131728095Y-48433615D01*
X131728095Y-48433615D02*
X131156667Y-49005044D01*
X131156667Y-49005044D02*
X131775714Y-49005044D01*
X120494819Y-127508094D02*
X119494819Y-127508094D01*
X119494819Y-127508094D02*
X119494819Y-127269999D01*
X119494819Y-127269999D02*
X119542438Y-127127142D01*
X119542438Y-127127142D02*
X119637676Y-127031904D01*
X119637676Y-127031904D02*
X119732914Y-126984285D01*
X119732914Y-126984285D02*
X119923390Y-126936666D01*
X119923390Y-126936666D02*
X120066247Y-126936666D01*
X120066247Y-126936666D02*
X120256723Y-126984285D01*
X120256723Y-126984285D02*
X120351961Y-127031904D01*
X120351961Y-127031904D02*
X120447200Y-127127142D01*
X120447200Y-127127142D02*
X120494819Y-127269999D01*
X120494819Y-127269999D02*
X120494819Y-127508094D01*
X119494819Y-126079523D02*
X119494819Y-126269999D01*
X119494819Y-126269999D02*
X119542438Y-126365237D01*
X119542438Y-126365237D02*
X119590057Y-126412856D01*
X119590057Y-126412856D02*
X119732914Y-126508094D01*
X119732914Y-126508094D02*
X119923390Y-126555713D01*
X119923390Y-126555713D02*
X120304342Y-126555713D01*
X120304342Y-126555713D02*
X120399580Y-126508094D01*
X120399580Y-126508094D02*
X120447200Y-126460475D01*
X120447200Y-126460475D02*
X120494819Y-126365237D01*
X120494819Y-126365237D02*
X120494819Y-126174761D01*
X120494819Y-126174761D02*
X120447200Y-126079523D01*
X120447200Y-126079523D02*
X120399580Y-126031904D01*
X120399580Y-126031904D02*
X120304342Y-125984285D01*
X120304342Y-125984285D02*
X120066247Y-125984285D01*
X120066247Y-125984285D02*
X119971009Y-126031904D01*
X119971009Y-126031904D02*
X119923390Y-126079523D01*
X119923390Y-126079523D02*
X119875771Y-126174761D01*
X119875771Y-126174761D02*
X119875771Y-126365237D01*
X119875771Y-126365237D02*
X119923390Y-126460475D01*
X119923390Y-126460475D02*
X119971009Y-126508094D01*
X119971009Y-126508094D02*
X120066247Y-126555713D01*
X134934819Y-105818094D02*
X133934819Y-105818094D01*
X133934819Y-105818094D02*
X133934819Y-105579999D01*
X133934819Y-105579999D02*
X133982438Y-105437142D01*
X133982438Y-105437142D02*
X134077676Y-105341904D01*
X134077676Y-105341904D02*
X134172914Y-105294285D01*
X134172914Y-105294285D02*
X134363390Y-105246666D01*
X134363390Y-105246666D02*
X134506247Y-105246666D01*
X134506247Y-105246666D02*
X134696723Y-105294285D01*
X134696723Y-105294285D02*
X134791961Y-105341904D01*
X134791961Y-105341904D02*
X134887200Y-105437142D01*
X134887200Y-105437142D02*
X134934819Y-105579999D01*
X134934819Y-105579999D02*
X134934819Y-105818094D01*
X133934819Y-104913332D02*
X133934819Y-104294285D01*
X133934819Y-104294285D02*
X134315771Y-104627618D01*
X134315771Y-104627618D02*
X134315771Y-104484761D01*
X134315771Y-104484761D02*
X134363390Y-104389523D01*
X134363390Y-104389523D02*
X134411009Y-104341904D01*
X134411009Y-104341904D02*
X134506247Y-104294285D01*
X134506247Y-104294285D02*
X134744342Y-104294285D01*
X134744342Y-104294285D02*
X134839580Y-104341904D01*
X134839580Y-104341904D02*
X134887200Y-104389523D01*
X134887200Y-104389523D02*
X134934819Y-104484761D01*
X134934819Y-104484761D02*
X134934819Y-104770475D01*
X134934819Y-104770475D02*
X134887200Y-104865713D01*
X134887200Y-104865713D02*
X134839580Y-104913332D01*
X150374819Y-127984285D02*
X149374819Y-127984285D01*
X149374819Y-127984285D02*
X149374819Y-127746190D01*
X149374819Y-127746190D02*
X149422438Y-127603333D01*
X149422438Y-127603333D02*
X149517676Y-127508095D01*
X149517676Y-127508095D02*
X149612914Y-127460476D01*
X149612914Y-127460476D02*
X149803390Y-127412857D01*
X149803390Y-127412857D02*
X149946247Y-127412857D01*
X149946247Y-127412857D02*
X150136723Y-127460476D01*
X150136723Y-127460476D02*
X150231961Y-127508095D01*
X150231961Y-127508095D02*
X150327200Y-127603333D01*
X150327200Y-127603333D02*
X150374819Y-127746190D01*
X150374819Y-127746190D02*
X150374819Y-127984285D01*
X150374819Y-126460476D02*
X150374819Y-127031904D01*
X150374819Y-126746190D02*
X149374819Y-126746190D01*
X149374819Y-126746190D02*
X149517676Y-126841428D01*
X149517676Y-126841428D02*
X149612914Y-126936666D01*
X149612914Y-126936666D02*
X149660533Y-127031904D01*
X149374819Y-125841428D02*
X149374819Y-125746190D01*
X149374819Y-125746190D02*
X149422438Y-125650952D01*
X149422438Y-125650952D02*
X149470057Y-125603333D01*
X149470057Y-125603333D02*
X149565295Y-125555714D01*
X149565295Y-125555714D02*
X149755771Y-125508095D01*
X149755771Y-125508095D02*
X149993866Y-125508095D01*
X149993866Y-125508095D02*
X150184342Y-125555714D01*
X150184342Y-125555714D02*
X150279580Y-125603333D01*
X150279580Y-125603333D02*
X150327200Y-125650952D01*
X150327200Y-125650952D02*
X150374819Y-125746190D01*
X150374819Y-125746190D02*
X150374819Y-125841428D01*
X150374819Y-125841428D02*
X150327200Y-125936666D01*
X150327200Y-125936666D02*
X150279580Y-125984285D01*
X150279580Y-125984285D02*
X150184342Y-126031904D01*
X150184342Y-126031904D02*
X149993866Y-126079523D01*
X149993866Y-126079523D02*
X149755771Y-126079523D01*
X149755771Y-126079523D02*
X149565295Y-126031904D01*
X149565295Y-126031904D02*
X149470057Y-125984285D01*
X149470057Y-125984285D02*
X149422438Y-125936666D01*
X149422438Y-125936666D02*
X149374819Y-125841428D01*
X139884819Y-93666666D02*
X139408628Y-93999999D01*
X139884819Y-94238094D02*
X138884819Y-94238094D01*
X138884819Y-94238094D02*
X138884819Y-93857142D01*
X138884819Y-93857142D02*
X138932438Y-93761904D01*
X138932438Y-93761904D02*
X138980057Y-93714285D01*
X138980057Y-93714285D02*
X139075295Y-93666666D01*
X139075295Y-93666666D02*
X139218152Y-93666666D01*
X139218152Y-93666666D02*
X139313390Y-93714285D01*
X139313390Y-93714285D02*
X139361009Y-93761904D01*
X139361009Y-93761904D02*
X139408628Y-93857142D01*
X139408628Y-93857142D02*
X139408628Y-94238094D01*
X138884819Y-92809523D02*
X138884819Y-92999999D01*
X138884819Y-92999999D02*
X138932438Y-93095237D01*
X138932438Y-93095237D02*
X138980057Y-93142856D01*
X138980057Y-93142856D02*
X139122914Y-93238094D01*
X139122914Y-93238094D02*
X139313390Y-93285713D01*
X139313390Y-93285713D02*
X139694342Y-93285713D01*
X139694342Y-93285713D02*
X139789580Y-93238094D01*
X139789580Y-93238094D02*
X139837200Y-93190475D01*
X139837200Y-93190475D02*
X139884819Y-93095237D01*
X139884819Y-93095237D02*
X139884819Y-92904761D01*
X139884819Y-92904761D02*
X139837200Y-92809523D01*
X139837200Y-92809523D02*
X139789580Y-92761904D01*
X139789580Y-92761904D02*
X139694342Y-92714285D01*
X139694342Y-92714285D02*
X139456247Y-92714285D01*
X139456247Y-92714285D02*
X139361009Y-92761904D01*
X139361009Y-92761904D02*
X139313390Y-92809523D01*
X139313390Y-92809523D02*
X139265771Y-92904761D01*
X139265771Y-92904761D02*
X139265771Y-93095237D01*
X139265771Y-93095237D02*
X139313390Y-93190475D01*
X139313390Y-93190475D02*
X139361009Y-93238094D01*
X139361009Y-93238094D02*
X139456247Y-93285713D01*
X140795840Y-116418954D02*
X140319649Y-116752287D01*
X140795840Y-116990382D02*
X139795840Y-116990382D01*
X139795840Y-116990382D02*
X139795840Y-116609430D01*
X139795840Y-116609430D02*
X139843459Y-116514192D01*
X139843459Y-116514192D02*
X139891078Y-116466573D01*
X139891078Y-116466573D02*
X139986316Y-116418954D01*
X139986316Y-116418954D02*
X140129173Y-116418954D01*
X140129173Y-116418954D02*
X140224411Y-116466573D01*
X140224411Y-116466573D02*
X140272030Y-116514192D01*
X140272030Y-116514192D02*
X140319649Y-116609430D01*
X140319649Y-116609430D02*
X140319649Y-116990382D01*
X140795840Y-115466573D02*
X140795840Y-116038001D01*
X140795840Y-115752287D02*
X139795840Y-115752287D01*
X139795840Y-115752287D02*
X139938697Y-115847525D01*
X139938697Y-115847525D02*
X140033935Y-115942763D01*
X140033935Y-115942763D02*
X140081554Y-116038001D01*
X140795840Y-114514192D02*
X140795840Y-115085620D01*
X140795840Y-114799906D02*
X139795840Y-114799906D01*
X139795840Y-114799906D02*
X139938697Y-114895144D01*
X139938697Y-114895144D02*
X140033935Y-114990382D01*
X140033935Y-114990382D02*
X140081554Y-115085620D01*
X127734819Y-93666666D02*
X127258628Y-93999999D01*
X127734819Y-94238094D02*
X126734819Y-94238094D01*
X126734819Y-94238094D02*
X126734819Y-93857142D01*
X126734819Y-93857142D02*
X126782438Y-93761904D01*
X126782438Y-93761904D02*
X126830057Y-93714285D01*
X126830057Y-93714285D02*
X126925295Y-93666666D01*
X126925295Y-93666666D02*
X127068152Y-93666666D01*
X127068152Y-93666666D02*
X127163390Y-93714285D01*
X127163390Y-93714285D02*
X127211009Y-93761904D01*
X127211009Y-93761904D02*
X127258628Y-93857142D01*
X127258628Y-93857142D02*
X127258628Y-94238094D01*
X126734819Y-93333332D02*
X126734819Y-92714285D01*
X126734819Y-92714285D02*
X127115771Y-93047618D01*
X127115771Y-93047618D02*
X127115771Y-92904761D01*
X127115771Y-92904761D02*
X127163390Y-92809523D01*
X127163390Y-92809523D02*
X127211009Y-92761904D01*
X127211009Y-92761904D02*
X127306247Y-92714285D01*
X127306247Y-92714285D02*
X127544342Y-92714285D01*
X127544342Y-92714285D02*
X127639580Y-92761904D01*
X127639580Y-92761904D02*
X127687200Y-92809523D01*
X127687200Y-92809523D02*
X127734819Y-92904761D01*
X127734819Y-92904761D02*
X127734819Y-93190475D01*
X127734819Y-93190475D02*
X127687200Y-93285713D01*
X127687200Y-93285713D02*
X127639580Y-93333332D01*
X143934819Y-93666666D02*
X143458628Y-93999999D01*
X143934819Y-94238094D02*
X142934819Y-94238094D01*
X142934819Y-94238094D02*
X142934819Y-93857142D01*
X142934819Y-93857142D02*
X142982438Y-93761904D01*
X142982438Y-93761904D02*
X143030057Y-93714285D01*
X143030057Y-93714285D02*
X143125295Y-93666666D01*
X143125295Y-93666666D02*
X143268152Y-93666666D01*
X143268152Y-93666666D02*
X143363390Y-93714285D01*
X143363390Y-93714285D02*
X143411009Y-93761904D01*
X143411009Y-93761904D02*
X143458628Y-93857142D01*
X143458628Y-93857142D02*
X143458628Y-94238094D01*
X142934819Y-93333332D02*
X142934819Y-92666666D01*
X142934819Y-92666666D02*
X143934819Y-93095237D01*
X128645840Y-115942763D02*
X128169649Y-116276096D01*
X128645840Y-116514191D02*
X127645840Y-116514191D01*
X127645840Y-116514191D02*
X127645840Y-116133239D01*
X127645840Y-116133239D02*
X127693459Y-116038001D01*
X127693459Y-116038001D02*
X127741078Y-115990382D01*
X127741078Y-115990382D02*
X127836316Y-115942763D01*
X127836316Y-115942763D02*
X127979173Y-115942763D01*
X127979173Y-115942763D02*
X128074411Y-115990382D01*
X128074411Y-115990382D02*
X128122030Y-116038001D01*
X128122030Y-116038001D02*
X128169649Y-116133239D01*
X128169649Y-116133239D02*
X128169649Y-116514191D01*
X128074411Y-115371334D02*
X128026792Y-115466572D01*
X128026792Y-115466572D02*
X127979173Y-115514191D01*
X127979173Y-115514191D02*
X127883935Y-115561810D01*
X127883935Y-115561810D02*
X127836316Y-115561810D01*
X127836316Y-115561810D02*
X127741078Y-115514191D01*
X127741078Y-115514191D02*
X127693459Y-115466572D01*
X127693459Y-115466572D02*
X127645840Y-115371334D01*
X127645840Y-115371334D02*
X127645840Y-115180858D01*
X127645840Y-115180858D02*
X127693459Y-115085620D01*
X127693459Y-115085620D02*
X127741078Y-115038001D01*
X127741078Y-115038001D02*
X127836316Y-114990382D01*
X127836316Y-114990382D02*
X127883935Y-114990382D01*
X127883935Y-114990382D02*
X127979173Y-115038001D01*
X127979173Y-115038001D02*
X128026792Y-115085620D01*
X128026792Y-115085620D02*
X128074411Y-115180858D01*
X128074411Y-115180858D02*
X128074411Y-115371334D01*
X128074411Y-115371334D02*
X128122030Y-115466572D01*
X128122030Y-115466572D02*
X128169649Y-115514191D01*
X128169649Y-115514191D02*
X128264887Y-115561810D01*
X128264887Y-115561810D02*
X128455363Y-115561810D01*
X128455363Y-115561810D02*
X128550601Y-115514191D01*
X128550601Y-115514191D02*
X128598221Y-115466572D01*
X128598221Y-115466572D02*
X128645840Y-115371334D01*
X128645840Y-115371334D02*
X128645840Y-115180858D01*
X128645840Y-115180858D02*
X128598221Y-115085620D01*
X128598221Y-115085620D02*
X128550601Y-115038001D01*
X128550601Y-115038001D02*
X128455363Y-114990382D01*
X128455363Y-114990382D02*
X128264887Y-114990382D01*
X128264887Y-114990382D02*
X128169649Y-115038001D01*
X128169649Y-115038001D02*
X128122030Y-115085620D01*
X128122030Y-115085620D02*
X128074411Y-115180858D01*
X135834819Y-93666666D02*
X135358628Y-93999999D01*
X135834819Y-94238094D02*
X134834819Y-94238094D01*
X134834819Y-94238094D02*
X134834819Y-93857142D01*
X134834819Y-93857142D02*
X134882438Y-93761904D01*
X134882438Y-93761904D02*
X134930057Y-93714285D01*
X134930057Y-93714285D02*
X135025295Y-93666666D01*
X135025295Y-93666666D02*
X135168152Y-93666666D01*
X135168152Y-93666666D02*
X135263390Y-93714285D01*
X135263390Y-93714285D02*
X135311009Y-93761904D01*
X135311009Y-93761904D02*
X135358628Y-93857142D01*
X135358628Y-93857142D02*
X135358628Y-94238094D01*
X134834819Y-92761904D02*
X134834819Y-93238094D01*
X134834819Y-93238094D02*
X135311009Y-93285713D01*
X135311009Y-93285713D02*
X135263390Y-93238094D01*
X135263390Y-93238094D02*
X135215771Y-93142856D01*
X135215771Y-93142856D02*
X135215771Y-92904761D01*
X135215771Y-92904761D02*
X135263390Y-92809523D01*
X135263390Y-92809523D02*
X135311009Y-92761904D01*
X135311009Y-92761904D02*
X135406247Y-92714285D01*
X135406247Y-92714285D02*
X135644342Y-92714285D01*
X135644342Y-92714285D02*
X135739580Y-92761904D01*
X135739580Y-92761904D02*
X135787200Y-92809523D01*
X135787200Y-92809523D02*
X135834819Y-92904761D01*
X135834819Y-92904761D02*
X135834819Y-93142856D01*
X135834819Y-93142856D02*
X135787200Y-93238094D01*
X135787200Y-93238094D02*
X135739580Y-93285713D01*
X131784819Y-93666666D02*
X131308628Y-93999999D01*
X131784819Y-94238094D02*
X130784819Y-94238094D01*
X130784819Y-94238094D02*
X130784819Y-93857142D01*
X130784819Y-93857142D02*
X130832438Y-93761904D01*
X130832438Y-93761904D02*
X130880057Y-93714285D01*
X130880057Y-93714285D02*
X130975295Y-93666666D01*
X130975295Y-93666666D02*
X131118152Y-93666666D01*
X131118152Y-93666666D02*
X131213390Y-93714285D01*
X131213390Y-93714285D02*
X131261009Y-93761904D01*
X131261009Y-93761904D02*
X131308628Y-93857142D01*
X131308628Y-93857142D02*
X131308628Y-94238094D01*
X131118152Y-92809523D02*
X131784819Y-92809523D01*
X130737200Y-93047618D02*
X131451485Y-93285713D01*
X131451485Y-93285713D02*
X131451485Y-92666666D01*
X137318095Y-56554594D02*
X137318095Y-57364117D01*
X137318095Y-57364117D02*
X137365714Y-57459355D01*
X137365714Y-57459355D02*
X137413333Y-57506975D01*
X137413333Y-57506975D02*
X137508571Y-57554594D01*
X137508571Y-57554594D02*
X137699047Y-57554594D01*
X137699047Y-57554594D02*
X137794285Y-57506975D01*
X137794285Y-57506975D02*
X137841904Y-57459355D01*
X137841904Y-57459355D02*
X137889523Y-57364117D01*
X137889523Y-57364117D02*
X137889523Y-56554594D01*
X138889523Y-57554594D02*
X138318095Y-57554594D01*
X138603809Y-57554594D02*
X138603809Y-56554594D01*
X138603809Y-56554594D02*
X138508571Y-56697451D01*
X138508571Y-56697451D02*
X138413333Y-56792689D01*
X138413333Y-56792689D02*
X138318095Y-56840308D01*
X143943333Y-60494594D02*
X143610000Y-60018403D01*
X143371905Y-60494594D02*
X143371905Y-59494594D01*
X143371905Y-59494594D02*
X143752857Y-59494594D01*
X143752857Y-59494594D02*
X143848095Y-59542213D01*
X143848095Y-59542213D02*
X143895714Y-59589832D01*
X143895714Y-59589832D02*
X143943333Y-59685070D01*
X143943333Y-59685070D02*
X143943333Y-59827927D01*
X143943333Y-59827927D02*
X143895714Y-59923165D01*
X143895714Y-59923165D02*
X143848095Y-59970784D01*
X143848095Y-59970784D02*
X143752857Y-60018403D01*
X143752857Y-60018403D02*
X143371905Y-60018403D01*
X144895714Y-60494594D02*
X144324286Y-60494594D01*
X144610000Y-60494594D02*
X144610000Y-59494594D01*
X144610000Y-59494594D02*
X144514762Y-59637451D01*
X144514762Y-59637451D02*
X144419524Y-59732689D01*
X144419524Y-59732689D02*
X144324286Y-59780308D01*
X141523333Y-55824819D02*
X141190000Y-55348628D01*
X140951905Y-55824819D02*
X140951905Y-54824819D01*
X140951905Y-54824819D02*
X141332857Y-54824819D01*
X141332857Y-54824819D02*
X141428095Y-54872438D01*
X141428095Y-54872438D02*
X141475714Y-54920057D01*
X141475714Y-54920057D02*
X141523333Y-55015295D01*
X141523333Y-55015295D02*
X141523333Y-55158152D01*
X141523333Y-55158152D02*
X141475714Y-55253390D01*
X141475714Y-55253390D02*
X141428095Y-55301009D01*
X141428095Y-55301009D02*
X141332857Y-55348628D01*
X141332857Y-55348628D02*
X140951905Y-55348628D01*
X141904286Y-54920057D02*
X141951905Y-54872438D01*
X141951905Y-54872438D02*
X142047143Y-54824819D01*
X142047143Y-54824819D02*
X142285238Y-54824819D01*
X142285238Y-54824819D02*
X142380476Y-54872438D01*
X142380476Y-54872438D02*
X142428095Y-54920057D01*
X142428095Y-54920057D02*
X142475714Y-55015295D01*
X142475714Y-55015295D02*
X142475714Y-55110533D01*
X142475714Y-55110533D02*
X142428095Y-55253390D01*
X142428095Y-55253390D02*
X141856667Y-55824819D01*
X141856667Y-55824819D02*
X142475714Y-55824819D01*
X132695840Y-115942763D02*
X132219649Y-116276096D01*
X132695840Y-116514191D02*
X131695840Y-116514191D01*
X131695840Y-116514191D02*
X131695840Y-116133239D01*
X131695840Y-116133239D02*
X131743459Y-116038001D01*
X131743459Y-116038001D02*
X131791078Y-115990382D01*
X131791078Y-115990382D02*
X131886316Y-115942763D01*
X131886316Y-115942763D02*
X132029173Y-115942763D01*
X132029173Y-115942763D02*
X132124411Y-115990382D01*
X132124411Y-115990382D02*
X132172030Y-116038001D01*
X132172030Y-116038001D02*
X132219649Y-116133239D01*
X132219649Y-116133239D02*
X132219649Y-116514191D01*
X132695840Y-115466572D02*
X132695840Y-115276096D01*
X132695840Y-115276096D02*
X132648221Y-115180858D01*
X132648221Y-115180858D02*
X132600601Y-115133239D01*
X132600601Y-115133239D02*
X132457744Y-115038001D01*
X132457744Y-115038001D02*
X132267268Y-114990382D01*
X132267268Y-114990382D02*
X131886316Y-114990382D01*
X131886316Y-114990382D02*
X131791078Y-115038001D01*
X131791078Y-115038001D02*
X131743459Y-115085620D01*
X131743459Y-115085620D02*
X131695840Y-115180858D01*
X131695840Y-115180858D02*
X131695840Y-115371334D01*
X131695840Y-115371334D02*
X131743459Y-115466572D01*
X131743459Y-115466572D02*
X131791078Y-115514191D01*
X131791078Y-115514191D02*
X131886316Y-115561810D01*
X131886316Y-115561810D02*
X132124411Y-115561810D01*
X132124411Y-115561810D02*
X132219649Y-115514191D01*
X132219649Y-115514191D02*
X132267268Y-115466572D01*
X132267268Y-115466572D02*
X132314887Y-115371334D01*
X132314887Y-115371334D02*
X132314887Y-115180858D01*
X132314887Y-115180858D02*
X132267268Y-115085620D01*
X132267268Y-115085620D02*
X132219649Y-115038001D01*
X132219649Y-115038001D02*
X132124411Y-114990382D01*
X136745840Y-116418954D02*
X136269649Y-116752287D01*
X136745840Y-116990382D02*
X135745840Y-116990382D01*
X135745840Y-116990382D02*
X135745840Y-116609430D01*
X135745840Y-116609430D02*
X135793459Y-116514192D01*
X135793459Y-116514192D02*
X135841078Y-116466573D01*
X135841078Y-116466573D02*
X135936316Y-116418954D01*
X135936316Y-116418954D02*
X136079173Y-116418954D01*
X136079173Y-116418954D02*
X136174411Y-116466573D01*
X136174411Y-116466573D02*
X136222030Y-116514192D01*
X136222030Y-116514192D02*
X136269649Y-116609430D01*
X136269649Y-116609430D02*
X136269649Y-116990382D01*
X136745840Y-115466573D02*
X136745840Y-116038001D01*
X136745840Y-115752287D02*
X135745840Y-115752287D01*
X135745840Y-115752287D02*
X135888697Y-115847525D01*
X135888697Y-115847525D02*
X135983935Y-115942763D01*
X135983935Y-115942763D02*
X136031554Y-116038001D01*
X135745840Y-114847525D02*
X135745840Y-114752287D01*
X135745840Y-114752287D02*
X135793459Y-114657049D01*
X135793459Y-114657049D02*
X135841078Y-114609430D01*
X135841078Y-114609430D02*
X135936316Y-114561811D01*
X135936316Y-114561811D02*
X136126792Y-114514192D01*
X136126792Y-114514192D02*
X136364887Y-114514192D01*
X136364887Y-114514192D02*
X136555363Y-114561811D01*
X136555363Y-114561811D02*
X136650601Y-114609430D01*
X136650601Y-114609430D02*
X136698221Y-114657049D01*
X136698221Y-114657049D02*
X136745840Y-114752287D01*
X136745840Y-114752287D02*
X136745840Y-114847525D01*
X136745840Y-114847525D02*
X136698221Y-114942763D01*
X136698221Y-114942763D02*
X136650601Y-114990382D01*
X136650601Y-114990382D02*
X136555363Y-115038001D01*
X136555363Y-115038001D02*
X136364887Y-115085620D01*
X136364887Y-115085620D02*
X136126792Y-115085620D01*
X136126792Y-115085620D02*
X135936316Y-115038001D01*
X135936316Y-115038001D02*
X135841078Y-114990382D01*
X135841078Y-114990382D02*
X135793459Y-114942763D01*
X135793459Y-114942763D02*
X135745840Y-114847525D01*
X144845840Y-116418954D02*
X144369649Y-116752287D01*
X144845840Y-116990382D02*
X143845840Y-116990382D01*
X143845840Y-116990382D02*
X143845840Y-116609430D01*
X143845840Y-116609430D02*
X143893459Y-116514192D01*
X143893459Y-116514192D02*
X143941078Y-116466573D01*
X143941078Y-116466573D02*
X144036316Y-116418954D01*
X144036316Y-116418954D02*
X144179173Y-116418954D01*
X144179173Y-116418954D02*
X144274411Y-116466573D01*
X144274411Y-116466573D02*
X144322030Y-116514192D01*
X144322030Y-116514192D02*
X144369649Y-116609430D01*
X144369649Y-116609430D02*
X144369649Y-116990382D01*
X144845840Y-115466573D02*
X144845840Y-116038001D01*
X144845840Y-115752287D02*
X143845840Y-115752287D01*
X143845840Y-115752287D02*
X143988697Y-115847525D01*
X143988697Y-115847525D02*
X144083935Y-115942763D01*
X144083935Y-115942763D02*
X144131554Y-116038001D01*
X143941078Y-115085620D02*
X143893459Y-115038001D01*
X143893459Y-115038001D02*
X143845840Y-114942763D01*
X143845840Y-114942763D02*
X143845840Y-114704668D01*
X143845840Y-114704668D02*
X143893459Y-114609430D01*
X143893459Y-114609430D02*
X143941078Y-114561811D01*
X143941078Y-114561811D02*
X144036316Y-114514192D01*
X144036316Y-114514192D02*
X144131554Y-114514192D01*
X144131554Y-114514192D02*
X144274411Y-114561811D01*
X144274411Y-114561811D02*
X144845840Y-115133239D01*
X144845840Y-115133239D02*
X144845840Y-114514192D01*
X125844819Y-80951904D02*
X126654342Y-80951904D01*
X126654342Y-80951904D02*
X126749580Y-80904285D01*
X126749580Y-80904285D02*
X126797200Y-80856666D01*
X126797200Y-80856666D02*
X126844819Y-80761428D01*
X126844819Y-80761428D02*
X126844819Y-80570952D01*
X126844819Y-80570952D02*
X126797200Y-80475714D01*
X126797200Y-80475714D02*
X126749580Y-80428095D01*
X126749580Y-80428095D02*
X126654342Y-80380476D01*
X126654342Y-80380476D02*
X125844819Y-80380476D01*
X125940057Y-79951904D02*
X125892438Y-79904285D01*
X125892438Y-79904285D02*
X125844819Y-79809047D01*
X125844819Y-79809047D02*
X125844819Y-79570952D01*
X125844819Y-79570952D02*
X125892438Y-79475714D01*
X125892438Y-79475714D02*
X125940057Y-79428095D01*
X125940057Y-79428095D02*
X126035295Y-79380476D01*
X126035295Y-79380476D02*
X126130533Y-79380476D01*
X126130533Y-79380476D02*
X126273390Y-79428095D01*
X126273390Y-79428095D02*
X126844819Y-79999523D01*
X126844819Y-79999523D02*
X126844819Y-79380476D01*
%TO.C,D2*%
D22*
X129425000Y-107640000D02*
X132515000Y-107640000D01*
X129425170Y-107640000D02*
G75*
G02*
X130970000Y-102090000I1544830J2560000D01*
G01*
X130970000Y-102090000D02*
G75*
G02*
X132514830Y-107640000I0J-2990000D01*
G01*
X133470000Y-105080000D02*
G75*
G02*
X128470000Y-105080000I-2500000J0D01*
G01*
X128470000Y-105080000D02*
G75*
G02*
X133470000Y-105080000I2500000J0D01*
G01*
%TO.C,D9*%
X148910000Y-126770000D02*
G75*
G02*
X143910000Y-126770000I-2500000J0D01*
G01*
X143910000Y-126770000D02*
G75*
G02*
X148910000Y-126770000I2500000J0D01*
G01*
X146410000Y-123780000D02*
G75*
G02*
X147954830Y-129330000I0J-2990000D01*
G01*
X144865170Y-129330000D02*
G75*
G02*
X146410000Y-123780000I1544830J2560000D01*
G01*
X144865000Y-129330000D02*
X147955000Y-129330000D01*
%TO.C,D7*%
X133970000Y-126770000D02*
G75*
G02*
X128970000Y-126770000I-2500000J0D01*
G01*
X128970000Y-126770000D02*
G75*
G02*
X133970000Y-126770000I2500000J0D01*
G01*
X131470000Y-123780000D02*
G75*
G02*
X133014830Y-129330000I0J-2990000D01*
G01*
X129925170Y-129330000D02*
G75*
G02*
X131470000Y-123780000I1544830J2560000D01*
G01*
X129925000Y-129330000D02*
X133015000Y-129330000D01*
%TO.C,C1*%
X125130000Y-65620000D02*
X125130000Y-60380000D01*
X125467000Y-65620000D02*
X125130000Y-65620000D01*
X127870000Y-65620000D02*
X127533000Y-65620000D01*
X125130000Y-60380000D02*
X125467000Y-60380000D01*
X127533000Y-60380000D02*
X127870000Y-60380000D01*
X127870000Y-60380000D02*
X127870000Y-65620000D01*
%TO.C,D4*%
X144365000Y-107640000D02*
X147455000Y-107640000D01*
X144365170Y-107640000D02*
G75*
G02*
X145910000Y-102090000I1544830J2560000D01*
G01*
X145910000Y-102090000D02*
G75*
G02*
X147454830Y-107640000I0J-2990000D01*
G01*
X148410000Y-105080000D02*
G75*
G02*
X143410000Y-105080000I-2500000J0D01*
G01*
X143410000Y-105080000D02*
G75*
G02*
X148410000Y-105080000I2500000J0D01*
G01*
%TO.C,D5*%
X151835000Y-107640000D02*
X154925000Y-107640000D01*
X151835170Y-107640000D02*
G75*
G02*
X153380000Y-102090000I1544830J2560000D01*
G01*
X153380000Y-102090000D02*
G75*
G02*
X154924830Y-107640000I0J-2990000D01*
G01*
X155880000Y-105080000D02*
G75*
G02*
X150880000Y-105080000I-2500000J0D01*
G01*
X150880000Y-105080000D02*
G75*
G02*
X155880000Y-105080000I2500000J0D01*
G01*
%TO.C,D1*%
X121955000Y-107640000D02*
X125045000Y-107640000D01*
X121955170Y-107640000D02*
G75*
G02*
X123500000Y-102090000I1544830J2560000D01*
G01*
X123500000Y-102090000D02*
G75*
G02*
X125044830Y-107640000I0J-2990000D01*
G01*
X126000000Y-105080000D02*
G75*
G02*
X121000000Y-105080000I-2500000J0D01*
G01*
X121000000Y-105080000D02*
G75*
G02*
X126000000Y-105080000I2500000J0D01*
G01*
%TO.C,D8*%
X137395000Y-129330000D02*
X140485000Y-129330000D01*
X137395170Y-129330000D02*
G75*
G02*
X138940000Y-123780000I1544830J2560000D01*
G01*
X138940000Y-123780000D02*
G75*
G02*
X140484830Y-129330000I0J-2990000D01*
G01*
X141440000Y-126770000D02*
G75*
G02*
X136440000Y-126770000I-2500000J0D01*
G01*
X136440000Y-126770000D02*
G75*
G02*
X141440000Y-126770000I2500000J0D01*
G01*
%TO.C,C2*%
X133610000Y-52300225D02*
G75*
G02*
X128370000Y-52300225I-2620000J0D01*
G01*
X128370000Y-52300225D02*
G75*
G02*
X133610000Y-52300225I2620000J0D01*
G01*
X133590000Y-52017225D02*
X133590000Y-52583225D01*
X133550000Y-51783225D02*
X133550000Y-52817225D01*
X133510000Y-51623225D02*
X133510000Y-52977225D01*
X133470000Y-51495225D02*
X133470000Y-53105225D01*
X133430000Y-51386225D02*
X133430000Y-53214225D01*
X133390000Y-51289225D02*
X133390000Y-53311225D01*
X133350000Y-51202225D02*
X133350000Y-53398225D01*
X133310000Y-51123225D02*
X133310000Y-53477225D01*
X133270000Y-51049225D02*
X133270000Y-53551225D01*
X133230000Y-50981225D02*
X133230000Y-53619225D01*
X133190000Y-50917225D02*
X133190000Y-53683225D01*
X133150000Y-50857225D02*
X133150000Y-53743225D01*
X133110000Y-50801225D02*
X133110000Y-53799225D01*
X133070000Y-50747225D02*
X133070000Y-53853225D01*
X133030000Y-50696225D02*
X133030000Y-53904225D01*
X132990000Y-53340225D02*
X132990000Y-53952225D01*
X132990000Y-50648225D02*
X132990000Y-51260225D01*
X132950000Y-53340225D02*
X132950000Y-53999225D01*
X132950000Y-50601225D02*
X132950000Y-51260225D01*
X132910000Y-53340225D02*
X132910000Y-54043225D01*
X132910000Y-50557225D02*
X132910000Y-51260225D01*
X132870000Y-53340225D02*
X132870000Y-54085225D01*
X132870000Y-50515225D02*
X132870000Y-51260225D01*
X132830000Y-53340225D02*
X132830000Y-54125225D01*
X132830000Y-50475225D02*
X132830000Y-51260225D01*
X132790000Y-53340225D02*
X132790000Y-54164225D01*
X132790000Y-50436225D02*
X132790000Y-51260225D01*
X132750000Y-53340225D02*
X132750000Y-54201225D01*
X132750000Y-50399225D02*
X132750000Y-51260225D01*
X132710000Y-53340225D02*
X132710000Y-54236225D01*
X132710000Y-50364225D02*
X132710000Y-51260225D01*
X132670000Y-53340225D02*
X132670000Y-54270225D01*
X132670000Y-50330225D02*
X132670000Y-51260225D01*
X132630000Y-53340225D02*
X132630000Y-54303225D01*
X132630000Y-50297225D02*
X132630000Y-51260225D01*
X132590000Y-53340225D02*
X132590000Y-54335225D01*
X132590000Y-50265225D02*
X132590000Y-51260225D01*
X132550000Y-53340225D02*
X132550000Y-54365225D01*
X132550000Y-50235225D02*
X132550000Y-51260225D01*
X132510000Y-53340225D02*
X132510000Y-54394225D01*
X132510000Y-50206225D02*
X132510000Y-51260225D01*
X132470000Y-53340225D02*
X132470000Y-54422225D01*
X132470000Y-50178225D02*
X132470000Y-51260225D01*
X132430000Y-53340225D02*
X132430000Y-54449225D01*
X132430000Y-50151225D02*
X132430000Y-51260225D01*
X132390000Y-53340225D02*
X132390000Y-54475225D01*
X132390000Y-50125225D02*
X132390000Y-51260225D01*
X132350000Y-53340225D02*
X132350000Y-54499225D01*
X132350000Y-50101225D02*
X132350000Y-51260225D01*
X132310000Y-53340225D02*
X132310000Y-54523225D01*
X132310000Y-50077225D02*
X132310000Y-51260225D01*
X132270000Y-53340225D02*
X132270000Y-54546225D01*
X132270000Y-50054225D02*
X132270000Y-51260225D01*
X132230000Y-53340225D02*
X132230000Y-54568225D01*
X132230000Y-50032225D02*
X132230000Y-51260225D01*
X132190000Y-53340225D02*
X132190000Y-54589225D01*
X132190000Y-50011225D02*
X132190000Y-51260225D01*
X132150000Y-53340225D02*
X132150000Y-54609225D01*
X132150000Y-49991225D02*
X132150000Y-51260225D01*
X132110000Y-53340225D02*
X132110000Y-54629225D01*
X132110000Y-49971225D02*
X132110000Y-51260225D01*
X132070000Y-53340225D02*
X132070000Y-54647225D01*
X132070000Y-49953225D02*
X132070000Y-51260225D01*
X132030000Y-53340225D02*
X132030000Y-54665225D01*
X132030000Y-49935225D02*
X132030000Y-51260225D01*
X131990000Y-53340225D02*
X131990000Y-54682225D01*
X131990000Y-49918225D02*
X131990000Y-51260225D01*
X131950000Y-53340225D02*
X131950000Y-54698225D01*
X131950000Y-49902225D02*
X131950000Y-51260225D01*
X131910000Y-53340225D02*
X131910000Y-54713225D01*
X131910000Y-49887225D02*
X131910000Y-51260225D01*
X131870000Y-53340225D02*
X131870000Y-54728225D01*
X131870000Y-49872225D02*
X131870000Y-51260225D01*
X131830000Y-53340225D02*
X131830000Y-54742225D01*
X131830000Y-49858225D02*
X131830000Y-51260225D01*
X131790000Y-53340225D02*
X131790000Y-54755225D01*
X131790000Y-49845225D02*
X131790000Y-51260225D01*
X131750000Y-53340225D02*
X131750000Y-54767225D01*
X131750000Y-49833225D02*
X131750000Y-51260225D01*
X131710000Y-53340225D02*
X131710000Y-54779225D01*
X131710000Y-49821225D02*
X131710000Y-51260225D01*
X131670000Y-53340225D02*
X131670000Y-54790225D01*
X131670000Y-49810225D02*
X131670000Y-51260225D01*
X131630000Y-53340225D02*
X131630000Y-54801225D01*
X131630000Y-49799225D02*
X131630000Y-51260225D01*
X131590000Y-53340225D02*
X131590000Y-54810225D01*
X131590000Y-49790225D02*
X131590000Y-51260225D01*
X131550000Y-53340225D02*
X131550000Y-54819225D01*
X131550000Y-49781225D02*
X131550000Y-51260225D01*
X131510000Y-53340225D02*
X131510000Y-54828225D01*
X131510000Y-49772225D02*
X131510000Y-51260225D01*
X131470000Y-53340225D02*
X131470000Y-54836225D01*
X131470000Y-49764225D02*
X131470000Y-51260225D01*
X131430000Y-53340225D02*
X131430000Y-54843225D01*
X131430000Y-49757225D02*
X131430000Y-51260225D01*
X131390000Y-53340225D02*
X131390000Y-54849225D01*
X131390000Y-49751225D02*
X131390000Y-51260225D01*
X131350000Y-53340225D02*
X131350000Y-54855225D01*
X131350000Y-49745225D02*
X131350000Y-51260225D01*
X131310000Y-53340225D02*
X131310000Y-54860225D01*
X131310000Y-49740225D02*
X131310000Y-51260225D01*
X131270000Y-53340225D02*
X131270000Y-54865225D01*
X131270000Y-49735225D02*
X131270000Y-51260225D01*
X131230000Y-53340225D02*
X131230000Y-54869225D01*
X131230000Y-49731225D02*
X131230000Y-51260225D01*
X131190000Y-53340225D02*
X131190000Y-54872225D01*
X131190000Y-49728225D02*
X131190000Y-51260225D01*
X131150000Y-53340225D02*
X131150000Y-54875225D01*
X131150000Y-49725225D02*
X131150000Y-51260225D01*
X131110000Y-53340225D02*
X131110000Y-54877225D01*
X131110000Y-49723225D02*
X131110000Y-51260225D01*
X131070000Y-53340225D02*
X131070000Y-54879225D01*
X131070000Y-49721225D02*
X131070000Y-51260225D01*
X131030000Y-53340225D02*
X131030000Y-54880225D01*
X131030000Y-49720225D02*
X131030000Y-51260225D01*
X130990000Y-53340225D02*
X130990000Y-54880225D01*
X130990000Y-49720225D02*
X130990000Y-51260225D01*
X128435225Y-50575225D02*
X128435225Y-51075225D01*
X128185225Y-50825225D02*
X128685225Y-50825225D01*
%TO.C,D6*%
X126500000Y-126770000D02*
G75*
G02*
X121500000Y-126770000I-2500000J0D01*
G01*
X121500000Y-126770000D02*
G75*
G02*
X126500000Y-126770000I2500000J0D01*
G01*
X124000000Y-123780000D02*
G75*
G02*
X125544830Y-129330000I0J-2990000D01*
G01*
X122455170Y-129330000D02*
G75*
G02*
X124000000Y-123780000I1544830J2560000D01*
G01*
X122455000Y-129330000D02*
X125545000Y-129330000D01*
%TO.C,D3*%
X136895000Y-107640000D02*
X139985000Y-107640000D01*
X136895170Y-107640000D02*
G75*
G02*
X138440000Y-102090000I1544830J2560000D01*
G01*
X138440000Y-102090000D02*
G75*
G02*
X139984830Y-107640000I0J-2990000D01*
G01*
X140940000Y-105080000D02*
G75*
G02*
X135940000Y-105080000I-2500000J0D01*
G01*
X135940000Y-105080000D02*
G75*
G02*
X140940000Y-105080000I2500000J0D01*
G01*
%TO.C,D10*%
X156380000Y-126770000D02*
G75*
G02*
X151380000Y-126770000I-2500000J0D01*
G01*
X151380000Y-126770000D02*
G75*
G02*
X156380000Y-126770000I2500000J0D01*
G01*
X153880000Y-123780000D02*
G75*
G02*
X155424830Y-129330000I0J-2990000D01*
G01*
X152335170Y-129330000D02*
G75*
G02*
X153880000Y-123780000I1544830J2560000D01*
G01*
X152335000Y-129330000D02*
X155425000Y-129330000D01*
%TO.C,R6*%
X140430000Y-96770000D02*
X140430000Y-90230000D01*
X140760000Y-96770000D02*
X140430000Y-96770000D01*
X142840000Y-96770000D02*
X143170000Y-96770000D01*
X143170000Y-96770000D02*
X143170000Y-90230000D01*
X140430000Y-90230000D02*
X140760000Y-90230000D01*
X143170000Y-90230000D02*
X142840000Y-90230000D01*
%TO.C,R11*%
X144081021Y-112506097D02*
X143751021Y-112506097D01*
X141341021Y-112506097D02*
X141671021Y-112506097D01*
X144081021Y-119046097D02*
X144081021Y-112506097D01*
X143751021Y-119046097D02*
X144081021Y-119046097D01*
X141671021Y-119046097D02*
X141341021Y-119046097D01*
X141341021Y-119046097D02*
X141341021Y-112506097D01*
%TO.C,R3*%
X128280000Y-96770000D02*
X128280000Y-90230000D01*
X128610000Y-96770000D02*
X128280000Y-96770000D01*
X130690000Y-96770000D02*
X131020000Y-96770000D01*
X131020000Y-96770000D02*
X131020000Y-90230000D01*
X128280000Y-90230000D02*
X128610000Y-90230000D01*
X131020000Y-90230000D02*
X130690000Y-90230000D01*
%TO.C,R7*%
X144480000Y-96770000D02*
X144480000Y-90230000D01*
X144810000Y-96770000D02*
X144480000Y-96770000D01*
X146890000Y-96770000D02*
X147220000Y-96770000D01*
X147220000Y-96770000D02*
X147220000Y-90230000D01*
X144480000Y-90230000D02*
X144810000Y-90230000D01*
X147220000Y-90230000D02*
X146890000Y-90230000D01*
%TO.C,R8*%
X131931021Y-112506097D02*
X131601021Y-112506097D01*
X129191021Y-112506097D02*
X129521021Y-112506097D01*
X131931021Y-119046097D02*
X131931021Y-112506097D01*
X131601021Y-119046097D02*
X131931021Y-119046097D01*
X129521021Y-119046097D02*
X129191021Y-119046097D01*
X129191021Y-119046097D02*
X129191021Y-112506097D01*
%TO.C,R5*%
X136380000Y-96770000D02*
X136380000Y-90230000D01*
X136710000Y-96770000D02*
X136380000Y-96770000D01*
X138790000Y-96770000D02*
X139120000Y-96770000D01*
X139120000Y-96770000D02*
X139120000Y-90230000D01*
X136380000Y-90230000D02*
X136710000Y-90230000D01*
X139120000Y-90230000D02*
X138790000Y-90230000D01*
%TO.C,R4*%
X132330000Y-96770000D02*
X132330000Y-90230000D01*
X132660000Y-96770000D02*
X132330000Y-96770000D01*
X134740000Y-96770000D02*
X135070000Y-96770000D01*
X135070000Y-96770000D02*
X135070000Y-90230000D01*
X132330000Y-90230000D02*
X132660000Y-90230000D01*
X135070000Y-90230000D02*
X134740000Y-90230000D01*
%TO.C,U1*%
X138080000Y-58099775D02*
G75*
G02*
X136080000Y-58099775I-1000000J0D01*
G01*
X139730000Y-68379775D02*
X139730000Y-58099775D01*
X139730000Y-58099775D02*
X138080000Y-58099775D01*
X136080000Y-58099775D02*
X134430000Y-58099775D01*
X134430000Y-68379775D02*
X139730000Y-68379775D01*
X134430000Y-58099775D02*
X134430000Y-68379775D01*
%TO.C,R1*%
X148370000Y-59909775D02*
X148370000Y-66449775D01*
X148040000Y-59909775D02*
X148370000Y-59909775D01*
X145960000Y-59909775D02*
X145630000Y-59909775D01*
X145630000Y-59909775D02*
X145630000Y-66449775D01*
X148370000Y-66449775D02*
X148040000Y-66449775D01*
X145630000Y-66449775D02*
X145960000Y-66449775D01*
%TO.C,R2*%
X144960000Y-53870000D02*
X138420000Y-53870000D01*
X144960000Y-53540000D02*
X144960000Y-53870000D01*
X144960000Y-51460000D02*
X144960000Y-51130000D01*
X144960000Y-51130000D02*
X138420000Y-51130000D01*
X138420000Y-53870000D02*
X138420000Y-53540000D01*
X138420000Y-51130000D02*
X138420000Y-51460000D01*
%TO.C,R9*%
X135981021Y-112506097D02*
X135651021Y-112506097D01*
X133241021Y-112506097D02*
X133571021Y-112506097D01*
X135981021Y-119046097D02*
X135981021Y-112506097D01*
X135651021Y-119046097D02*
X135981021Y-119046097D01*
X133571021Y-119046097D02*
X133241021Y-119046097D01*
X133241021Y-119046097D02*
X133241021Y-112506097D01*
%TO.C,R10*%
X140031021Y-112506097D02*
X139701021Y-112506097D01*
X137291021Y-112506097D02*
X137621021Y-112506097D01*
X140031021Y-119046097D02*
X140031021Y-112506097D01*
X139701021Y-119046097D02*
X140031021Y-119046097D01*
X137621021Y-119046097D02*
X137291021Y-119046097D01*
X137291021Y-119046097D02*
X137291021Y-112506097D01*
%TO.C,R12*%
X145391021Y-119046097D02*
X145391021Y-112506097D01*
X145721021Y-119046097D02*
X145391021Y-119046097D01*
X147801021Y-119046097D02*
X148131021Y-119046097D01*
X148131021Y-119046097D02*
X148131021Y-112506097D01*
X145391021Y-112506097D02*
X145721021Y-112506097D01*
X148131021Y-112506097D02*
X147801021Y-112506097D01*
%TO.C,U2*%
X127390000Y-79190000D02*
G75*
G02*
X127390000Y-81190000I0J-1000000D01*
G01*
X147830000Y-77540000D02*
X127390000Y-77540000D01*
X127390000Y-77540000D02*
X127390000Y-79190000D01*
X127390000Y-81190000D02*
X127390000Y-82840000D01*
X147830000Y-82840000D02*
X147830000Y-77540000D01*
X127390000Y-82840000D02*
X147830000Y-82840000D01*
%TD*%
D23*
X100000000Y-140000000D02*
X175000000Y-140500000D01*
X175000000Y-40500000D02*
X100000000Y-40500000D01*
X100000000Y-140000000D02*
X100000000Y-40500000D01*
X175000000Y-140500000D02*
X175000000Y-40500000D01*
M02*
