M48
; DRILL file KiCad 10.0.4 date 2026-06-24T15:09:09
; FORMAT={-:-/ absolute / metric / decimal}
; #@! TF.CreationDate,2026-06-24T15:09:09+05:30
; #@! TF.GenerationSoftware,Kicad,Pcbnew,10.0.4
; #@! TF.FileFunction,Plated,1,2,PTH
FMAT,2
METRIC
; #@! TA.AperFunction,Plated,PTH,ComponentDrill
T1C0.800
; #@! TA.AperFunction,Plated,PTH,ComponentDrill
T2C0.900
%
G90
G05
T1
X126.5Y-60.5
X126.5Y-65.5
X128.72Y-76.38
X128.72Y-84.0
X129.65Y-89.69
X129.65Y-97.31
X129.99Y-52.3
X130.561Y-111.966
X130.561Y-119.586
X131.26Y-76.38
X131.26Y-84.0
X131.99Y-52.3
X133.27Y-59.43
X133.27Y-61.97
X133.27Y-64.51
X133.27Y-67.05
X133.7Y-89.69
X133.7Y-97.31
X133.8Y-76.38
X133.8Y-84.0
X134.611Y-111.966
X134.611Y-119.586
X136.34Y-76.38
X136.34Y-84.0
X137.75Y-89.69
X137.75Y-97.31
X137.88Y-52.5
X138.661Y-111.966
X138.661Y-119.586
X138.88Y-76.38
X138.88Y-84.0
X140.89Y-59.43
X140.89Y-61.97
X140.89Y-64.51
X140.89Y-67.05
X141.42Y-76.38
X141.42Y-84.0
X141.8Y-89.69
X141.8Y-97.31
X142.711Y-111.966
X142.711Y-119.586
X143.96Y-76.38
X143.96Y-84.0
X145.5Y-52.5
X145.85Y-89.69
X145.85Y-97.31
X146.5Y-76.38
X146.5Y-84.0
X146.761Y-111.966
X146.761Y-119.586
X147.0Y-59.37
X147.0Y-66.99
T2
X123.5Y-103.81
X123.5Y-106.35
X124.0Y-125.5
X124.0Y-128.04
X130.97Y-103.81
X130.97Y-106.35
X131.47Y-125.5
X131.47Y-128.04
X138.44Y-103.81
X138.44Y-106.35
X138.94Y-125.5
X138.94Y-128.04
X145.91Y-103.81
X145.91Y-106.35
X146.41Y-125.5
X146.41Y-128.04
X153.38Y-103.81
X153.38Y-106.35
X153.88Y-125.5
X153.88Y-128.04
M30
